<?xml version="1.0" encoding="UTF-8"?>
<svg xmlns="http://www.w3.org/2000/svg" xmlns:xlink="http://www.w3.org/1999/xlink" viewBox="0 0 122.63 198.52">
  <defs>
    <style>
      .cls-1 {
        fill: url(#linear-gradient-2);
      }

      .cls-2 {
        fill: #fff;
      }

      .cls-3 {
        fill: #94d5e8;
      }

      .cls-4 {
        fill: url(#linear-gradient-6);
      }

      .cls-5 {
        isolation: isolate;
      }

      .cls-6 {
        fill: #585b5c;
      }

      .cls-7 {
        fill: #c38270;
      }

      .cls-8 {
        mix-blend-mode: screen;
        opacity: .49;
      }

      .cls-9 {
        fill: url(#linear-gradient-5);
      }

      .cls-10 {
        fill: #f27283;
      }

      .cls-11 {
        fill: url(#linear-gradient-3);
      }

      .cls-12 {
        fill: url(#linear-gradient);
      }

      .cls-13 {
        fill: url(#linear-gradient-4);
      }

      .cls-14 {
        fill: #f7a990;
      }
    </style>
    <linearGradient id="linear-gradient" x1="-684.96" y1="227.42" x2="-699.09" y2="115.53" gradientTransform="translate(715.14 -146.41) rotate(-8.51)" gradientUnits="userSpaceOnUse">
      <stop offset="0" stop-color="#b86a83"/>
      <stop offset="1" stop-color="#371c55"/>
    </linearGradient>
    <linearGradient id="linear-gradient-2" x1="-651.07" y1="223.14" x2="-665.21" y2="111.25" xlink:href="#linear-gradient"/>
    <linearGradient id="linear-gradient-3" x1="-639.04" y1="221.62" x2="-653.18" y2="109.73" xlink:href="#linear-gradient"/>
    <linearGradient id="linear-gradient-4" x1="-712.34" y1="229.53" x2="-733.27" y2="63.81" xlink:href="#linear-gradient"/>
    <linearGradient id="linear-gradient-5" x1="-750.66" y1="139.14" x2="-693.01" y2="139.14" xlink:href="#linear-gradient"/>
    <linearGradient id="linear-gradient-6" x1="-972.53" y1="161.22" x2="-985.78" y2="43.45" gradientTransform="translate(1051.75)" xlink:href="#linear-gradient"/>
  </defs>
  <g class="cls-5">
    <g id="Layer_2" data-name="Layer 2">
      <g id="Layer_1-2" data-name="Layer 1">
        <g>
          <g>
            <path class="cls-12" d="m18.63,182.01c9.22,7.23,20.82,11.7,32.17,12.51,27.06,1.93,60.23-3.18,64.37-35.52,2.1-16.43-9.35-25.05-11.84-39.61-1.79-10.44,3.19-19.15,3.45-29.22.21-8.11-2.41-21.75-6.33-28.75-3.33-5.96-8.33-10.82-12.47-16.19-6.45-8.37-10.39-18.09-14.79-27.62-5.02-10.87-15.83-18.26-27.77-13.22-5.21,2.2-8.55,7.55-11.16,12.29-1.91,3.47-6.36,7.41-6.87,11.22-.31,2.36.22,4.75.83,7.05,5.86,22.08,5.48,46.91-7.09,66.97-5.69,9.08-12.77,16.7-16.79,26.9-3.98,10.1-5.37,21.43-1.64,31.82,3.05,8.5,8.77,15.77,15.93,21.38Z"/>
            <path class="cls-1" d="m32.61,14.97c3.64-5.58,9.76-9.03,16.27-10.05,6.76-1.05,13.57.59,19.14,4.55,5.76,4.09,9.92,10.22,12.07,16.92,1.21,3.79,1.5,7.69,1.92,11.61.42,3.97,1.18,7.9,3.45,11.26,2.04,3.01,4.88,5.35,7.61,7.71,2.81,2.43,5.41,4.99,7.48,8.1,4.04,6.09,6.07,13.52,5.74,20.82-.17,3.83-1.06,7.49-2.42,11.06-1.45,3.83-2.95,7.56-3.44,11.66-.46,3.87-.19,7.83.78,11.61,1.01,3.95,2.84,7.49,5.07,10.89,2.37,3.62,4.78,7.16,6.55,11.13,1.71,3.86,2.9,7.96,3.3,12.17.68,7.3-1.27,14.93-6.12,20.54-1.13,1.31-2.42,2.46-3.83,3.47-.44.32.09.98.53.66,5.77-4.13,9.22-10.83,10.14-17.77,1.11-8.28-1.42-16.7-5.5-23.85-2.18-3.82-4.97-7.28-6.97-11.21-1.87-3.68-2.96-7.74-3.24-11.86-.3-4.38.4-8.7,1.88-12.81,1.37-3.81,3-7.47,3.68-11.48,1.22-7.22.06-14.82-3.12-21.4-1.57-3.25-3.64-6.27-6.16-8.86-2.68-2.76-5.82-5.03-8.52-7.78-1.35-1.37-2.59-2.86-3.52-4.55-1.1-1.98-1.72-4.16-2.1-6.38-.71-4.12-.7-8.33-1.67-12.41-1.62-6.83-5.26-13.2-10.51-17.88-5.09-4.54-11.6-7.18-18.45-7.09-6.47.08-13.04,2.45-17.7,7.02-1.14,1.12-2.15,2.35-3.02,3.68-.3.46.38.96.68.51h0Z"/>
            <path class="cls-11" d="m76.73,36.56c3.91,4.68,7.88,9.31,11.92,13.88,3.76,4.25,7.67,8.36,11.39,12.65,3.09,3.56,5.8,7.45,6.99,12.07,1.41,5.48,1.08,11.5-.21,16.97-.67,2.86-1.75,5.61-2.43,8.47-.61,2.55-.79,5.18-.55,7.79.49,5.22,2.64,10.21,5.87,14.32,1.78,2.26,3.83,4.29,5.64,6.53,1.74,2.15,3.14,4.52,4.16,7.09,2.03,5.13,2.57,10.77,2.09,16.24-.45,5.13-1.75,10.37-4.65,14.68-2.82,4.19-7.35,7.36-12.48,7.77-1.27.1-2.54,0-3.78-.27-.53-.12-.63.73-.1.84,4.86,1.06,9.92-.73,13.62-3.93,3.8-3.3,6.04-8.01,7.23-12.82,1.3-5.24,1.56-10.85.68-16.18-.9-5.45-3.13-10.43-6.69-14.65-1.91-2.27-4.03-4.38-5.78-6.78-1.64-2.26-2.93-4.79-3.81-7.45-.89-2.69-1.34-5.55-1.24-8.39.1-2.98.9-5.81,1.79-8.65,1.78-5.69,2.75-11.46,2.21-17.44-.44-4.85-2.21-9.28-5.05-13.21-3.17-4.38-7.11-8.22-10.72-12.24-4.22-4.7-8.38-9.47-12.46-14.29-.99-1.17-1.98-2.35-2.97-3.53-.35-.42-1.01.11-.66.53h0Z"/>
            <path class="cls-13" d="m31.7,15.78c-4.21,5.01-6.15,11.06-5.89,17.57.27,6.78,2.2,13.51,5.07,19.63,3.06,6.5,6.75,12.82,7.29,20.14.54,7.34-1.61,14.67-4.8,21.21-3.06,6.29-7.12,12.09-11.53,17.51-3.88,4.77-8.02,9.33-11.74,14.23-3.62,4.76-6.96,9.92-8.78,15.67-1.86,5.86-1.7,11.86.14,17.72,4.03,12.81,14.9,22.5,26.69,28.21,1.45.7,2.93,1.35,4.42,1.94.51.2.82-.59.32-.79-12.24-4.83-23.85-13.69-29.26-25.98-2.53-5.76-3.59-12.1-2.21-18.3,1.3-5.84,4.4-11.13,7.85-15.94,3.55-4.94,7.6-9.49,11.5-14.15,4.26-5.09,8.24-10.43,11.49-16.23,3.37-6.01,5.97-12.58,6.64-19.49.35-3.61.16-7.25-.74-10.77-.84-3.3-2.19-6.42-3.67-9.48-1.5-3.1-3.11-6.15-4.4-9.35-1.31-3.25-2.18-6.66-2.8-10.11-1.13-6.25-1.01-12.71,2.07-18.42.84-1.55,1.87-2.98,3-4.33.35-.42-.33-.92-.68-.51h0Z"/>
            <path class="cls-9" d="m38.58,50.75c-1.64-2.45-3.37-4.82-4.82-7.4-1.4-2.5-2.63-5.12-3.53-7.84-1.79-5.44-2.15-11.47.62-16.65.71-1.33,1.61-2.56,2.61-3.69.36-.41-.32-.91-.68-.51-3.89,4.38-5.39,10.01-4.61,15.77.76,5.64,3.29,10.94,6.28,15.73,1.73,2.77,3.74,5.34,5.37,8.18,1.8,3.13,3.29,6.43,4.48,9.84,2.4,6.88,3.54,14.19,3.58,21.47.03,7.22-.93,14.61-3.15,21.49-1.06,3.29-2.49,6.5-4.5,9.33-2.17,3.04-5.02,5.45-8.26,7.3-3.32,1.89-6.97,3.03-10.38,4.73-1.71.85-3.38,1.78-5.09,2.63-1.58.79-3.2,1.47-4.72,2.4-5.62,3.44-9.77,9.02-10.78,15.6-1.06,6.94,1.35,13.94,5.14,19.69,3.07,4.67,7.2,8.22,11.58,11.52-.59-.53-1.19-1.04-1.76-1.59-.91-.86-1.88-1.72-2.69-2.7-.28-.34-.54-.7-.79-1.08-.93-.86-1.82-1.75-2.66-2.71-4.63-5.27-8.05-12.15-8.23-19.26-.18-7.14,3.35-13.58,9.08-17.73,1.41-1.02,2.91-1.84,4.48-2.56,1.71-.79,3.36-1.67,5.02-2.54,3.31-1.73,6.82-2.93,10.16-4.58,3.19-1.58,6.18-3.57,8.6-6.19,2.24-2.42,3.94-5.31,5.23-8.34,2.69-6.3,3.93-13.32,4.39-20.12.94-13.99-2.11-28.46-9.98-40.2Z"/>
          </g>
          <path class="cls-2" d="m31.82,85.41c3.75-6.95,7.29-14.28,12.51-20.28,4.56-5.24,10.71-6.28,17.32-6.3,5.42-.02,14.94-1.43,19.68,1.55,9.76,6.15,4.22,29.58,2.69,38.44-2.38,13.83-6.09,27.65-5.75,41.79.13,5.61,2.65,11.25-4.14,12.87-6.45,1.54-14.85-1.06-21.04-2.76-5.7-1.56-11.04-3.54-15.94-6.88-4.22-2.87-5.95-7.53-7.83-12.21-4.12-10.26-6.48-22.13-3.16-32.96,1.42-4.6,3.36-9.03,5.65-13.26Z"/>
          <path class="cls-14" d="m60.4,54.63c-.67-2.62-2.26-5.06-3.5-7.42-1.73-3.31-3.39-6.77-3.45-10.55-.1-6.12,4.55-6.45,9.05-3.97,3.82,2.1,6.71,6.41,9.62,9.55,2.53,2.73,5.09,5.51,6.78,8.82,3.06,5.99,4.6,16.64-.06,22.03-4.06,4.7-8.4,9.16-13,13.34-4.27,3.89-9.27,7.15-13.07,11.51-2.57,2.96-4.46,6.3-8.81,6.32-4.53.03-5.26-3.23-6.93-7.64-1.23-3.23,1.48-3.78,2.91-6.7,3.42-6.95,6.68-7,12.23-11.79,5.16-4.45,8.96-13.53,8.54-21.57-.03-.66-.14-1.31-.3-1.94Z"/>
          <path class="cls-2" d="m89.19,109.26c-2.7,5.32-6.33,10.43-8.86,15.69-2.72,5.64-.28,13.36,1.88,18.81,4.07,10.24,12.72,21.88,13.51,33.12,1.59,22.47-35.2,22.05-49.16,21.46-4.6-.19-9.3.29-13.84-.74-6.89-1.57-5.5-4.79-5.42-10.67.35-26.76-2.03-57.3,7.12-82.95,2.11-5.93,1.85-13.45,6.21-18.31,4.38-4.89,10.18-6.45,15.78-9.22,7.69-3.81,11.79-9.51,17.92-14.69,5.2-4.4,14.02-3.99,17.77,2.15,4.12,6.76,5.34,15.02,4.44,22.89-.89,7.87-3.77,15.39-7.35,22.45Z"/>
          <g class="cls-8">
            <path class="cls-6" d="m37.88,117.65c.26.3.93,1.01,1.32.51.38-.49-.46-.98-.8-1.18-.43-.24-.83.31-.51.67h0Z"/>
          </g>
          <path class="cls-7" d="m22.37,93.12c-.26,0-.47-.2-.49-.46-.02-.27.19-.5.46-.52.28-.02.57-.18.85-.34.44-.25.81-.48.95-.81.1-.25.39-.37.64-.27.25.1.37.39.27.64-.27.68-.94,1.05-1.38,1.3-.35.19-.77.43-1.28.46,0,0-.02,0-.03,0Z"/>
          <path class="cls-14" d="m8.72,95.54c-.1-3.24,1.46-6.43,3.89-8.57,2.43-2.14,5.67-3.26,8.91-3.38,1.74-.07,3.64.31,5.11,1.28.76.5,1.48,1.11,2.03,1.84.5.66.61,1.53,1.23,2.06.47.4.88.15,1.4.22.54.07.7.23,1.03.69.59.81.6,1.87.7,2.82.07.7.26,1.36.57,1.99.23.47.86,1.02.89,1.53.06.84-1.03,1.09-1.03,1.91,0,.76.39,1.1-.07,1.82-.28.44-.73.73-1.17.99-1.26.74-2.4,1.31-3.77,1.73-.6.18-1.73-.06-2.19.17-2.19,1.09-4.69,1.53-7.13,1.3-1.04-.1-2.02-.43-3.07-.31-.85.09-1.54.25-2.41-.02-3.07-.96-4.85-5.1-4.94-8.07Z"/>
          <path class="cls-7" d="m24.42,94.18c-.11,0-.22,0-.33-.02-.27-.03-.46-.27-.44-.54.03-.27.27-.46.54-.44.98.11,2.03-.5,2.43-1.4.11-.25.4-.36.65-.25.25.11.36.4.25.65-.53,1.2-1.8,2-3.1,2Z"/>
          <path class="cls-10" d="m24.8,95.4c-1.19-.14-2.39.71-2.75,1.86-.62,1.98.98,3.24,2.86,2.68.93-.28,1.75-1.05,1.9-2.01.18-1.19-.81-2.39-2.01-2.53Z"/>
          <path class="cls-14" d="m45.33,91.05s-.03.05-.05.07c-.08.09-.22.14-.33.08-.1-.06-.13-.2-.14-.33-.05-.6.07-1.32-.18-1.87-.05-.1-.1-.2-.19-.27-.09-.07-.21-.09-.31-.04-.09.05-.14.16-.19.25s-.14.19-.24.18c-.11-.01-.17-.13-.19-.24-.22-1.13-1.06.12-1.2.65-.55,2.12-.99-.54-1.78.1-.25.2-.17.79-.17,1.07,0,.26.23,1.92-.28,1.87-.34-.03-.57-.54-.98-.54-.38,0-.56.35-.61.68-.1.79.26,1.66.7,2.3.43.62.79,1.26,1.42,1.71,1.2.86,2.93,1.06,4.23.29,1.26-.75,1.77-2.1,1.95-3.49.07-.53-.06-3.89-1.02-3.18-.15.11-.25.29-.32.46-.04.09-.07.18-.12.25Z"/>
          <path class="cls-3" d="m45.25,96.56c-.53-1.22-1.5-2-3.1-1.96-2.92.07-3.81,3-4.6,5.3-1.18,3.45-2.18,3.91-5.76,4.55-2.17.38-4.17.95-4.96,3.25-.9,2.63.46,5.73,2.83,7.19,2.36,1.47,5.48,1.42,8,.26,2.53-1.16,4.5-3.31,5.87-5.73,1.14-2.02,3.26-9.31,1.72-12.85Z"/>
          <path class="cls-7" d="m31.11,91.32c-.15.07-.27.24-.36.37-.03.04-.06.09-.08.13-.06.11-.07.23-.08.36,0,.17.1.33.24.42.16.09.33.07.49,0,.08-.04.14-.08.2-.14.06-.06.11-.15.16-.22.1-.14.17-.31.18-.49.01-.17-.1-.35-.25-.43-.16-.1-.34-.08-.5,0h0Z"/>
          <path class="cls-7" d="m32.46,93.01c-.11.33-.01.68-.11,1.02-.1.32-.25.62-.5.84-.35.29.1.77.46.59.48-.23.86-.57,1.03-1.09.16-.49.14-1.15-.29-1.51-.2-.17-.5-.11-.58.15h0Z"/>
          <path class="cls-7" d="m31.74,95.69c.28.18.6.24.91.36.34.13.56.35.81.59.56.53,1.44-.14,1.06-.82-.46-.84-2.32-1.63-2.88-.48-.06.13-.03.27.09.35h0Z"/>
          <path class="cls-7" d="m16.5,99.47c-.43-.33-.73-.61-1.3-.39-.48.18-.79.65-.94,1.13-.34,1.09.12,2.3.93,3.05.9.84,2.26,1.21,3.47,1.08,1.06-.11,2.33-.91,2.01-2.13-.07-.27-.48-.34-.61-.08-.37.74-.81,1.2-1.68,1.26-.68.05-1.42-.11-2.02-.42-.62-.31-1.13-.83-1.31-1.52-.25-.92.19-1.96,1.33-1.68.19.05.27-.19.13-.3h0Z"/>
          <path class="cls-3" d="m38.43,128.44c2.24.75,4.61,1.28,6.96,1.03,2.35-.26,4.69-1.4,5.93-3.41,1.55-2.5,1.08-5.91-.64-8.29-1.72-2.38-4.49-3.83-7.34-4.56-1.92-.49-4.2-.6-5.65.76-.95.89-1.33,2.22-1.66,3.48-.65,2.43-1.25,4.9-2,7.3-.11-.06-.21-.12-.32-.18.43,2.11,2.79,3.23,4.73,3.88Z"/>
          <path class="cls-3" d="m21.38,103.06c1.02-.48,2.12-.77,3.22-1.04,4.47-1.1,10.05-3.12,14.45-1.38,4.77,1.88,8.89,5.05,13.47,7.3,5.26,2.59,8.81,7.42,12.04,12.14,3.18,4.65,2.02,8.52-3.26,11.67-4.93,2.93-11.62,3.8-17.28,3.71-5.6-.09-10.85-2.91-14.33-7.22-2.25-2.78-5.38-4.65-7.31-7.64-2.52-3.91-7.23-13.45-2.05-16.94.34-.23.69-.42,1.05-.59Z"/>
          <path class="cls-14" d="m77.04,125.64c-.92,5.01-11.91,12.04-16.03,14.71-6.4,4.14-9.38,4.37-16.46,1.33-7.5-3.22-13.72-8.93-18.73-15.33-.84-1.07-1.67-2.22-1.95-3.55-.29-1.33.11-2.9,1.27-3.62,1.81-1.12,4.13.38,5.45,2.05,3.78,4.82,15.14,10.24,20.47,4.74,3.49-3.59,5.37-9.26,10.48-10.98,6.44-2.18,16.95,2.79,15.51,10.65Z"/>
          <path class="cls-14" d="m47.75,101.41c-.72-1.25-2.92-.74-3.38.63-.46,1.37.46,2.89,1.72,3.61,1.26.71,2.76.81,4.2.89.63-2.28-.89-4.93-3.18-5.52l.64.39Z"/>
          <path class="cls-3" d="m63.78,106.66c.83,1.04,1.82,2.35,3.08,2.01,1.02-.28,1.75-1.14,2.56-1.82.81-.68,1.97-1.21,2.9-.7,1.2.65,1.07,2.39.73,3.72-.85,3.26-1.65,6.1-4.62,7.99-.88.56-2.07.78-2.98.27-1.46-.82-2.04-3.25-3.7-3.09-3.46.32-1.2,5.16-6.16,4.03-3.38-.77-6.84-2.81-6.95-6.6-.11-3.82,2.89-8.03,6.24-9.78,3.71-1.93,5.72.69,8.25,3.21.21.21.43.48.66.76Z"/>
          <path class="cls-7" d="m42.79,113.22c.61-.55,1.19-1.03,1.73-1.67.52-.61,1.06-1.21,1.63-1.78,1.18-1.18,2.51-2.29,4.07-2.94,1.48-.62,3.02-.8,4.54-.21,1.36.52,2.21,1.59,3.32,2.47.24.19.7.1.68-.28-.12-1.61-1.5-2.53-2.91-3.05-1.57-.58-3.42-.52-5.02-.1-1.76.45-3.41,1.41-4.76,2.62-.74.66-1.42,1.4-2.04,2.16-.27.33-.54.66-.79,1-.35.48-.52.98-.79,1.5-.12.23.16.44.35.27h0Z"/>
          <path class="cls-14" d="m30.51,107.96c.98.28,4.85,1.27,3.79-.97-.51-1.08-2.09-1.61-3.05-2.17-1.14-.67-1.99-1.65-3.18-2.23-1.21-.59-2.55-.88-3.88-.96-1.71-.1-3.35.18-5.04.37-1.32.15-2.34-.54-3.68.15-2.53,1.29-2.59,4.52-1.48,6.79,1.88,3.85,4.96,6.89,6.63,10.87.83,1.99.73,4.42,2.16,6.03.27.31.77.58,1.07.3.23-.21.17-.58.09-.88-.41-1.61-1.6-4.15-1.39-5.77.04-.3,1.35,1.49,1.37,1.52.62.96,1.24,1.91,1.86,2.87.37.56.95,1.64,1.59,1.93.38.17.95,0,.99-.43.03-.26-.14-.55.11-.75.19-.15.44.19.69.04.84-.48-.14-2.16.06-2.29.14-.09.27.12.41.23,1.15.88.61-3.87.57-4.09-.24-1.27-.57-2.51-.96-3.74-.45-1.4-.99-2.78-1.56-4.14-.42-1.01-1.61-2.49.14-2.95.86-.23,1.78,0,2.7.25Z"/>
          <path class="cls-7" d="m28.19,126.46c-.25,0-.52-.06-.76-.19-.43-.23-.74-.59-1-.95-.46-.63-.85-1.31-1.23-1.96-.51-.87-.99-1.7-1.6-2.42l.7,3.43c.2.97-.05,1.66-.67,1.88-.54.2-1.11-.11-1.39-.52-.23-.34-.3-.71-.36-1.04v-.04c-.44-2.34-1.3-4.55-2.56-6.57-.74-1.2-1.65-2.29-2.52-3.36-2.04-2.48-4.15-5.04-4.15-8.84,0-1,.15-1.76.47-2.4.44-.87,1.23-1.48,2.07-1.59.27-.04.52.15.55.42.04.27-.15.52-.42.55-.53.07-1.03.48-1.33,1.06-.25.5-.37,1.12-.37,1.96,0,3.44,1.91,5.76,3.93,8.22.89,1.09,1.82,2.21,2.6,3.46,1.32,2.13,2.23,4.45,2.69,6.91v.04c.06.26.1.5.21.67.08.11.2.16.24.15.08-.03.14-.32.05-.77l-.75-3.67c-.03-.14-.1-.64.16-.98.13-.17.32-.28.53-.3.39-.03.66.24.76.35.83.87,1.43,1.9,2.01,2.9.37.63.75,1.29,1.18,1.88.19.26.4.52.66.66.2.1.44.11.56,0,.04-.03.05-.09.06-.14-.08-.08-.14-.16-.19-.26-.1-.2-.05-.43.11-.58.16-.15.4-.17.59-.06.1.06.18.13.25.22.05,0,.11,0,.15-.03.12-.09.18-.32.15-.54-.04-.28-.21-.57-.36-.85-.08-.14-.08-.3-.01-.45.07-.14.2-.24.35-.27.13-.02.26-.17.32-.36.08-.24.06-.52.04-.84-.3-3.87-1.38-7.74-3.12-11.21l-.02-.03c-.17-.34-.36-.72-.41-1.16-.06-.61.2-1.17.67-1.42.52-.29,1.11-.12,1.49,0,1.47.43,2.99.66,4.52.69.55,0,.88-.08,1-.27.13-.19.02-.52-.15-.73-.76-.88-1.84-1.37-3-1.88-1.18-.53-2.4-1.07-3.32-2.09-.18-.2-.16-.51.04-.69.2-.18.51-.16.69.04.78.86,1.85,1.34,2.99,1.85,1.2.53,2.44,1.09,3.34,2.14.4.47.64,1.26.23,1.9-.43.66-1.26.72-1.84.71-1.62-.03-3.23-.27-4.78-.73-.26-.08-.58-.17-.74-.08-.11.06-.19.26-.17.47.03.26.16.53.31.82l.02.03c1.79,3.58,2.91,7.58,3.22,11.57.03.41.05.81-.08,1.21-.1.31-.27.57-.5.76.11.22.2.47.24.73.09.59-.11,1.15-.51,1.46-.16.13-.36.2-.56.23-.06.23-.19.45-.37.6-.24.2-.55.3-.88.3Z"/>
          <path class="cls-7" d="m44.33,129.83c-2.03,0-4.2-.44-6.3-1.31-4.14-1.72-7.14-4.74-8.02-8.08-.07-.26.09-.53.35-.6.26-.07.53.09.6.35.8,3.04,3.58,5.82,7.44,7.42,3.94,1.64,8.11,1.65,10.89.04.79-.46,2.12-1.43,2.24-2.8.05-.58-.29-1.25-.83-1.61-.22-.15-.66-.37-1.11-.15-.24.12-.54.02-.66-.23-.12-.24-.02-.54.23-.66.66-.32,1.42-.24,2.09.22.82.57,1.33,1.57,1.25,2.5-.11,1.35-1.08,2.62-2.72,3.57-1.52.88-3.41,1.33-5.45,1.33Z"/>
          <path class="cls-7" d="m34.37,103.41c-.15,0-.29-.07-.39-.19-.16-.21-.12-.52.09-.69,2.43-1.86,4.32-4.48,5.34-7.36.09-.26.37-.39.63-.3.26.09.39.37.3.63-1.08,3.06-3.09,5.84-5.67,7.81-.09.07-.19.1-.3.1Z"/>
          <path class="cls-7" d="m67.72,117.36c-.13,0-.27-.05-.36-.16-.18-.2-.17-.51.03-.69,1.83-1.66,3.38-3.72,4.47-5.93.45-.91,1-2.25.63-3.41-.17-.55-.68-1.05-1.25-1.23-.28-.09-.7-.15-1.06.12-.23.17-.41.44-.6.72-.28.41-.59.88-1.13,1.13-.73.34-1.68.16-2.43-.48-.42-.36-.73-.8-1.04-1.22-.11-.15-.22-.3-.33-.45-1.36-1.76-3.58-2.86-5.8-2.88-.01,0-.03,0-.04,0-2.21,0-4.43,1.07-5.79,2.81-.17.21-.48.25-.69.08-.21-.17-.25-.48-.08-.69,1.56-1.98,4.09-3.2,6.61-3.18,2.52.01,5.04,1.26,6.57,3.26.12.16.24.32.35.48.28.39.54.76.87,1.04.37.32.94.55,1.38.34.29-.14.5-.44.73-.79.22-.32.47-.69.83-.96.55-.4,1.24-.5,1.95-.26.88.29,1.62,1.02,1.88,1.87.47,1.5-.16,3.08-.68,4.14-1.15,2.33-2.77,4.48-4.69,6.23-.09.09-.21.13-.33.13Z"/>
          <path class="cls-7" d="m13.11,104.39c-.09,0-.19-.03-.27-.08-2.81-1.89-4.63-5.17-4.74-8.56-.2-6.07,5.25-10.97,10.74-12.68,3.87-1.2,8.97-.12,10.81,3.77.04.09.08.18.12.27.24.53.47,1.03.87,1.17.15.05.33.06.53.07.23,0,.5.02.76.11.43.14.8.56.86,1.01.05.35-.09.67-.37.86-.22.15-.53.09-.68-.13-.14-.2-.1-.47.07-.63-.03-.07-.1-.16-.18-.18-.14-.05-.32-.05-.51-.06-.25-.01-.54-.02-.82-.13-.79-.28-1.14-1.06-1.43-1.69-.04-.09-.08-.17-.12-.25-1.59-3.37-6.24-4.31-9.63-3.25-5.13,1.6-10.23,6.13-10.05,11.71.1,3.08,1.75,6.06,4.3,7.78.22.15.28.46.13.68-.09.14-.25.22-.41.22Z"/>
          <path class="cls-3" d="m54.58,134.45c1.52.56,3.2-.1,4.67-.78,2.59-1.19,5.46-2.94,5.77-5.78-1.84-1.01-3.89-1.63-5.99-1.8.77-3.84.75-7.82-.04-11.65-.57-2.77-1.93-5.84-4.68-6.55-2.32-.6-4.69.76-6.51,2.32-4,3.41-6.95,8.03-8.34,13.1,1.09,1.14,2.19,2.29,3.55,3.07,2.91,1.69,6.49-1.38,8.49.59,2.04,1.99-.8,6.07,3.07,7.48Z"/>
          <g>
            <path class="cls-14" d="m38.74,42.71c.16,1.22.64,2.25,1.94,2.38.53.05,1.05-.11,1.57-.17,2.66-.3,3.24,3.9,5.94,3.37-.07.42.06.88.41,1.15.35.26.87.27,1.23.02.12-.08.23-.2.38-.22.26-.05.48.19.57.43,1.09,2.94,5,.58,6.57-.78,1.02-.89,1.37-2.56,1.72-3.83.66-2.41.93-4.94.78-7.43-.13-2.12.33-4.05-.04-6.18-1.1-6.23-5.47-11.95-11.45-14-.18-.06-.37-.12-.55-.18-4.54-1.33-10.54-.51-14.05,2.89-1.38,1.33-1.18,3.03-.85,4.78.33,1.76.81,3.69,1.69,5.27,1.71,3.05,3.82,4.85,4.1,8.63.07.89-.16,2.51.02,3.88Z"/>
            <path class="cls-10" d="m52.83,33.11c-1.58-.19-3.17.94-3.64,2.46-.82,2.63,1.29,4.29,3.79,3.54,1.23-.37,2.32-1.38,2.51-2.66.24-1.57-1.08-3.16-2.66-3.35Z"/>
            <path class="cls-7" d="m42.89,37.65c-.16,0-.32-.01-.47-.04-.27-.04-.45-.29-.41-.56.04-.27.3-.45.56-.41.73.12,1.53-.18,2.14-.79.61-.61.89-1.41.78-2.14-.04-.27.14-.52.4-.56.27-.04.52.14.56.4.17,1.04-.22,2.16-1.05,2.99-.7.71-1.62,1.1-2.51,1.1Z"/>
            <path class="cls-7" d="m49.74,46.53h-.22c-.27,0-.49-.22-.49-.49s.22-.49.49-.49h.22c.27,0,.49.22.49.49s-.22.49-.49.49Z"/>
          </g>
          <path class="cls-4" d="m34.99,24.27c.2,0,.41.03.61.07.63.14,1.2.48,1.73.85,1.07.75,2.02,1.68,3.07,2.46,2.51,1.86,6.56,2.54,9.63,2.52,1.79-.01,3.62-.28,5.32-.87,2.47-.86,3.09-3.33,5.38-.97,1.7,1.75,2.48,4.38,3.2,6.64,1.51,4.71,2.71,9.55,2.76,14.52.05,4.81-1.28,9.57.29,14.31,3.84,11.57,14.25,2.99,21.95,6.94,4.49,2.31,5.01,9.11,5.83,13.71,1.6,8.96-1.62,17.15-5.63,24.96-3.72,7.24-9.32,14-10.13,22.37-.64,6.61,1.95,13.12,5.13,18.95,3.19,5.83,7.05,11.34,9.34,17.58,2.29,6.24,2.81,13.57-.61,19.26,8.72-4.02,14.53-12.98,16.35-22.41,1.82-9.43.05-19.26-3.26-28.27-1.57-4.29-3.51-8.5-4.19-13.01-1.5-9.97,3.24-19.71,4.85-29.66,1.74-10.72-.46-21.94-5.74-31.39-2.65-4.74-6.8-8.1-9.65-12.55-2.62-4.08-5.36-8.76-7.17-13.27-2.6-6.47-2.56-13.55-4.91-20.08C75.54,6.88,65.64.13,55.82,0c-9.82-.12-19.15,5.86-24.58,14.61-1.81,2.91-3.25,6.18-3.65,9.7-.28,2.47-.02,5.05.91,7.36.28.69,1.31,4.02,2.1,4.06,3.06.13,1.04-9.64,3.14-11.1.36-.25.81-.36,1.25-.36Z"/>
          <path class="cls-14" d="m57.27,22.72c.05-.06.11-.12.17-.18.93-.87,2.13-1.64,3.44-.96,1.75.91,2.25,3.99,2.33,5.74.05,1.1-.14,2.23-.74,3.16-.19.3-.43.58-.75.73-.47.22-1.84.48-2.3.22-.35-.2-.55-.58-.73-.95-.69-1.4-1.61-2.75-1.84-4.32-.19-1.29-.38-2.51.42-3.43Z"/>
        </g>
      </g>
    </g>
  </g>
</svg>