<?xml version="1.0" encoding="UTF-8"?>
<svg xmlns="http://www.w3.org/2000/svg" viewBox="0 0 81.91 196.31">
  <defs>
    <style>
      .cls-1 {
        isolation: isolate;
      }

      .cls-2 {
        fill: #585b5c;
      }

      .cls-3 {
        fill: #f79463;
      }

      .cls-4 {
        fill: #f27283;
      }

      .cls-5 {
        mix-blend-mode: screen;
        opacity: .48;
      }

      .cls-6 {
        fill: #7681ab;
      }

      .cls-7 {
        fill: #212d50;
      }
    </style>
  </defs>
  <g class="cls-1">
    <g id="Layer_2" data-name="Layer 2">
      <g id="Layer_1-2" data-name="Layer 1">
        <g>
          <path class="cls-7" d="m81.58,39.63c-8.95.82-17.59.1-20.2-10.23-.97-3.85-.32-7.97-1.38-11.8-1.72-6.22-8.37-11.08-14.81-9.57-2.9.68-5.28,1.75-8.33,2.02-4.14.36-8.11.77-11.32,3.73-2.88,2.65-4.44,6.7-5.29,10.42-1.01,4.42-3.14,7.9-6.23,11.24-2.96,3.19-6.32,6.02-9.01,9.43-7.05,8.96-5.75,18.02-1.54,28.18,10.25,24.71,45.37,9.42,61.24-.74-5.02-2.76-9.28-6.88-12.2-11.81,5,2.86,10,5.73,15.01,8.59,2.81-3.18,5.63-6.36,8.44-9.53.9-1.01,1.85-2.19,1.72-3.54-.37-3.77-7.32-2.5-9-5.9,2.49,2.87,7.44,2.57,10.2-.05,2.71-2.57,3.61-6.91,2.73-10.45Z"/>
          <path class="cls-3" d="m36.33,48.24c.14-.43.29-.86.43-1.29,1.88-5.5,3.72-11.26,4.74-17,.3-1.69.5-3.57-.42-5.02-6.4-10-17.7,15.06-19.56,19.14-2.96,6.52-6.42,12.65-7.14,19.91-.12,1.24-.14,2.66.76,3.52.72.69,1.8.81,2.8.78,2.89-.07,6.88-2.99,9.25-1.84,3.39,1.65,7.22,2.13,10.72,3.48,2.27.88,5.7,2.59,6.15-1.19.31-2.59-2.8-4.42-4.44-5.94-2.59-2.41-4.6-4.31-4.57-8.18.01-2.18.6-4.3,1.28-6.38Z"/>
          <path class="cls-3" d="m52.41,34.69c-.03.16-.06.33-.09.49-.4,1.92-2.37.52-3.55,1.05-.49.22-.59.87-.57,1.4.01.36.07.78-.07,1.12-.17.44-.57.54-.81.91-.46.7-.05,1.44-1.1,1.67-.39.09-.83.12-1.12.4-.32.3-.36.8-.39,1.24-.18,2.44-2.57,1.27-4.02.93-1.27-.29-2.52-.87-3.61-1.57-.99-.63-1.5-2.01-1.96-3.05-.87-1.98-1.42-4.09-1.61-6.25-.16-1.82-.8-3.41-.75-5.28.14-5.46,3.14-10.9,7.98-13.42.15-.08.3-.15.45-.22,3.71-1.72,8.93-1.78,12.36.67,1.34.96,1.39,2.44,1.33,3.97-.09,2.51-.85,4.9-1.6,7.28-.91,2.86-.4,5.75-.88,8.64Z"/>
          <path class="cls-4" d="m39.97,28.84c1.32-.36,2.82.4,3.42,1.63,1.04,2.14-.56,3.83-2.78,3.51-1.1-.16-2.16-.89-2.49-1.95-.4-1.31.52-2.84,1.84-3.2Z"/>
          <path class="cls-7" d="m46.76,27.01c-.09-.14-.19-.28-.33-.36-.14-.08-.35-.08-.45.06-.08.11-.05.26-.01.39.39,1.35,1.61,2.42,3,2.63.3.05,1.03.04,1.03-.43,0-.34-.74-.4-.98-.5-.9-.36-1.7-.99-2.26-1.79Z"/>
          <path class="cls-7" d="m53.72,16.47c.04.61-.8,1.54-1.13,2.02-.48.7-1.02,1.36-1.6,1.98-1.16,1.24-2.5,2.31-3.99,3.12-1.58.87-3.3,1.43-5.06,1.68-1.53.22-3.13.23-4.65-.06-1.08-.21-2.22-1.35-3.32-1.27-1.12.08-2.73,1.66-3.6,2.31-2.52,1.86-4.85,3.99-6.92,6.34-1.16,1.31-2.45,2.81-4.2,2.91-1.64.09-3.12-1.17-3.78-2.67-.66-1.5-.67-3.2-.61-4.84.13-3.56-.17-6.75.54-10.3C17.18,8.65,24.77,1.63,33.14.27c8.37-1.36,17.1,2.56,22.85,9.33,1.92,2.26,3.56,4.86,4.35,7.82.6,2.24.67,4.66.03,6.9-.16.56-.37,1.1-.62,1.62-.2.43-.24.91-.48,1.32-.65,1.1-2.35,1.76-3.51,1.11-1.23-.69-2.63-1.35-3.65-2.34-.41-.39-.78-.89-.76-1.45.02-.65.53-1.12.74-1.7.21-.6.38-1.24.57-1.85.47-1.49.82-3.01,1.08-4.55Z"/>
          <path class="cls-3" d="m33.82,19.99c-.05-.05-.11-.09-.17-.13-.91-.63-2.03-1.13-3.06-.39-1.37,1-1.41,3.7-1.25,5.19.1.94.41,1.89,1.03,2.6.2.23.44.44.74.52.43.13,1.63.17,1.99-.11.28-.21.4-.57.5-.9.41-1.28,1.03-2.55,1.02-3.92,0-1.13,0-2.19-.8-2.87Z"/>
          <path class="cls-6" d="m66.99,151c.81,3.77,1.75,7.51,2.77,11.22,1.68,6.11,3.59,12.15,5.56,18.17.31.96,4.42,15.9,3.04,15.9H6.92c-1.14-6.29-1.46-12.77-1.13-19.14.63-12.23,2.21-24.72,6.48-36.26,2.01-5.44,5.83-9.92,7.84-15.1,2.02-5.18,1.37-11.07.15-16.36-1.06-4.58-2.04-9.32-3.75-13.68-4.2-10.74-5.56-22.67-2.16-33.82.85-2.78,2.01-5.57,4.07-7.62,4.98-4.95,11.24-2.95,16.06,1.06,2.33,1.94,4.03,4.28,6,6.53,4.83,5.53,12,8.68,16.93,14.32,2.56,2.92,4.28,6.39,5.18,10.16,1.01,4.21-.3,7.68-.86,11.9-2.27,17.23,1.63,35.91,5.25,52.72Z"/>
          <path class="cls-3" d="m80.48,82.36c.29-5.77-3.86-9.66-9.69-9.76-4.22-.08-7.68,3.98-8.77,7.83-.69,2.45-.87,5.88,1.43,7.45,1.16.79,2.43.57,3.68.86,2.99.69,6.06,1.44,9.13.74,2.56-.59,3.78-3.58,4.12-6.11.05-.34.08-.67.09-1Z"/>
          <path class="cls-4" d="m79.87,86.84c.95-2.33,1.72-4.72,1.02-7.26-1.02-3.73-4.83-6.8-8.63-7.24-.25,2.95-.69,7.92-3.45,9.7-2.74,1.77-6.72.78-9.73,2.23-6.32,3.03-11.46,8.1-16.44,12.92-4.27,4.14-10.95,8.25-12.42,14.33-.58,2.38-.18,5.1,1.48,6.9,2.12,2.3,5.68,2.59,8.75,2,4.47-.85,9.61-1.64,13.4-4.13,4.27-2.8,9.61-4.03,12.88-8.24,1.85-2.37,4.45-4,6.02-6.55,2.28-3.7,4.36-7.56,5.88-11.64.38-1.01.83-2.01,1.24-3.03Z"/>
          <path class="cls-3" d="m66.75,109.13c-9.61,7.54-23.06,16.99-33.36,5.26-2.94-3.35-4.64-7.54-7.33-11.03-2.16-2.8-5.52-7.79-1.36-10.65,3.22-2.21,6.9-6.11,11.29-5.09,1.94.45,3.1,2.39,4.04,4.15,1.81,3.4,3.62,6.79,5.43,10.19.47.88.96,1.79,1.75,2.4,1.57,1.23,6.59.51,8.57.28,6.23-.71,11.35-3.21,17.3-4.76.02,1.95-.9,3.82-2.17,5.3-1.2,1.4-2.6,2.73-4.16,3.95Z"/>
          <path class="cls-3" d="m65.68,91c-1.32.4-2.65.9-3.76-.19.81-1.04,1.96-1.76,3.08-2.44.95-.58,1.65-1.42,2.64-1.93,1-.52,2.13-.78,3.25-.87,1.44-.11,2.83.1,4.25.23,1.11.1,1.96-.49,3.1.06,2.15,1.04,2.26,3.76,1.36,5.69-.43.92-.99,1.77-1.53,2.62-.47.73-.58,1.45-.97,2.19-.77,1.44-1.9,2.79-2.91,4.06-1.01,1.26-1.81,2.59-3.05,3.68-.36.32-3.2,2.77-3.36,1.54-.02-.13.03-.25.02-.38,0-.13-.08-.27-.21-.28-.2,0-.25.29-.42.38-.15.07-.33-.03-.4-.18-.07-.15-.05-.32-.03-.49.07-.52.16-1.04.27-1.55-.12-.08-.23.11-.34.2-.16.13-.42.02-.53-.15-.1-.18-.1-.4-.08-.61.02-.38-.12-.69-.14-1.06-.03-.52.12-1.11.2-1.61.18-1.07.44-2.13.75-3.16.36-1.19.78-2.35,1.24-3.51.34-.85,1.31-2.12-.16-2.48-.72-.18-1.5.02-2.27.26Z"/>
          <path class="cls-6" d="m13.1,81.16c.4,3.6,1.47,7.07,3.52,10.24,2.18,3.37,4.14,6.87,6.47,10.14,1.29,1.81,2.83,3.45,4.27,5.14.94,1.11,1.57,2.64,2.61,3.61,2.02,1.89,6.79-.7,8.82-1.73,2.13-1.08,6.86-3.89,6.99-6.54.07-1.43-.54-2.79-1.15-4.08-2.76-5.93-5.36-11.99-8.42-17.76-1.58-2.99-3.19-5.97-4.85-8.92-.53-.95-3.96-8.42-4.73-8.42-1.9-3.45-5.76-4.51-8.99-1.71-2.26,1.96-3.23,4.99-3.8,7.93-.79,4.02-1.16,8.14-.73,12.1Z"/>
          <g class="cls-5">
            <path class="cls-2" d="m42.69,93.83c-.09-1.38-.7-2.51-1.27-3.76-.57-1.24-1.13-2.48-1.67-3.73-1.06-2.43-2.08-4.89-2.97-7.39-.64-1.79-1.22-3.61-1.71-5.45-.31-.77-.6-1.74-1.18-2.35,0,0-.02,0-.03-.01-.04-.02-.08-.06-.11-.09-.25.65-.39,1.31-.42,2,.54,2.09,1.2,4.15,1.94,6.19.95,2.62,2.03,5.2,3.17,7.74.59,1.3,1.2,2.6,1.81,3.89.56,1.19,1.04,2.28,2,3.18.19.18.45.04.44-.21Z"/>
          </g>
        </g>
      </g>
    </g>
  </g>
</svg>