<?xml version="1.0" encoding="UTF-8"?>
<svg id="Layer_2" data-name="Layer 2" xmlns="http://www.w3.org/2000/svg" viewBox="0 0 80.52 194.65">
  <defs>
    <style>
      .cls-1 {
        fill: #031923;
      }

      .cls-2 {
        fill: #9c9c59;
      }

      .cls-3 {
        fill: #ee8e65;
      }

      .cls-4 {
        fill: #f0ae79;
      }

      .cls-5 {
        fill: #f48075;
      }

      .cls-6 {
        fill: #2a4956;
      }

      .cls-7 {
        fill: #d07d47;
      }

      .cls-8 {
        fill: #ef6b5e;
      }

      .cls-9 {
        fill: #23404c;
      }

      .cls-10 {
        fill: #d25c4f;
      }

      .cls-11 {
        fill: #e18a66;
      }

      .cls-12 {
        fill: #777837;
      }

      .cls-13 {
        fill: #eecfb3;
      }

      .cls-14 {
        fill: #888742;
      }

      .cls-15 {
        fill: #d97b56;
      }
    </style>
  </defs>
  <g id="Layer_1-2" data-name="Layer 1">
    <g>
      <path class="cls-9" d="m39.88,62.56c10.79-3.58,14.15-9.8,17.09-18.32,2.84-8.24,1.62-18.98-5.04-24.97,0,0-6.56-7.83-19.41-7.83s-20.92,12.48-20.43,23.53c.53,12.17,3.44,17.31,13.87,27.59,7.14,7.04,5.87,2.67,13.92,0Z"/>
      <path class="cls-4" d="m21.77,52.83s3.67,11.28,0,19.14c-3.67,7.87,21.77,24.42,26.49,24.14,4.72-.28-4.98-20.21-4.98-20.21,0,0-2.35.29-3.06-2.93-.37-1.67.34-4.76.7-8.35,1.05-10.49-19.14-11.8-19.14-11.8Z"/>
      <path class="cls-3" d="m40.74,66.01c.06-.44.12-.89.17-1.38,1.05-10.49-19.14-11.8-19.14-11.8,0,0,1.55,4.78,1.63,10.28,2.95,4.17,4.32,5.59,7.96,6.09,4.03.56,9.34-2.89,9.38-3.2Z"/>
      <path class="cls-4" d="m33.05,67.52c4.02,1.01,13.77-5.19,16.16-9.93,1.91-3.79,1.41-6.32,2.72-8.69,1.31-2.36,2.62-10.49-4.2-18.88,0,0-5.24,3.93-10.49,5.24-5.24,1.31-11.47,2.1-15.83,6.82,0,0-2.43,10.25,1.59,16.27,4.02,6.02,5.85,8.12,10.05,9.17Z"/>
      <path class="cls-3" d="m21.52,42.57c4.36-4.72,9.76-4.99,15-6.3,5.24-1.31,11.22-5.9,11.22-5.9,3.98,6.49,5.33,11.71,5.1,15.44.52-3.71-.14-9.67-5.1-15.78,0,0-5.24,3.93-10.49,5.24-5.24,1.31-11.47,2.1-15.83,6.82,0,0-.41,1.73-.61,4.18.21-1.82.72-3.69.72-3.69Z"/>
      <path class="cls-8" d="m42.35,74.17s26.53,30.59,26.28,32.86c-.24,2.27-11.3,2.25-11.3,2.25l-14.99-35.11Z"/>
      <path class="cls-5" d="m60.22,170.29c0-3.15-1.9-18.36-3.87-27.08-1.13-5.03-5.25-7.87.22-22.56,1.03-2.77-4.1-7.08-.29-11.34,3.08-3.44,3.45-7.28,1.84-11.51-.12-.32.85,0,.49-1.05-.45-1.3-1.47-1.21-1.73-1.68-.24-.44.81-.37-.04-1.68-.61-.95-1.25-.43-1.53-.83-.7-.99-1.49-1.97-2.34-2.93-1.66-1.85-4.3-6.3-5.21-7.79-1.77-2.88-3.93-7.73-7.56-8.87,1.07,3.8,3.21,7.65,4.11,11.51,1.2,5.12,1.85,8.69,0,9.26-3.24,1-22.01-17.81-22.55-22.11-1.05.35-1.79,1.99-4.72,4.02-4.13,2.85-10.55,5.51-13.48,10.45C-.46,92.91-.09,118.49.11,120.46c.2,1.97,6.41,2.63,6.41,2.63l8.06,8.65s-3.76,4.91-5.8,11.52c-.13.43-2.77,2.94-1.75,4.61.76,1.24,1.49.07,1.33.7-.12.51-2.36,2.24-1.77,3.07.7,1.01,1.16.29,1.1,1.34-.39,7.87,3.54,18.49,6.69,24.98,3.15,6.49,3.34,16.52,3.34,16.52.22.06.45.11.67.16,10.18-.16,22.83,0,40.57-5.75-1.18-4.97,1.24-16.28,1.24-18.61Z"/>
      <path class="cls-3" d="m56.29,109.31c2.99-3.35,3.31-7.4,1.84-11.51h0s-9.05,2.08-7.46,9.28c1.59,7.2-11.21,11.26-11.21,11.26l16.73.78c-.97-2.77-3.1-6.25.09-9.82Z"/>
      <path class="cls-8" d="m19.28,120.4s3.41-17.35,2.49-19.97c-.92-2.62.86-1.44,1.22,0,.36,1.44,1.29,13.37,7.84,15.08,6.55,1.7,13.5,0,13.5,0l4.9,19.42-30.31.61-3.27-15.09,3.65-.05Z"/>
      <path class="cls-10" d="m19.28,120.4c.66-.56-2.02-1.4-2.02-1.4l-14.26-.52s-2.27.93-2.91,2.32c.65,1.11,2.49,1.2,2.49,1.2l.59.81c2.14.45,5.1.84,8.03.46,5.57-.73,7.4-2.3,8.06-2.86Z"/>
      <path class="cls-8" d="m56.89,95.08c-.8.47-1.57.99-2.31,1.54-.74.55-1.45,1.14-2.11,1.78-.66.64-1.28,1.32-1.79,2.08-.12.19-.25.38-.36.58-.12.19-.22.4-.32.6-.19.41-.36.83-.46,1.26-.07.21-.09.44-.13.66-.02.11-.02.22-.03.33,0,.11-.02.22-.01.33v.33c0,.11.03.22.04.33.02.22.06.46.08.69.13.93.14,1.88.04,2.82-.1.94-.32,1.86-.7,2.72l-.15.32c-.05.1-.11.21-.17.31-.06.1-.11.21-.18.3-.06.1-.12.2-.19.3-.27.38-.57.75-.92,1.05.64-.67,1.09-1.5,1.41-2.36.32-.86.5-1.76.57-2.67.06-.91.04-1.83-.11-2.73-.03-.23-.06-.45-.09-.69-.01-.12-.03-.24-.04-.36v-.36c-.02-.12,0-.24,0-.36.01-.12.01-.24.03-.36.04-.24.07-.48.14-.71.11-.47.3-.91.5-1.34.11-.21.22-.42.34-.62.06-.1.12-.21.19-.3l.2-.29c.06-.1.14-.19.21-.28.07-.09.14-.19.22-.28.15-.18.3-.36.46-.53.31-.35.65-.68,1-.99.35-.31.71-.61,1.08-.9.37-.28.75-.55,1.14-.81.78-.51,1.59-.98,2.43-1.37Z"/>
      <path class="cls-8" d="m55.94,92.38c-.8.47-1.57.99-2.31,1.54-.74.55-1.45,1.14-2.11,1.78-.66.64-1.28,1.32-1.79,2.08-.12.19-.25.38-.36.58-.12.19-.22.4-.32.6-.19.41-.36.83-.46,1.26-.07.21-.09.44-.13.66-.02.11-.02.22-.03.33,0,.11-.02.22-.01.33v.33c0,.11.03.22.04.33.02.22.06.46.08.69.13.93.14,1.88.04,2.82-.1.94-.32,1.86-.7,2.72l-.15.32c-.05.1-.11.21-.17.31-.06.1-.11.21-.18.3-.06.1-.12.2-.19.3-.27.38-.57.75-.92,1.05.64-.67,1.09-1.5,1.41-2.36.32-.86.5-1.76.57-2.67.06-.91.04-1.83-.11-2.73-.03-.23-.06-.45-.09-.69-.01-.12-.03-.24-.04-.36v-.36c-.02-.12,0-.24,0-.36.01-.12.01-.24.03-.36.04-.24.07-.48.14-.71.11-.47.3-.91.5-1.34.11-.21.21-.42.34-.62.06-.1.12-.21.19-.3l.2-.29c.06-.1.14-.19.21-.28.07-.09.14-.19.22-.28.15-.18.3-.36.46-.53.31-.35.65-.68,1-.99.35-.31.71-.61,1.08-.9.37-.28.75-.55,1.14-.81.78-.51,1.59-.98,2.43-1.37Z"/>
      <path class="cls-15" d="m30.83,56.83s.31.51,3.43.2c.75-.07.89.55,1.53.75.78.25,1.27-.33,1.7.12,1.07,1.09,2.74,2.19,2.74,2.19,0,0-3.63.28-5.31-.24-2.9-.9-4.08-3.02-4.08-3.02Z"/>
      <path class="cls-11" d="m30.83,56.83c.25.35,1.41,1.81,4.08,2.68,3.03.98,5.29.59,5.31.59,0,0,0,0,0,0-.02.02-2.56,2.46-3.93,2.46s-3.52-.72-4.31-1.8c-.68-.94-1.19-3.05-1.14-3.92Z"/>
      <path class="cls-7" d="m34.26,51.85c-.04.32-.06.66-.02.97.02.15.06.31.15.41.08.09.22.12.37.14.15.01.31,0,.47,0,.16,0,.33,0,.49,0,.17,0,.34.02.5.06.17.03.33.09.48.18v.03c-.34-.03-.66,0-.98.02-.32.03-.66.03-1.01-.03-.09-.02-.18-.04-.26-.08-.09-.04-.18-.1-.24-.19-.11-.17-.13-.35-.14-.52,0-.17.01-.34.04-.51.03-.17.06-.33.11-.49h.03Z"/>
      <path class="cls-13" d="m41.11,46.94c-.17.73-.34,1.46-.47,2.19-.07.37-.13.73-.18,1.1-.05.37-.08.73-.05,1.09.03.36.12.71.22,1.07.05.18.09.37.12.56.03.2.04.41-.02.63-.05.22-.19.43-.37.56-.17.12-.35.22-.54.28-.38.13-.79.13-1.16,0v-.04c.38,0,.74-.07,1.05-.22.15-.08.3-.18.42-.29.11-.11.18-.23.2-.38.05-.3-.04-.66-.1-1.02-.07-.37-.14-.75-.15-1.14-.01-.39.05-.77.11-1.14.07-.37.15-.74.24-1.1.19-.73.39-1.45.63-2.16h.04Z"/>
      <path class="cls-8" d="m44.12,142.81c2.06-.32,7.99-2.47,11.61-4.02-.7-1.41-1.24-2.69-1.05-4.91-1.96,1.28-2.33,1.58-3.12,1.58-1.18,0-.57-1.55,0-2.34.57-.79,2.92-3.86,1.45-4.4-1.47-.54-2.02,2.86-5.12,3.93-3.1,1.07-5.8,5.13-5.8,5.13-5.23-1.38-25.5-8.47-25.5-8.47-.36-3.11-.3-8.34-.3-8.34-5.38-1.69-14.26-.52-14.26-.52,0,0-.05.6-.07,1.6,1.9.75,4.57,1.03,4.57,1.03l8.06,8.65s-3.16,4.12-5.26,9.91c9.97,3.44,32.74,1.49,34.79,1.16Z"/>
      <path class="cls-6" d="m56.35,143.21c-.29-1.27-.32-2.43-.22-3.68.12-1.66-1.12-3.48-.89-5.92-2.34.94-13.75,5.95-15.78,8.4-9.75,11.84-31.76,10.97-31.76,10.97-.39,7.87,3.54,18.49,6.69,24.98,3.15,6.49,3.34,16.52,3.34,16.52.22.06.45.11.67.16,9.28-.15,24.51-1.2,40.57-5.75,1.55-.44,1.24-16.28,1.24-18.61,0-3.15-.35-19.62-3.87-27.08Z"/>
      <path class="cls-9" d="m39.56,145.37c13.33-1.58,12.74-3.21,16.57-5.84-.26-.95-1-4.73-.89-5.92-2.34.94-13.75,5.95-15.78,8.4-9.75,11.84-31.76,10.97-31.76,10.97-.04.7.11,3.41.14,4.15,6.32-.12,22.88-2.12,31.72-11.76Z"/>
      <path class="cls-3" d="m53.91,133.14c-2.34.94-12.42,6.41-14.44,8.87-.45.54-.92,1.05-1.41,1.54-.49.49,13.35.71,18.11-4.43-.43-2.9-1.32-4.18-2.26-5.98Z"/>
      <path class="cls-1" d="m43.24,47.97s2.36,2.8,6.2,1.89c0,0,.48,1.82,1.53,1.98,0,0-5.66.64-7.72-3.87Z"/>
      <path class="cls-1" d="m35.16,45.57s-4.82.18-6.7-3c0,0-1.6,1.03-2.35.38,0,0,3.18,4.2,9.05,2.62Z"/>
      <path class="cls-9" d="m43.85,43.04c-.23.68.47.97,1.82,1,1.6.03,4.78-.23,5.58.68.65.74,1.05,1.34,1.3,1.79.08.15.3.07.28-.09-.17-1.2-.63-3.14-1.85-3.6-1.81-.69-6.73-.95-7.12.23Z"/>
      <path class="cls-9" d="m37.97,41.56c-.2.69-.94.53-2.06-.22-1.33-.89-4.94-3.27-6.12-2.99-.95.23-1.63.5-2.09.73-.15.07-.29-.11-.18-.24.83-.89,2.31-2.22,3.58-1.9,1.88.47,7.22,3.42,6.86,4.61Z"/>
      <path class="cls-9" d="m43.5,8.77c1.25,6.07-3.18,12.11-9.89,13.49-6.71,1.38-13.17-2.41-14.42-8.48-.52-3.61,3.7-7.29,3.7-7.29,0,0-4.97,2.44-5.11,8.41C16.08,6.57,24.52,1.22,29.08.28c6.71-1.38,13.17,2.41,14.42,8.48Z"/>
      <path class="cls-6" d="m21.41,42.08c2.35-3.94,10.59-5.51,15.83-6.82,5.24-1.31,10.49-5.24,10.49-5.24.36-1.4.55-6.06-3.12-6.57-6.58-.92-19.83,4.08-25.78,12.33-9.26,12.83,2.93,27.26,2.93,27.26-4.74-9.14-2.72-17.03-.36-20.97Z"/>
      <path class="cls-11" d="m53.78,102.43c-.16.11-.34.19-.53.22-.19.04-.39.04-.58.03-.19,0-.38-.02-.55,0-.18.01-.34.06-.48.15-.14.08-.25.19-.31.33-.06.13-.08.3-.07.47.03.35.16.7.31,1.05l-.03.02c-.14-.14-.25-.3-.35-.47-.1-.17-.17-.36-.22-.56-.04-.2-.05-.43.04-.64.05-.11.11-.2.19-.28.08-.08.18-.14.27-.19.2-.09.42-.12.62-.11.2,0,.39.04.58.07.19.03.37.05.55.04.18,0,.36-.05.53-.14l.02.03Z"/>
      <path class="cls-4" d="m58.13,98.97c-1.21,1.35-3.81,1.45-5.8,4.16-1.99,2.72.23,8.03.23,8.03l12.99,3.74s6.66-.77,8.87-5.61c3.14-6.88-.54-12.13-5.61-13.94-5.07-1.81-9.05,1.81-10.68,3.62Z"/>
      <path class="cls-3" d="m74.43,109.29c.19-.41,1.02-4.02,1.16-4.41-3.47,8.03-15.72,6.26-15.72,6.26l2.45,2.83,3.24.93s6.66-.77,8.87-5.61Z"/>
      <path class="cls-8" d="m47.22,113.4s-.91-3.08,0-4.71c.91-1.63,3.12-4.89,2.1-5.07-1.01-.18-2.09,2.22-3,1.75-.91-.48-.43-4.46-3.48-3.74-3.05.72-2.14,4.96-1.32,6.37.61,1.05.31,3.53.12,4.73,0,0-1.37,4.5-1.44,7.42-.07,2.91.29,5.16,2.64,5.61,2.67.51,4.62-1.27,4.62-5.7,0-3.18-.2-5.56-.32-6.66h.09Z"/>
      <path class="cls-4" d="m42.11,112.91h5.7s-.91-3.08,0-4.71c.91-1.63,3.12-4.89,2.1-5.07-1.01-.18-2.09,2.22-3,1.75-.91-.48-.43-4.46-3.48-3.74-3.05.72-2.14,4.96-1.32,6.37.81,1.41,0,5.4,0,5.4Z"/>
      <path class="cls-12" d="m35.83,112.91s-11.66,2.95-14.79,11.08c-3.13,8.13,6.18,5.22,6.18,5.22,0,0,8.04-7.22,8.61-10.67.57-3.45,0-5.62,0-5.62Z"/>
      <path class="cls-14" d="m67.19,114.9c1.24,1.51-2.09,13.23-8.2,18.02-6.11,4.8-29.68,10.57-30.75,3.6-1.54-10.07-1.02-23.46,7.59-23.62,5.13-.1,4.96,11.56,4.96,11.56,0,0,4.4-10,11.78-13.31,7.38-3.32,12.99,1.75,14.62,3.74Z"/>
      <path class="cls-12" d="m21.04,123.99c-.49-2.61-7.68-2.55-5.43,2.5,2.25,5.05,5.04,6.89,7.76,5.44,2.72-1.45,3.86-2.72,3.86-2.72,0,0-5.42-1.2-6.18-5.22Z"/>
      <path class="cls-2" d="m43.43,125.27c2.67.51,4.62-1.27,4.62-5.7,0-4.44-.39-7.33-.39-7.33,0,0-3.99.91-5.42,0,0,0-1.37,4.5-1.44,7.42-.07,2.91.29,5.16,2.64,5.61Z"/>
      <path class="cls-2" d="m59.51,114.35c-1.39-3.14-4.65-3.88-9.25-.68-4.61,3.2-7.32,5.7-7.32,5.7,0,0,3.83,3.49,3.91,5.63,0,0,5.67-1.82,8.74-3.86,3.08-2.03,5.15-4.02,3.92-6.79Z"/>
      <path class="cls-14" d="m53.49,115.82c-.74-.4-3.13-1.31-5.23-1.79-.74.66-2,.36-2.63,1.09,1.61.5,4.48,1.5,3.9,2.75-.35.76-2.89,1.5-4.96,1.74-.3.03-.67.06-1.09.08-.66.99-2.85,1.38-3.27,2.14,2.55-.44,6.7-.51,6.19.13-.35.44-2.47.66-4.81.89-.53.99-.8,1.61-.8,1.61,0,0,0-.6-.04-1.53-3.13.31-6.31.71-5.96,1.73.23.67,1.69.86,3.54.82-.91.2-1.47.48-1.34.9.8,2.57,10.23-.19,10.03.39-.5,1.5-8.57.52-8.64,1.38-.08.86,3.25,1.46,6.31,1.47,5.56,0,11.3-3.35,13.99-4.03,1.57-.4,3.9-.59,6.33-.96,2.06-4.45,2.9-8.85,2.18-9.74-.14-.17-.31-.36-.51-.57-2.75,1.32-3.95,2.26-6.47,3.55-3.23,1.64-5.38-1.32-6.72-2.05Zm-6.46,8.84c-.39.15-1.53.22-2.91.3,2.03-.27,3.44-.5,2.91-.3Z"/>
      <path class="cls-4" d="m3.01,118.48s8.88-1.17,14.26.52c0,0-.05,5.23.3,8.34,0,0,20.27,7.09,25.5,8.47,0,0,2.7-4.06,5.8-5.13,3.1-1.07,3.65-4.46,5.12-3.93,1.47.54-.89,3.61-1.45,4.4-.57.79-1.18,2.34,0,2.34s6.22-2.32,7.47-4.26c1.26-1.94,3.42-2.87,3.79-.95.37,1.92-2.15,6.18-4.86,7.53-2.71,1.36-11.53,5.62-13.99,6-2.47.39-34.99.89-38.98-6.27-3.99-7.17-2.96-17.07-2.96-17.07Z"/>
      <path class="cls-3" d="m3.01,119.56s8.87-1.17,14.25.52c0-.67,0-1.08,0-1.08-5.38-1.69-14.26-.52-14.26-.52,0,0-.14,1.37-.11,3.47.02-1.47.11-2.39.11-2.39Z"/>
      <path class="cls-4" d="m74.83,108.2s5.17,1.34,5.66,5.49c.49,4.15-6.56,7.52-10.39,8.95-3.83,1.42-8.74,1.49-11.43,2.17-2.69.69-8.43,4.04-13.99,4.03-3.06,0-6.39-.61-6.31-1.47.08-.86,8.14.12,8.64-1.38.19-.58-9.24,2.18-10.03-.39-.49-1.58,8.75-1.23,10.03-1.72,1.46-.56-11.5,2.12-12.23,0-.66-1.89,10.75-1.62,11.61-2.7.99-1.25-9.56,2.26-9.41,0,.16-2.35,5.5-2.12,7.58-2.35,2.07-.24,4.61-.97,4.96-1.74.93-2.03-5.6-.77-4.72-3.64.48-1.56,7.33.86,8.68,1.59,1.34.73,3.49,3.69,6.72,2.05,3.39-1.73,4.39-2.83,9.98-5.07,1.74-.7,3.43-2.08,4.64-3.81Z"/>
      <path class="cls-8" d="m8.37,148.55c1.79-.12,3.58-.27,5.36-.47,1.78-.2,3.56-.4,5.32-.74.88-.17,1.75-.37,2.61-.61.86-.24,1.71-.52,2.55-.84.84-.32,1.65-.7,2.42-1.15.77-.45,1.5-.98,2.14-1.61l.03.03c-.62.66-1.34,1.21-2.1,1.69-.77.48-1.57.89-2.4,1.24-.83.35-1.69.65-2.55.91-.87.26-1.74.48-2.62.67-.88.19-1.77.36-2.66.5-.89.14-1.79.25-2.69.33-.9.07-1.8.12-2.7.14-.9.02-1.8,0-2.7-.05v-.04Z"/>
    </g>
  </g>
</svg>