<?xml version="1.0" encoding="utf-8"?>
<!-- Generator: Adobe Illustrator 27.2.0, SVG Export Plug-In . SVG Version: 6.00 Build 0)  -->
<svg version="1.1" id="Layer_1" xmlns="http://www.w3.org/2000/svg" xmlns:xlink="http://www.w3.org/1999/xlink" x="0px" y="0px"
	 viewBox="0 0 278.7 132.6" style="enable-background:new 0 0 278.7 132.6;" xml:space="preserve">
<style type="text/css">
	.st0{fill:#514099;}
	.st1{fill:#646464;}
	.st2{opacity:0.3;}
	.st3{fill:#FFFFFF;fill-opacity:0;}
	.st4{fill:#F8F8F7;fill-opacity:0;}
	.st5{fill:#F3F2F2;fill-opacity:0;}
	.st6{opacity:1.000000e-02;fill:#EEEDED;enable-background:new    ;}
	.st7{opacity:2.000000e-02;fill:#EAE9E9;enable-background:new    ;}
	.st8{opacity:2.000000e-02;fill:#E6E5E5;enable-background:new    ;}
	.st9{opacity:3.000000e-02;fill:#E3E1E1;enable-background:new    ;}
	.st10{opacity:3.000000e-02;fill:#DFDEDE;enable-background:new    ;}
	.st11{opacity:4.000000e-02;fill:#DCDADA;enable-background:new    ;}
	.st12{opacity:4.000000e-02;fill:#D9D7D7;enable-background:new    ;}
	.st13{opacity:5.000000e-02;fill:#D5D3D3;enable-background:new    ;}
	.st14{opacity:5.000000e-02;fill:#D2D0D0;enable-background:new    ;}
	.st15{opacity:6.000000e-02;fill:#CFCDCD;enable-background:new    ;}
	.st16{opacity:6.000000e-02;fill:#CCCAC9;enable-background:new    ;}
	.st17{opacity:7.000000e-02;fill:#C8C6C6;enable-background:new    ;}
	.st18{opacity:7.000000e-02;fill:#C5C3C3;enable-background:new    ;}
	.st19{opacity:8.000000e-02;fill:#C2C0C0;enable-background:new    ;}
	.st20{opacity:8.000000e-02;fill:#BFBDBD;enable-background:new    ;}
	.st21{opacity:9.000000e-02;fill:#BCBABA;enable-background:new    ;}
	.st22{opacity:9.000000e-02;fill:#B9B7B6;enable-background:new    ;}
	.st23{opacity:0.1;fill:#B6B4B3;enable-background:new    ;}
	.st24{opacity:0.1;fill:#B3B1B0;enable-background:new    ;}
	.st25{opacity:0.11;fill:#B0AEAD;enable-background:new    ;}
	.st26{opacity:0.11;fill:#ADABAB;enable-background:new    ;}
	.st27{opacity:0.12;fill:#ABA8A8;enable-background:new    ;}
	.st28{opacity:0.12;fill:#A8A5A5;enable-background:new    ;}
	.st29{opacity:0.13;fill:#A5A2A2;enable-background:new    ;}
	.st30{opacity:0.13;fill:#A29F9F;enable-background:new    ;}
	.st31{opacity:0.14;fill:#A09D9C;enable-background:new    ;}
	.st32{opacity:0.14;fill:#9D9A9A;enable-background:new    ;}
	.st33{opacity:0.15;fill:#9A9797;enable-background:new    ;}
	.st34{opacity:0.15;fill:#979494;enable-background:new    ;}
	.st35{opacity:0.16;fill:#959292;enable-background:new    ;}
	.st36{opacity:0.16;fill:#928F8F;enable-background:new    ;}
	.st37{opacity:0.17;fill:#8F8C8C;enable-background:new    ;}
	.st38{opacity:0.17;fill:#8D8A8A;enable-background:new    ;}
	.st39{opacity:0.18;fill:#8A8787;enable-background:new    ;}
	.st40{opacity:0.18;fill:#888585;enable-background:new    ;}
	.st41{opacity:0.19;fill:#858282;enable-background:new    ;}
	.st42{opacity:0.19;fill:#83807F;enable-background:new    ;}
	.st43{opacity:0.2;fill:#807D7D;enable-background:new    ;}
	.st44{opacity:0.2;fill:#7E7B7A;enable-background:new    ;}
	.st45{opacity:0.21;fill:#7B7878;enable-background:new    ;}
	.st46{opacity:0.21;fill:#797676;enable-background:new    ;}
	.st47{opacity:0.22;fill:#777373;enable-background:new    ;}
	.st48{opacity:0.22;fill:#747171;enable-background:new    ;}
	.st49{opacity:0.23;fill:#726F6F;enable-background:new    ;}
	.st50{opacity:0.23;fill:#706D6C;enable-background:new    ;}
	.st51{opacity:0.24;fill:#6D6A6A;enable-background:new    ;}
	.st52{opacity:0.24;fill:#6B6868;enable-background:new    ;}
	.st53{opacity:0.25;fill:#696666;enable-background:new    ;}
	.st54{opacity:0.25;fill:#676463;enable-background:new    ;}
	.st55{opacity:0.26;fill:#656261;enable-background:new    ;}
	.st56{opacity:0.26;fill:#62605F;enable-background:new    ;}
	.st57{opacity:0.27;fill:#605D5D;enable-background:new    ;}
	.st58{opacity:0.27;fill:#5E5B5B;enable-background:new    ;}
	.st59{opacity:0.28;fill:#5C5959;enable-background:new    ;}
	.st60{opacity:0.28;fill:#5A5757;enable-background:new    ;}
	.st61{opacity:0.29;fill:#585555;enable-background:new    ;}
	.st62{opacity:0.29;fill:#565353;enable-background:new    ;}
	.st63{opacity:0.3;fill:#545151;enable-background:new    ;}
	.st64{opacity:0.3;fill:#52504F;enable-background:new    ;}
	.st65{opacity:0.31;fill:#504E4D;enable-background:new    ;}
	.st66{opacity:0.31;fill:#4E4C4B;enable-background:new    ;}
	.st67{opacity:0.32;fill:#4D4A49;enable-background:new    ;}
	.st68{opacity:0.32;fill:#4B4848;enable-background:new    ;}
	.st69{opacity:0.33;fill:#494646;enable-background:new    ;}
	.st70{opacity:0.33;fill:#474544;enable-background:new    ;}
	.st71{opacity:0.34;fill:#454342;enable-background:new    ;}
	.st72{opacity:0.34;fill:#434140;enable-background:new    ;}
	.st73{opacity:0.35;fill:#413F3F;enable-background:new    ;}
	.st74{opacity:0.35;fill:#403E3D;enable-background:new    ;}
	.st75{opacity:0.36;fill:#3E3C3B;enable-background:new    ;}
	.st76{opacity:0.36;fill:#3C3A39;enable-background:new    ;}
	.st77{opacity:0.37;fill:#3A3838;enable-background:new    ;}
	.st78{opacity:0.37;fill:#383736;enable-background:new    ;}
	.st79{opacity:0.38;fill:#373534;enable-background:new    ;}
	.st80{opacity:0.38;fill:#353333;enable-background:new    ;}
	.st81{opacity:0.39;fill:#333131;enable-background:new    ;}
	.st82{opacity:0.39;fill:#31302F;enable-background:new    ;}
	.st83{opacity:0.4;fill:#302E2E;enable-background:new    ;}
	.st84{opacity:0.4;fill:#2E2C2C;enable-background:new    ;}
	.st85{opacity:0.41;fill:#2C2B2A;enable-background:new    ;}
	.st86{opacity:0.41;fill:#2A2929;enable-background:new    ;}
	.st87{opacity:0.42;fill:#282727;enable-background:new    ;}
	.st88{opacity:0.42;fill:#262525;enable-background:new    ;}
	.st89{opacity:0.43;fill:#242423;enable-background:new    ;}
	.st90{opacity:0.43;fill:#232222;enable-background:new    ;}
	.st91{opacity:0.44;fill:#212020;enable-background:new    ;}
	.st92{opacity:0.44;fill:#1F1E1E;enable-background:new    ;}
	.st93{opacity:0.45;fill:#1D1C1C;enable-background:new    ;}
	.st94{opacity:0.45;fill:#1B1A1A;enable-background:new    ;}
	.st95{opacity:0.46;fill:#191818;enable-background:new    ;}
	.st96{opacity:0.46;fill:#161616;enable-background:new    ;}
	.st97{opacity:0.47;fill:#141414;enable-background:new    ;}
	.st98{opacity:0.47;fill:#121212;enable-background:new    ;}
	.st99{opacity:0.48;fill:#0F0F0F;enable-background:new    ;}
	.st100{opacity:0.48;fill:#0D0D0D;enable-background:new    ;}
	.st101{opacity:0.49;fill:#0A0A0A;enable-background:new    ;}
	.st102{opacity:0.49;fill:#070707;enable-background:new    ;}
	.st103{opacity:0.5;fill:#040404;enable-background:new    ;}
	.st104{opacity:0.5;fill:#010101;enable-background:new    ;}
	.st105{fill:url(#SVGID_1_);}
	.st106{clip-path:url(#SVGID_00000069370522281509870040000010964771495646417547_);}
	.st107{clip-path:url(#SVGID_00000023982673230626080030000010645531260673487015_);}
</style>
<g>
	<g id="Layer_2_00000060733929407850039460000000933741270206369186_">
		<g id="Layer_1-2">
			<g>
				<g>
					<path class="st0" d="M4.9,61.8H0v-25C0,16.5,16.5,0,36.8,0h56.9v4.9H36.8C19.2,4.9,4.9,19.2,4.9,36.8L4.9,61.8L4.9,61.8z"/>
					<path class="st0" d="M243.6,96.9v-1.5c18.5,0,33.6-15.1,33.6-33.6v-25c0-18.5-15.1-33.6-33.6-33.6h-150V1.7h150
						c19.3,0,35.1,15.7,35.1,35.1v25C278.7,81.2,263,96.9,243.6,96.9L243.6,96.9z"/>
					<g>
						<path class="st1" d="M140.4,96.9h-0.2c-0.4,0-0.7-0.3-0.7-0.7s0.3-0.7,0.7-0.7h0.2c0.4,0,0.7,0.3,0.7,0.7
							S140.8,96.9,140.4,96.9z"/>
						<path class="st1" d="M230.9,96.9h-0.5c-0.4,0-0.7-0.3-0.7-0.7s0.3-0.7,0.7-0.7h0.5c0.4,0,0.7,0.3,0.7,0.7
							S231.3,96.9,230.9,96.9z M218,96.9h-0.5c-0.4,0-0.7-0.3-0.7-0.7s0.3-0.7,0.7-0.7h0.5c0.4,0,0.7,0.3,0.7,0.7
							S218.4,96.9,218,96.9z M205.1,96.9h-0.5c-0.4,0-0.7-0.3-0.7-0.7s0.3-0.7,0.7-0.7h0.5c0.4,0,0.7,0.3,0.7,0.7
							S205.5,96.9,205.1,96.9z M192.2,96.9h-0.5c-0.4,0-0.7-0.3-0.7-0.7s0.3-0.7,0.7-0.7h0.5c0.4,0,0.7,0.3,0.7,0.7
							S192.6,96.9,192.2,96.9z M179.2,96.9h-0.5c-0.4,0-0.7-0.3-0.7-0.7s0.3-0.7,0.7-0.7h0.5c0.4,0,0.7,0.3,0.7,0.7
							S179.6,96.9,179.2,96.9z M166.3,96.9h-0.5c-0.4,0-0.7-0.3-0.7-0.7s0.3-0.7,0.7-0.7h0.5c0.4,0,0.7,0.3,0.7,0.7
							S166.7,96.9,166.3,96.9z M153.4,96.9h-0.5c-0.4,0-0.7-0.3-0.7-0.7s0.3-0.7,0.7-0.7h0.5c0.4,0,0.7,0.3,0.7,0.7
							S153.8,96.9,153.4,96.9z"/>
						<path class="st1" d="M243.6,96.9h-0.2c-0.4,0-0.7-0.3-0.7-0.7s0.3-0.7,0.7-0.7h0.2c0.4,0,0.7,0.3,0.7,0.7S244,96.9,243.6,96.9
							z"/>
					</g>
					<path class="st0" d="M140.2,96.9H36.8c-19.3,0-35.1-15.7-35.1-35.1h1.5c0,18.5,15.1,33.6,33.6,33.6h103.4L140.2,96.9
						L140.2,96.9z"/>
				</g>
				<g class="st2">
					<path class="st3" d="M76.7,44.4h23.6c17.8,0,32.3,14.5,32.3,32.3v23.6c0,17.8-14.5,32.3-32.3,32.3H76.7
						c-17.8,0-32.3-14.5-32.3-32.3V76.7C44.4,58.9,58.9,44.4,76.7,44.4z"/>
					<path class="st4" d="M76.4,44h23.5c17.8,0,32.3,14.5,32.3,32.3v23.5c0,17.8-14.5,32.3-32.3,32.3H76.4
						c-17.8,0-32.3-14.5-32.3-32.3V76.4C44,58.5,58.5,44,76.4,44z"/>
					<path class="st5" d="M76,43.7h23.6c17.8,0,32.3,14.5,32.3,32.3v23.6c0,17.8-14.5,32.3-32.3,32.3H76
						c-17.8,0-32.3-14.5-32.3-32.3V76C43.7,58.1,58.1,43.7,76,43.7z"/>
					<path class="st6" d="M75.6,43.3h23.6c17.8,0,32.3,14.5,32.3,32.3v23.6c0,17.8-14.5,32.3-32.3,32.3H75.6
						c-17.8,0-32.3-14.5-32.3-32.3V75.6C43.3,57.7,57.7,43.3,75.6,43.3z"/>
					<path class="st7" d="M75.2,42.9h23.6c17.8,0,32.3,14.5,32.3,32.3v23.6c0,17.8-14.5,32.3-32.3,32.3H75.2
						c-17.8,0-32.3-14.5-32.3-32.3V75.2C42.9,57.3,57.3,42.9,75.2,42.9z"/>
					<path class="st8" d="M74.8,42.5h23.6c17.8,0,32.3,14.5,32.3,32.3v23.6c0,17.8-14.5,32.3-32.3,32.3H74.8
						c-17.8,0-32.3-14.5-32.3-32.3V74.8C42.5,57,57,42.5,74.8,42.5z"/>
					<path class="st9" d="M74.4,42.1H98c17.8,0,32.3,14.5,32.3,32.3V98c0,17.8-14.5,32.3-32.3,32.3H74.4
						c-17.8,0-32.3-14.5-32.3-32.3V74.4C42.1,56.6,56.6,42.1,74.4,42.1z"/>
					<path class="st10" d="M74,41.7h23.5c17.8,0,32.3,14.5,32.3,32.3v23.5c0,17.8-14.5,32.3-32.3,32.3H74
						c-17.8,0-32.3-14.5-32.3-32.3V74C41.7,56.2,56.2,41.7,74,41.7z"/>
					<path class="st11" d="M73.7,41.3h23.5c17.8,0,32.3,14.5,32.3,32.3v23.5c0,17.8-14.5,32.3-32.3,32.3H73.7
						c-17.8,0-32.3-14.5-32.3-32.3V73.7C41.3,55.8,55.8,41.3,73.7,41.3z"/>
					<path class="st12" d="M73.3,41h23.5c17.8,0,32.3,14.5,32.3,32.3v23.5c0,17.8-14.5,32.3-32.3,32.3H73.3
						c-17.8,0-32.3-14.5-32.3-32.3V73.3C41,55.4,55.4,41,73.3,41z"/>
					<path class="st13" d="M72.9,40.6h23.5c17.8,0,32.3,14.5,32.3,32.3v23.5c0,17.8-14.5,32.3-32.3,32.3H72.9
						c-17.8,0-32.3-14.5-32.3-32.3V72.9C40.6,55,55,40.6,72.9,40.6z"/>
					<path class="st14" d="M72.5,40.2H96c17.8,0,32.3,14.5,32.3,32.3V96c0,17.8-14.5,32.3-32.3,32.3H72.5
						c-17.8,0-32.3-14.5-32.3-32.3V72.5C40.2,54.6,54.6,40.2,72.5,40.2z"/>
					<path class="st15" d="M72.1,39.8h23.6c17.8,0,32.3,14.5,32.3,32.3v23.6c0,17.8-14.5,32.3-32.3,32.3H72.1
						c-17.8,0-32.3-14.5-32.3-32.3V72.1C39.8,54.3,54.3,39.8,72.1,39.8z"/>
					<path class="st16" d="M71.7,39.4h23.6c17.8,0,32.3,14.5,32.3,32.3v23.6c0,17.8-14.5,32.3-32.3,32.3H71.7
						c-17.8,0-32.3-14.5-32.3-32.3V71.7C39.4,53.9,53.9,39.4,71.7,39.4z"/>
					<path class="st17" d="M71.3,39h23.6c17.8,0,32.3,14.5,32.3,32.3v23.6c0,17.8-14.5,32.3-32.3,32.3H71.3
						c-17.8,0-32.3-14.5-32.3-32.3V71.3C39,53.5,53.5,39,71.3,39z"/>
					<path class="st18" d="M70.9,38.6h23.6c17.8,0,32.3,14.5,32.3,32.3v23.6c0,17.8-14.5,32.3-32.3,32.3H70.9
						c-17.8,0-32.3-14.5-32.3-32.3V70.9C38.6,53.1,53.1,38.6,70.9,38.6z"/>
					<path class="st19" d="M70.6,38.3h23.5c17.8,0,32.3,14.5,32.3,32.3v23.5c0,17.8-14.5,32.3-32.3,32.3H70.6
						c-17.8,0-32.3-14.5-32.3-32.3V70.6C38.3,52.7,52.7,38.3,70.6,38.3z"/>
					<path class="st20" d="M70.2,37.9h23.5c17.8,0,32.3,14.5,32.3,32.3v23.5c0,17.8-14.5,32.3-32.3,32.3H70.2
						c-17.8,0-32.3-14.5-32.3-32.3V70.2C37.9,52.3,52.3,37.9,70.2,37.9z"/>
					<path class="st21" d="M69.8,37.5h23.6c17.8,0,32.3,14.5,32.3,32.3v23.6c0,17.8-14.5,32.3-32.3,32.3H69.8
						c-17.8,0-32.3-14.5-32.3-32.3V69.8C37.5,52,52,37.5,69.8,37.5z"/>
					<path class="st22" d="M69.4,37.1H93c17.8,0,32.3,14.5,32.3,32.3V93c0,17.8-14.5,32.3-32.3,32.3H69.4
						c-17.8,0-32.3-14.5-32.3-32.3V69.4C37.1,51.6,51.6,37.1,69.4,37.1z"/>
					<path class="st23" d="M69,36.7h23.5c17.8,0,32.3,14.5,32.3,32.3v23.5c0,17.8-14.5,32.3-32.3,32.3H69
						c-17.8,0-32.3-14.5-32.3-32.3V69C36.7,51.2,51.2,36.7,69,36.7z"/>
					<path class="st24" d="M68.6,36.3h23.6c17.8,0,32.3,14.5,32.3,32.3v23.6c0,17.8-14.5,32.3-32.3,32.3H68.6
						c-17.8,0-32.3-14.5-32.3-32.3V68.6C36.3,50.8,50.8,36.3,68.6,36.3z"/>
					<path class="st25" d="M68.2,35.9h23.6c17.8,0,32.3,14.5,32.3,32.3v23.6c0,17.8-14.5,32.3-32.3,32.3H68.2
						c-17.8,0-32.3-14.5-32.3-32.3V68.2C35.9,50.4,50.4,35.9,68.2,35.9z"/>
					<path class="st26" d="M67.9,35.6h23.5c17.8,0,32.3,14.5,32.3,32.3v23.5c0,17.8-14.5,32.3-32.3,32.3H67.9
						c-17.8,0-32.3-14.5-32.3-32.3V67.9C35.6,50,50,35.6,67.9,35.6z"/>
					<path class="st27" d="M67.5,35.2H91c17.8,0,32.3,14.5,32.3,32.3V91c0,17.8-14.5,32.3-32.3,32.3H67.5
						c-17.8,0-32.3-14.5-32.3-32.3V67.5C35.2,49.6,49.6,35.2,67.5,35.2z"/>
					<path class="st28" d="M67.1,34.8h23.5c17.8,0,32.3,14.5,32.3,32.3v23.5c0,17.8-14.5,32.3-32.3,32.3H67.1
						c-17.8,0-32.3-14.5-32.3-32.3V67.1C34.8,49.3,49.3,34.8,67.1,34.8z"/>
					<path class="st29" d="M66.7,34.4h23.5c17.8,0,32.3,14.5,32.3,32.3v23.5c0,17.8-14.5,32.3-32.3,32.3H66.7
						c-17.8,0-32.3-14.5-32.3-32.3V66.7C34.4,48.9,48.9,34.4,66.7,34.4z"/>
					<path class="st30" d="M66.3,34h23.6c17.8,0,32.3,14.5,32.3,32.3v23.6c0,17.8-14.5,32.3-32.3,32.3H66.3
						c-17.8,0-32.3-14.5-32.3-32.3V66.3C34,48.5,48.5,34,66.3,34z"/>
					<path class="st31" d="M65.9,33.6h23.6c17.8,0,32.3,14.5,32.3,32.3v23.6c0,17.8-14.5,32.3-32.3,32.3H65.9
						c-17.8,0-32.3-14.5-32.3-32.3V65.9C33.6,48.1,48.1,33.6,65.9,33.6z"/>
					<path class="st32" d="M65.6,33.2h23.6c17.8,0,32.3,14.5,32.3,32.3v23.6c0,17.8-14.5,32.3-32.3,32.3H65.6
						c-17.8,0-32.3-14.5-32.3-32.3V65.6C33.2,47.7,47.7,33.2,65.6,33.2z"/>
					<path class="st33" d="M65.2,32.9h23.6c17.8,0,32.3,14.5,32.3,32.3v23.6c0,17.8-14.5,32.3-32.3,32.3H65.2
						c-17.8,0-32.3-14.5-32.3-32.3V65.2C32.9,47.3,47.3,32.9,65.2,32.9z"/>
					<path class="st34" d="M64.8,32.5h23.6c17.8,0,32.3,14.5,32.3,32.3v23.6c0,17.8-14.5,32.3-32.3,32.3H64.8
						c-17.8,0-32.3-14.5-32.3-32.3V64.8C32.5,46.9,46.9,32.5,64.8,32.5z"/>
					<path class="st35" d="M64.4,32.1h23.5c17.8,0,32.3,14.5,32.3,32.3v23.5c0,17.8-14.5,32.3-32.3,32.3H64.4
						c-17.8,0-32.3-14.5-32.3-32.3V64.4C32.1,46.6,46.6,32.1,64.4,32.1z"/>
					<path class="st36" d="M64,31.7h23.5c17.8,0,32.3,14.5,32.3,32.3v23.5c0,17.8-14.5,32.3-32.3,32.3H64
						c-17.8,0-32.3-14.5-32.3-32.3V64C31.7,46.2,46.2,31.7,64,31.7z"/>
					<path class="st37" d="M63.6,31.3h23.5c17.8,0,32.3,14.5,32.3,32.3v23.5c0,17.8-14.5,32.3-32.3,32.3H63.6
						c-17.8,0-32.3-14.5-32.3-32.3V63.6C31.3,45.8,45.8,31.3,63.6,31.3z"/>
					<path class="st38" d="M63.2,30.9h23.5c17.8,0,32.3,14.5,32.3,32.3v23.5c0,17.8-14.5,32.3-32.3,32.3H63.2
						c-17.8,0-32.3-14.5-32.3-32.3V63.2C30.9,45.4,45.4,30.9,63.2,30.9z"/>
					<path class="st39" d="M62.9,30.5h23.6c17.8,0,32.3,14.5,32.3,32.3v23.6c0,17.8-14.5,32.3-32.3,32.3H62.9
						c-17.8,0-32.3-14.5-32.3-32.3V62.9C30.5,45,45,30.5,62.9,30.5z"/>
					<path class="st40" d="M62.5,30.2H86c17.8,0,32.3,14.5,32.3,32.3V86c0,17.8-14.5,32.3-32.3,32.3H62.5
						c-17.8,0-32.3-14.5-32.3-32.3V62.5C30.2,44.6,44.6,30.2,62.5,30.2z"/>
					<path class="st41" d="M62.1,29.8h23.5c17.8,0,32.3,14.5,32.3,32.3v23.5c0,17.8-14.5,32.3-32.3,32.3H62.1
						c-17.8,0-32.3-14.5-32.3-32.3V62.1C29.8,44.2,44.2,29.8,62.1,29.8z"/>
					<path class="st42" d="M61.7,29.4h23.5c17.8,0,32.3,14.5,32.3,32.3v23.5c0,17.8-14.5,32.3-32.3,32.3H61.7
						c-17.8,0-32.3-14.5-32.3-32.3V61.7C29.4,43.9,43.9,29.4,61.7,29.4z"/>
					<path class="st43" d="M61.3,29h23.5c17.8,0,32.3,14.5,32.3,32.3v23.5c0,17.8-14.5,32.3-32.3,32.3H61.3
						c-17.8,0-32.3-14.5-32.3-32.3V61.3C29,43.5,43.5,29,61.3,29z"/>
					<path class="st44" d="M60.9,28.6h23.5c17.8,0,32.3,14.5,32.3,32.3v23.5c0,17.8-14.5,32.3-32.3,32.3H60.9
						c-17.8,0-32.3-14.5-32.3-32.3V60.9C28.6,43.1,43.1,28.6,60.9,28.6z"/>
					<path class="st45" d="M60.5,28.2h23.5c17.8,0,32.3,14.5,32.3,32.3v23.5c0,17.8-14.5,32.3-32.3,32.3H60.5
						c-17.8,0-32.3-14.5-32.3-32.3V60.5C28.2,42.7,42.7,28.2,60.5,28.2z"/>
					<path class="st46" d="M60.2,27.9h23.5c17.8,0,32.3,14.5,32.3,32.3v23.5c0,17.8-14.5,32.3-32.3,32.3H60.2
						c-17.8,0-32.3-14.5-32.3-32.3V60.2C27.9,42.3,42.3,27.9,60.2,27.9z"/>
					<path class="st47" d="M59.8,27.5h23.5c17.8,0,32.3,14.5,32.3,32.3v23.5c0,17.8-14.5,32.3-32.3,32.3H59.8
						c-17.8,0-32.3-14.5-32.3-32.3V59.8C27.5,41.9,41.9,27.5,59.8,27.5z"/>
					<path class="st48" d="M59.4,27.1h23.6c17.8,0,32.3,14.5,32.3,32.3v23.6c0,17.8-14.5,32.3-32.3,32.3H59.4
						c-17.8,0-32.3-14.5-32.3-32.3V59.4C27.1,41.5,41.5,27.1,59.4,27.1z"/>
					<path class="st49" d="M59,26.7h23.6c17.8,0,32.3,14.5,32.3,32.3v23.6c0,17.8-14.5,32.3-32.3,32.3H59
						c-17.8,0-32.3-14.5-32.3-32.3V59C26.7,41.2,41.2,26.7,59,26.7z"/>
					<path class="st50" d="M58.6,26.3h23.5c17.8,0,32.3,14.5,32.3,32.3v23.5c0,17.8-14.5,32.3-32.3,32.3H58.6
						c-17.8,0-32.3-14.5-32.3-32.3V58.6C26.3,40.8,40.8,26.3,58.6,26.3z"/>
					<path class="st51" d="M58.2,25.9h23.5c17.8,0,32.3,14.5,32.3,32.3v23.5c0,17.8-14.5,32.3-32.3,32.3H58.2
						c-17.8,0-32.3-14.5-32.3-32.3V58.2C25.9,40.4,40.4,25.9,58.2,25.9z"/>
					<path class="st52" d="M57.9,25.5h23.5c17.8,0,32.3,14.5,32.3,32.3v23.5c0,17.8-14.5,32.3-32.3,32.3H57.9
						c-17.8,0-32.3-14.5-32.3-32.3V57.9C25.5,40,40,25.5,57.9,25.5z"/>
					<path class="st53" d="M57.5,25.1H81c17.8,0,32.3,14.5,32.3,32.3V81c0,17.8-14.5,32.3-32.3,32.3H57.5
						c-17.8,0-32.3-14.5-32.3-32.3V57.5C25.1,39.6,39.6,25.1,57.5,25.1z"/>
					<path class="st54" d="M57.1,24.8h23.5c17.8,0,32.3,14.5,32.3,32.3v23.5c0,17.8-14.5,32.3-32.3,32.3H57.1
						c-17.8,0-32.3-14.5-32.3-32.3V57.1C24.8,39.2,39.2,24.8,57.1,24.8z"/>
					<path class="st55" d="M56.7,24.4h23.5c17.8,0,32.3,14.5,32.3,32.3v23.5c0,17.8-14.5,32.3-32.3,32.3H56.7
						c-17.8,0-32.3-14.5-32.3-32.3V56.7C24.4,38.8,38.8,24.4,56.7,24.4z"/>
					<path class="st56" d="M56.3,24h23.5c17.8,0,32.3,14.5,32.3,32.3v23.5c0,17.8-14.5,32.3-32.3,32.3H56.3
						C38.5,112.2,24,97.7,24,79.8V56.3C24,38.5,38.5,24,56.3,24z"/>
					<path class="st57" d="M55.9,23.6h23.5c17.8,0,32.3,14.5,32.3,32.3v23.5c0,17.8-14.5,32.3-32.3,32.3H55.9
						c-17.8,0-32.3-14.5-32.3-32.3V55.9C23.6,38.1,38.1,23.6,55.9,23.6z"/>
					<path class="st58" d="M55.5,23.2h23.6c17.8,0,32.3,14.5,32.3,32.3v23.6c0,17.8-14.5,32.3-32.3,32.3H55.5
						c-17.8,0-32.3-14.5-32.3-32.3V55.5C23.2,37.7,37.7,23.2,55.5,23.2z"/>
					<path class="st59" d="M55.2,22.8h23.5c17.8,0,32.3,14.5,32.3,32.3v23.5c0,17.8-14.5,32.3-32.3,32.3H55.2
						c-17.8,0-32.3-14.5-32.3-32.3V55.2C22.8,37.3,37.3,22.8,55.2,22.8z"/>
					<path class="st60" d="M54.8,22.5h23.5c17.8,0,32.3,14.5,32.3,32.3v23.5c0,17.8-14.5,32.3-32.3,32.3H54.8
						c-17.8,0-32.3-14.5-32.3-32.3V54.8C22.5,36.9,36.9,22.5,54.8,22.5z"/>
					<path class="st61" d="M54.4,22.1h23.5c17.8,0,32.3,14.5,32.3,32.3v23.5c0,17.8-14.5,32.3-32.3,32.3H54.4
						c-17.8,0-32.3-14.5-32.3-32.3V54.4C22.1,36.5,36.5,22.1,54.4,22.1z"/>
					<path class="st62" d="M54,21.7h23.5c17.8,0,32.3,14.5,32.3,32.3v23.5c0,17.8-14.5,32.3-32.3,32.3H54
						c-17.8,0-32.3-14.5-32.3-32.3V54C21.7,36.1,36.1,21.7,54,21.7z"/>
					<path class="st63" d="M53.6,21.3h23.6c17.8,0,32.3,14.5,32.3,32.3v23.6c0,17.8-14.5,32.3-32.3,32.3H53.6
						c-17.8,0-32.3-14.5-32.3-32.3V53.6C21.3,35.8,35.8,21.3,53.6,21.3z"/>
					<path class="st64" d="M53.2,20.9h23.6c17.8,0,32.3,14.5,32.3,32.3v23.6c0,17.8-14.5,32.3-32.3,32.3H53.2
						c-17.8,0-32.3-14.5-32.3-32.3V53.2C20.9,35.4,35.4,20.9,53.2,20.9z"/>
					<path class="st65" d="M52.8,20.5h23.6c17.8,0,32.3,14.5,32.3,32.3v23.6c0,17.8-14.5,32.3-32.3,32.3H52.8
						c-17.8,0-32.3-14.5-32.3-32.3V52.8C20.5,35,35,20.5,52.8,20.5z"/>
					<path class="st66" d="M52.5,20.1H76c17.8,0,32.3,14.5,32.3,32.3V76c0,17.8-14.5,32.3-32.3,32.3H52.5
						c-17.8,0-32.3-14.5-32.3-32.3V52.5C20.1,34.6,34.6,20.1,52.5,20.1z"/>
					<path class="st67" d="M52.1,19.8h23.5c17.8,0,32.3,14.5,32.3,32.3v23.5c0,17.8-14.5,32.3-32.3,32.3H52.1
						c-17.8,0-32.3-14.5-32.3-32.3V52.1C19.8,34.2,34.2,19.8,52.1,19.8z"/>
					<path class="st68" d="M51.7,19.4h23.5c17.8,0,32.3,14.5,32.3,32.3v23.5c0,17.8-14.5,32.3-32.3,32.3H51.7
						c-17.8,0-32.3-14.5-32.3-32.3V51.7C19.4,33.8,33.8,19.4,51.7,19.4z"/>
					<path class="st69" d="M51.3,19h23.5c17.8,0,32.3,14.5,32.3,32.3v23.5c0,17.8-14.5,32.3-32.3,32.3H51.3
						C33.4,107.1,19,92.7,19,74.8V51.3C19,33.4,33.4,19,51.3,19z"/>
					<path class="st70" d="M50.9,18.6h23.5c17.8,0,32.3,14.5,32.3,32.3v23.5c0,17.8-14.5,32.3-32.3,32.3H50.9
						c-17.8,0-32.3-14.5-32.3-32.3V50.9C18.6,33.1,33.1,18.6,50.9,18.6z"/>
					<path class="st71" d="M50.5,18.2h23.5c17.8,0,32.3,14.5,32.3,32.3v23.5c0,17.8-14.5,32.3-32.3,32.3H50.5
						c-17.8,0-32.3-14.5-32.3-32.3V50.5C18.2,32.7,32.7,18.2,50.5,18.2z"/>
					<path class="st72" d="M50.1,17.8h23.6c17.8,0,32.3,14.5,32.3,32.3v23.6c0,17.8-14.5,32.3-32.3,32.3H50.1
						c-17.8,0-32.3-14.5-32.3-32.3V50.1C17.8,32.3,32.3,17.8,50.1,17.8z"/>
					<path class="st73" d="M49.8,17.4h23.6c17.8,0,32.3,14.5,32.3,32.3v23.6c0,17.8-14.5,32.3-32.3,32.3H49.8
						c-17.8,0-32.3-14.5-32.3-32.3V49.8C17.4,31.9,31.9,17.4,49.8,17.4z"/>
					<path class="st74" d="M49.4,17.1h23.5c17.8,0,32.3,14.5,32.3,32.3v23.5c0,17.8-14.5,32.3-32.3,32.3H49.4
						c-17.8,0-32.3-14.5-32.3-32.3V49.4C17.1,31.5,31.5,17.1,49.4,17.1z"/>
					<path class="st75" d="M49,16.7h23.5c17.8,0,32.3,14.5,32.3,32.3v23.5c0,17.8-14.5,32.3-32.3,32.3H49
						c-17.8,0-32.3-14.5-32.3-32.3V49C16.7,31.1,31.1,16.7,49,16.7z"/>
					<path class="st76" d="M48.6,16.3h23.5c17.8,0,32.3,14.5,32.3,32.3v23.5c0,17.8-14.5,32.3-32.3,32.3H48.6
						c-17.8,0-32.3-14.5-32.3-32.3V48.6C16.3,30.7,30.7,16.3,48.6,16.3z"/>
					<path class="st77" d="M48.2,15.9h23.5c17.8,0,32.3,14.5,32.3,32.3v23.5c0,17.8-14.5,32.3-32.3,32.3H48.2
						c-17.8,0-32.3-14.5-32.3-32.3V48.2C15.9,30.4,30.4,15.9,48.2,15.9z"/>
					<path class="st78" d="M47.8,15.5h23.5c17.8,0,32.3,14.5,32.3,32.3v23.5c0,17.8-14.5,32.3-32.3,32.3H47.8
						c-17.8,0-32.3-14.5-32.3-32.3V47.8C15.5,30,30,15.5,47.8,15.5z"/>
					<path class="st79" d="M47.4,15.1H71c17.8,0,32.3,14.5,32.3,32.3V71c0,17.8-14.5,32.3-32.3,32.3H47.4
						c-17.8,0-32.3-14.5-32.3-32.3V47.4C15.1,29.6,29.6,15.1,47.4,15.1z"/>
					<path class="st80" d="M47.1,14.7h23.5c17.8,0,32.3,14.5,32.3,32.3v23.5c0,17.8-14.5,32.3-32.3,32.3H47.1
						c-17.8,0-32.3-14.5-32.3-32.3V47.1C14.7,29.2,29.2,14.7,47.1,14.7z"/>
					<path class="st81" d="M46.7,14.4h23.5c17.8,0,32.3,14.5,32.3,32.3v23.5c0,17.8-14.5,32.3-32.3,32.3H46.7
						c-17.8,0-32.3-14.5-32.3-32.3V46.7C14.4,28.8,28.8,14.4,46.7,14.4z"/>
					<path class="st82" d="M46.3,14h23.5c17.8,0,32.3,14.5,32.3,32.3v23.5c0,17.8-14.5,32.3-32.3,32.3H46.3
						C28.4,102.1,14,87.7,14,69.8V46.3C14,28.4,28.4,14,46.3,14z"/>
					<path class="st83" d="M45.9,13.6h23.5c17.8,0,32.3,14.5,32.3,32.3v23.5c0,17.8-14.5,32.3-32.3,32.3H45.9
						c-17.8,0-32.3-14.5-32.3-32.3V45.9C13.6,28.1,28.1,13.6,45.9,13.6z"/>
					<path class="st84" d="M45.5,13.2h23.5c17.8,0,32.3,14.5,32.3,32.3v23.5c0,17.8-14.5,32.3-32.3,32.3H45.5
						c-17.8,0-32.3-14.5-32.3-32.3V45.5C13.2,27.7,27.7,13.2,45.5,13.2z"/>
					<path class="st85" d="M45.1,12.8h23.5c17.8,0,32.3,14.5,32.3,32.3v23.5c0,17.8-14.5,32.3-32.3,32.3H45.1
						c-17.8,0-32.3-14.5-32.3-32.3V45.1C12.8,27.3,27.3,12.8,45.1,12.8z"/>
					<path class="st86" d="M44.7,12.4h23.5c17.8,0,32.3,14.5,32.3,32.3v23.5c0,17.8-14.5,32.3-32.3,32.3H44.7
						c-17.8,0-32.3-14.5-32.3-32.3V44.7C12.4,26.9,26.9,12.4,44.7,12.4z"/>
					<path class="st87" d="M44.4,12h23.5c17.8,0,32.3,14.5,32.3,32.3v23.5c0,17.8-14.5,32.3-32.3,32.3H44.4
						C26.5,100.2,12,85.7,12,67.9V44.4C12,26.5,26.5,12,44.4,12z"/>
					<path class="st88" d="M44,11.7h23.6c17.8,0,32.3,14.5,32.3,32.3v23.6c0,17.8-14.5,32.3-32.3,32.3H44
						c-17.8,0-32.3-14.5-32.3-32.3V44C11.7,26.1,26.1,11.7,44,11.7z"/>
					<path class="st89" d="M43.6,11.3h23.6c17.8,0,32.3,14.5,32.3,32.3v23.6C99.4,85,85,99.4,67.1,99.4H43.6
						c-17.8,0-32.3-14.5-32.3-32.3V43.6C11.3,25.7,25.7,11.3,43.6,11.3z"/>
					<path class="st90" d="M43.2,10.9h23.5c17.8,0,32.3,14.5,32.3,32.3v23.5c0,17.8-14.5,32.3-32.3,32.3H43.2
						c-17.8,0-32.3-14.5-32.3-32.3V43.2C10.9,25.4,25.4,10.9,43.2,10.9z"/>
					<path class="st91" d="M42.8,10.5h23.5c17.8,0,32.3,14.5,32.3,32.3v23.5c0,17.8-14.5,32.3-32.3,32.3H42.8
						c-17.8,0-32.3-14.5-32.3-32.3V42.8C10.5,25,25,10.5,42.8,10.5z"/>
					<path class="st92" d="M42.4,10.1H66c17.8,0,32.3,14.5,32.3,32.3V66c0,17.8-14.5,32.3-32.3,32.3H42.4
						c-17.8,0-32.3-14.5-32.3-32.3V42.4C10.1,24.6,24.6,10.1,42.4,10.1z"/>
					<path class="st93" d="M42,9.7h23.5c17.8,0,32.3,14.5,32.3,32.3v23.5c0,17.8-14.5,32.3-32.3,32.3H42
						c-17.8,0-32.3-14.5-32.3-32.3V42C9.7,24.2,24.2,9.7,42,9.7z"/>
					<path class="st94" d="M41.7,9.4h23.5c17.8,0,32.3,14.5,32.3,32.3v23.5c0,17.8-14.5,32.3-32.3,32.3H41.7
						c-17.8,0-32.3-14.5-32.3-32.3V41.7C9.4,23.8,23.8,9.4,41.7,9.4z"/>
					<path class="st95" d="M41.3,9h23.5c17.8,0,32.3,14.5,32.3,32.3v23.5c0,17.8-14.5,32.3-32.3,32.3H41.3C23.4,97.1,9,82.7,9,64.8
						V41.3C9,23.4,23.4,9,41.3,9z"/>
					<path class="st96" d="M40.9,8.6h23.5c17.8,0,32.3,14.5,32.3,32.3v23.5c0,17.8-14.5,32.3-32.3,32.3H40.9
						C23,96.7,8.6,82.3,8.6,64.4V40.9C8.6,23,23,8.6,40.9,8.6z"/>
					<path class="st97" d="M40.5,8.2h23.6c17.8,0,32.3,14.5,32.3,32.3v23.6c0,17.8-14.5,32.3-32.3,32.3H40.5
						c-17.8,0-32.3-14.5-32.3-32.3V40.5C8.2,22.7,22.7,8.2,40.5,8.2z"/>
					<path class="st98" d="M40.1,7.8h23.5C81.5,7.8,96,22.3,96,40.1v23.5C96,81.5,81.5,96,63.7,96H40.1C22.3,96,7.8,81.5,7.8,63.7
						V40.1C7.8,22.3,22.3,7.8,40.1,7.8z"/>
					<path class="st99" d="M39.7,7.4h23.5c17.8,0,32.3,14.5,32.3,32.3v23.5c0,17.8-14.5,32.3-32.3,32.3H39.7
						c-17.8,0-32.3-14.5-32.3-32.3V39.7C7.4,21.9,21.9,7.4,39.7,7.4z"/>
					<path class="st100" d="M39.3,7h23.5c17.8,0,32.3,14.5,32.3,32.3v23.5c0,17.8-14.5,32.3-32.3,32.3H39.3C21.5,95.2,7,80.7,7,62.9
						V39.3C7,21.5,21.5,7,39.3,7z"/>
					<path class="st101" d="M39,6.7h23.5c17.8,0,32.3,14.5,32.3,32.3v23.5c0,17.8-14.5,32.3-32.3,32.3H39
						c-17.8,0-32.3-14.5-32.3-32.3V39C6.7,21.1,21.1,6.7,39,6.7z"/>
					<path class="st102" d="M38.6,6.3h23.5c17.8,0,32.3,14.5,32.3,32.3v23.5C94.4,80,80,94.4,62.1,94.4H38.6
						C20.7,94.4,6.3,80,6.3,62.1V38.6C6.3,20.7,20.7,6.3,38.6,6.3z"/>
					<path class="st103" d="M38.2,5.9h23.5C79.6,5.9,94,20.3,94,38.2v23.5C94,79.6,79.6,94,61.7,94H38.2C20.3,94,5.9,79.6,5.9,61.7
						V38.2C5.9,20.3,20.3,5.9,38.2,5.9z"/>
					<path class="st104" d="M37.8,5.5h23.5c17.8,0,32.3,14.5,32.3,32.3v23.5c0,17.8-14.5,32.3-32.3,32.3H37.8
						C20,93.7,5.5,79.2,5.5,61.3V37.8C5.5,20,20,5.5,37.8,5.5z"/>
				</g>
				
					<linearGradient id="SVGID_1_" gradientUnits="userSpaceOnUse" x1="111.67" y1="22.33" x2="19.84" y2="114.16" gradientTransform="matrix(1 0 0 -1 0 134)">
					<stop  offset="0" style="stop-color:#EBEAEA"/>
					<stop  offset="1" style="stop-color:#FFFFFF"/>
				</linearGradient>
				<path class="st105" d="M37.5,5.2h23.5c17.8,0,32.3,14.5,32.3,32.3v23.5c0,17.8-14.5,32.3-32.3,32.3H37.5
					c-17.8,0-32.3-14.5-32.3-32.3V37.5C5.2,19.7,19.7,5.2,37.5,5.2z"/>
				<g>
					<defs>
						<path id="SVGID_00000180328619004092666060000015068946218599952310_" d="M38.7,9.6h21.2C76,9.6,89,22.6,89,38.7v21.2
							C89,76,76,89,59.9,89H38.7C22.6,89,9.6,76,9.6,59.9V38.7C9.6,22.6,22.6,9.6,38.7,9.6z"/>
					</defs>
					<clipPath id="SVGID_00000111878469785315213810000006594429148504773771_">
						<use xlink:href="#SVGID_00000180328619004092666060000015068946218599952310_"  style="overflow:visible;"/>
					</clipPath>
					<g style="clip-path:url(#SVGID_00000111878469785315213810000006594429148504773771_);">
						<g>
							<defs>
								<rect id="SVGID_00000173120498546350244420000003400753591997904806_" x="11.2" y="17" width="86.4" height="72"/>
							</defs>
							<clipPath id="SVGID_00000035530259247287436420000003852123641927051912_">
								<use xlink:href="#SVGID_00000173120498546350244420000003400753591997904806_"  style="overflow:visible;"/>
							</clipPath>
							<g style="clip-path:url(#SVGID_00000035530259247287436420000003852123641927051912_);">
								<g>
									
										<image style="overflow:visible;enable-background:new    ;" width="3888" height="2592" xlink:href="../../../KONKAR I PAD VA/KONKAR I PAD VA/Links/shutterstock_1258192489.jpg"  transform="matrix(3.000000e-02 0 0 3.000000e-02 -30.4 8.68)">
									</image>
								</g>
							</g>
						</g>
					</g>
				</g>
			</g>
		</g>
	</g>
</g>
</svg>
