<?xml version="1.0" encoding="UTF-8"?>
<svg id="Layer_2" data-name="Layer 2" xmlns="http://www.w3.org/2000/svg" viewBox="0 0 690.34 200.82">
  <defs>
    <style>
      .cls-1 {
        fill: #18171c;
      }
    </style>
  </defs>
  <g id="Layer_1-2" data-name="Layer 1">
    <g>
      <path class="cls-1" d="m314.84,200.65h-.33v-1.05h.33v1.05Zm0-3.67h-.33v-2.63h.33v2.63Zm0-5.25h-.33v-2.63h.33v2.63Zm0-5.25h-.33v-2.63h.33v2.63Zm0-5.25h-.33v-2.63h.33v2.63Zm0-5.25h-.33v-2.63h.33v2.63Zm0-5.25h-.33v-2.63h.33v2.63Zm0-5.25h-.33v-2.63h.33v2.63Zm0-5.25h-.33v-2.63h.33v2.63Zm0-5.25h-.33v-2.63h.33v2.63Zm0-5.25h-.33v-2.63h.33v2.63Zm0-5.25h-.33v-2.63h.33v2.63Zm0-5.25h-.33v-2.63h.33v2.63Zm0-5.25h-.33v-2.63h.33v2.63Zm0-5.25h-.33v-2.63h.33v2.63Zm0-5.25h-.33v-2.63h.33v2.63Zm0-5.25h-.33v-2.63h.33v2.63Zm0-5.25h-.33v-2.63h.33v2.63Zm0-5.25h-.33v-2.63h.33v2.63Zm0-5.25h-.33v-2.63h.33v2.63Zm0-5.25h-.33v-2.63h.33v2.63Zm0-5.25h-.33v-2.63h.33v2.63Zm0-5.25h-.33v-2.63h.33v2.63Zm0-5.25h-.33v-2.63h.33v2.63Zm0-5.25h-.33v-2.63h.33v2.63Zm0-5.25h-.33v-2.63h.33v2.63Zm0-5.25h-.33v-2.63h.33v2.63Zm0-5.25h-.33v-2.63h.33v2.63Zm0-5.25h-.33v-2.63h.33v2.63Zm0-5.25h-.33v-2.63h.33v2.63Zm0-5.25h-.33v-2.63h.33v2.63Zm0-5.25h-.33v-2.63h.33v2.63Zm0-5.25h-.33v-2.63h.33v2.63Zm0-5.25h-.33v-2.63h.33v2.63Zm0-5.25h-.33v-2.63h.33v2.63Zm0-5.25h-.33v-2.63h.33v2.63Zm0-5.25h-.33v-2.63h.33v2.63Zm0-5.25h-.33v-2.63h.33v2.63Zm0-5.25h-.33V0h.33v2.63Z"/>
      <g>
        <rect class="cls-1" y="200.49" width="1.31" height=".33"/>
        <rect class="cls-1" x="214.74" y="200.49" width="2.64" height=".33"/>
        <rect class="cls-1" x="225.28" y="200.49" width="2.63" height=".33"/>
        <rect class="cls-1" x="172.58" y="200.49" width="2.63" height=".33"/>
        <rect class="cls-1" x="230.55" y="200.49" width="2.64" height=".33"/>
        <rect class="cls-1" x="235.82" y="200.49" width="2.63" height=".33"/>
        <rect class="cls-1" x="246.36" y="200.49" width="2.64" height=".33"/>
        <rect class="cls-1" x="241.09" y="200.49" width="2.63" height=".33"/>
        <rect class="cls-1" x="220.01" y="200.49" width="2.63" height=".33"/>
        <rect class="cls-1" x="188.39" y="200.49" width="2.63" height=".33"/>
        <rect class="cls-1" x="183.12" y="200.49" width="2.63" height=".33"/>
        <rect class="cls-1" x="177.85" y="200.49" width="2.63" height=".33"/>
        <rect class="cls-1" x="198.93" y="200.49" width="2.64" height=".33"/>
        <rect class="cls-1" x="193.66" y="200.49" width="2.63" height=".33"/>
        <rect class="cls-1" x="204.2" y="200.49" width="2.63" height=".33"/>
        <rect class="cls-1" x="209.47" y="200.49" width="2.63" height=".33"/>
        <rect class="cls-1" x="251.63" y="200.49" width="2.63" height=".33"/>
        <rect class="cls-1" x="309.6" y="200.49" width="2.63" height=".33"/>
        <rect class="cls-1" x="320.14" y="200.49" width="2.63" height=".33"/>
        <rect class="cls-1" x="314.87" y="200.49" width="2.63" height=".33"/>
        <rect class="cls-1" x="341.22" y="200.49" width="2.63" height=".33"/>
        <rect class="cls-1" x="299.06" y="200.49" width="2.63" height=".33"/>
        <rect class="cls-1" x="256.9" y="200.49" width="2.63" height=".33"/>
        <rect class="cls-1" x="325.41" y="200.49" width="2.63" height=".33"/>
        <rect class="cls-1" x="330.68" y="200.49" width="2.63" height=".33"/>
        <rect class="cls-1" x="335.95" y="200.49" width="2.63" height=".33"/>
        <rect class="cls-1" x="293.79" y="200.49" width="2.63" height=".33"/>
        <rect class="cls-1" x="267.44" y="200.49" width="2.63" height=".33"/>
        <rect class="cls-1" x="262.17" y="200.49" width="2.64" height=".33"/>
        <rect class="cls-1" x="272.71" y="200.49" width="2.63" height=".33"/>
        <rect class="cls-1" x="288.52" y="200.49" width="2.63" height=".33"/>
        <rect class="cls-1" x="283.25" y="200.49" width="2.63" height=".33"/>
        <rect class="cls-1" x="277.98" y="200.49" width="2.64" height=".33"/>
        <rect class="cls-1" x="304.33" y="200.49" width="2.63" height=".33"/>
        <rect class="cls-1" x="56.65" y="200.49" width="2.63" height=".33"/>
        <rect class="cls-1" x="51.38" y="200.49" width="2.63" height=".33"/>
        <rect class="cls-1" x="40.84" y="200.49" width="2.63" height=".33"/>
        <rect class="cls-1" x="46.11" y="200.49" width="2.63" height=".33"/>
        <rect class="cls-1" x="61.92" y="200.49" width="2.63" height=".33"/>
        <rect class="cls-1" x="72.46" y="200.49" width="2.63" height=".33"/>
        <rect class="cls-1" x="67.19" y="200.49" width="2.63" height=".33"/>
        <rect class="cls-1" x="19.76" y="200.49" width="2.63" height=".33"/>
        <rect class="cls-1" x="14.49" y="200.49" width="2.63" height=".33"/>
        <rect class="cls-1" x="9.22" y="200.49" width="2.63" height=".33"/>
        <rect class="cls-1" x="3.95" y="200.49" width="2.63" height=".33"/>
        <rect class="cls-1" x="25.03" y="200.49" width="2.63" height=".33"/>
        <rect class="cls-1" x="30.3" y="200.49" width="2.63" height=".33"/>
        <rect class="cls-1" x="35.57" y="200.49" width="2.63" height=".33"/>
        <rect class="cls-1" x="77.73" y="200.49" width="2.63" height=".33"/>
        <rect class="cls-1" x="130.42" y="200.49" width="2.63" height=".33"/>
        <rect class="cls-1" x="146.23" y="200.49" width="2.63" height=".33"/>
        <rect class="cls-1" x="140.96" y="200.49" width="2.63" height=".33"/>
        <rect class="cls-1" x="135.69" y="200.49" width="2.63" height=".33"/>
        <rect class="cls-1" x="156.77" y="200.49" width="2.63" height=".33"/>
        <rect class="cls-1" x="162.04" y="200.49" width="2.63" height=".33"/>
        <rect class="cls-1" x="167.31" y="200.49" width="2.63" height=".33"/>
        <rect class="cls-1" x="151.5" y="200.49" width="2.63" height=".33"/>
        <rect class="cls-1" x="109.35" y="200.49" width="2.63" height=".33"/>
        <rect class="cls-1" x="93.54" y="200.49" width="2.63" height=".33"/>
        <rect class="cls-1" x="98.81" y="200.49" width="2.63" height=".33"/>
        <rect class="cls-1" x="88.27" y="200.49" width="2.63" height=".33"/>
        <rect class="cls-1" x="114.62" y="200.49" width="2.63" height=".33"/>
        <rect class="cls-1" x="119.88" y="200.49" width="2.63" height=".33"/>
        <rect class="cls-1" x="83" y="200.49" width="2.63" height=".33"/>
        <rect class="cls-1" x="125.16" y="200.49" width="2.63" height=".33"/>
        <rect class="cls-1" x="104.08" y="200.49" width="2.63" height=".33"/>
        <rect class="cls-1" x="604.71" y="200.49" width="2.63" height=".33"/>
        <rect class="cls-1" x="573.09" y="200.49" width="2.63" height=".33"/>
        <rect class="cls-1" x="578.36" y="200.49" width="2.63" height=".33"/>
        <rect class="cls-1" x="567.82" y="200.49" width="2.63" height=".33"/>
        <rect class="cls-1" x="588.9" y="200.49" width="2.63" height=".33"/>
        <rect class="cls-1" x="599.44" y="200.49" width="2.64" height=".33"/>
        <rect class="cls-1" x="562.55" y="200.49" width="2.63" height=".33"/>
        <rect class="cls-1" x="594.17" y="200.49" width="2.63" height=".33"/>
        <rect class="cls-1" x="583.63" y="200.49" width="2.63" height=".33"/>
        <rect class="cls-1" x="536.2" y="200.49" width="2.63" height=".33"/>
        <rect class="cls-1" x="530.93" y="200.49" width="2.63" height=".33"/>
        <rect class="cls-1" x="525.66" y="200.49" width="2.63" height=".33"/>
        <rect class="cls-1" x="541.47" y="200.49" width="2.64" height=".33"/>
        <rect class="cls-1" x="552.01" y="200.49" width="2.63" height=".33"/>
        <rect class="cls-1" x="546.74" y="200.49" width="2.63" height=".33"/>
        <rect class="cls-1" x="557.28" y="200.49" width="2.64" height=".33"/>
        <rect class="cls-1" x="636.33" y="200.49" width="2.63" height=".33"/>
        <rect class="cls-1" x="652.14" y="200.49" width="2.63" height=".33"/>
        <rect class="cls-1" x="662.68" y="200.49" width="2.63" height=".33"/>
        <rect class="cls-1" x="657.41" y="200.49" width="2.63" height=".33"/>
        <rect class="cls-1" x="346.49" y="200.49" width="2.64" height=".33"/>
        <rect class="cls-1" x="683.76" y="200.49" width="2.64" height=".33"/>
        <rect class="cls-1" x="678.49" y="200.49" width="2.63" height=".33"/>
        <rect class="cls-1" x="609.98" y="200.49" width="2.63" height=".33"/>
        <rect class="cls-1" x="673.22" y="200.49" width="2.63" height=".33"/>
        <rect class="cls-1" x="625.79" y="200.49" width="2.64" height=".33"/>
        <rect class="cls-1" x="646.87" y="200.49" width="2.63" height=".33"/>
        <rect class="cls-1" x="615.25" y="200.49" width="2.63" height=".33"/>
        <rect class="cls-1" x="620.52" y="200.49" width="2.63" height=".33"/>
        <rect class="cls-1" x="641.6" y="200.49" width="2.64" height=".33"/>
        <rect class="cls-1" x="520.39" y="200.49" width="2.63" height=".33"/>
        <rect class="cls-1" x="631.06" y="200.49" width="2.63" height=".33"/>
        <rect class="cls-1" x="667.95" y="200.49" width="2.63" height=".33"/>
        <rect class="cls-1" x="399.19" y="200.49" width="2.63" height=".33"/>
        <rect class="cls-1" x="404.46" y="200.49" width="2.63" height=".33"/>
        <rect class="cls-1" x="409.73" y="200.49" width="2.63" height=".33"/>
        <rect class="cls-1" x="393.92" y="200.49" width="2.63" height=".33"/>
        <rect class="cls-1" x="420.27" y="200.49" width="2.63" height=".33"/>
        <rect class="cls-1" x="425.54" y="200.49" width="2.63" height=".33"/>
        <rect class="cls-1" x="415" y="200.49" width="2.63" height=".33"/>
        <rect class="cls-1" x="388.65" y="200.49" width="2.63" height=".33"/>
        <rect class="cls-1" x="357.03" y="200.49" width="2.63" height=".33"/>
        <rect class="cls-1" x="430.81" y="200.49" width="2.64" height=".33"/>
        <rect class="cls-1" x="362.3" y="200.49" width="2.64" height=".33"/>
        <rect class="cls-1" x="351.76" y="200.49" width="2.63" height=".33"/>
        <rect class="cls-1" x="367.57" y="200.49" width="2.63" height=".33"/>
        <rect class="cls-1" x="383.38" y="200.49" width="2.63" height=".33"/>
        <rect class="cls-1" x="378.11" y="200.49" width="2.63" height=".33"/>
        <rect class="cls-1" x="372.84" y="200.49" width="2.63" height=".33"/>
        <rect class="cls-1" x="478.23" y="200.49" width="2.63" height=".33"/>
        <rect class="cls-1" x="515.12" y="200.49" width="2.64" height=".33"/>
        <rect class="cls-1" x="494.04" y="200.49" width="2.63" height=".33"/>
        <rect class="cls-1" x="483.5" y="200.49" width="2.63" height=".33"/>
        <rect class="cls-1" x="488.77" y="200.49" width="2.63" height=".33"/>
        <rect class="cls-1" x="499.31" y="200.49" width="2.63" height=".33"/>
        <rect class="cls-1" x="509.85" y="200.49" width="2.63" height=".33"/>
        <rect class="cls-1" x="504.58" y="200.49" width="2.63" height=".33"/>
        <rect class="cls-1" x="446.62" y="200.49" width="2.64" height=".33"/>
        <rect class="cls-1" x="436.08" y="200.49" width="2.63" height=".33"/>
        <rect class="cls-1" x="451.89" y="200.49" width="2.63" height=".33"/>
        <rect class="cls-1" x="441.35" y="200.49" width="2.63" height=".33"/>
        <rect class="cls-1" x="472.96" y="200.49" width="2.63" height=".33"/>
        <rect class="cls-1" x="467.7" y="200.49" width="2.63" height=".33"/>
        <rect class="cls-1" x="457.16" y="200.49" width="2.63" height=".33"/>
        <rect class="cls-1" x="462.42" y="200.49" width="2.63" height=".33"/>
        <rect class="cls-1" x="689.03" y="200.49" width="1.31" height=".33"/>
      </g>
    </g>
  </g>
</svg>