<?xml version="1.0" encoding="UTF-8"?>
<svg id="Layer_2" data-name="Layer 2" xmlns="http://www.w3.org/2000/svg" xmlns:xlink="http://www.w3.org/1999/xlink" viewBox="0 0 235.4 19.28">
  <defs>
    <style>
      .cls-1 {
        fill: #444545;
      }

      .cls-2 {
        fill: #fff;
        font-family: ProximaNova-Bold, 'Proxima Nova';
        font-size: 11.63px;
        font-weight: 700;
      }

      .cls-3 {
        letter-spacing: -.03em;
      }

      .cls-4 {
        letter-spacing: -.01em;
      }

      .cls-5 {
        fill: url(#linear-gradient);
      }
    </style>
    <linearGradient id="linear-gradient" x1="63.46" y1="10.09" x2="171.85" y2="10.09" gradientUnits="userSpaceOnUse">
      <stop offset="0" stop-color="#cb202f"/>
      <stop offset=".54" stop-color="#283f94"/>
      <stop offset="1" stop-color="#096a37"/>
    </linearGradient>
  </defs>
  <g id="Layer_1-2" data-name="Layer 1">
    <g>
      <g>
        <polygon points="0 5.98 .78 5.98 .78 5.99 0 5.98"/>
        <polygon points="2.32 5.97 3.87 5.97 3.87 6 2.32 5.99 2.32 5.97"/>
        <polygon points="5.42 5.96 6.97 5.96 6.97 6.01 5.42 6 5.42 5.96"/>
        <polygon points="8.52 5.95 10.07 5.94 10.07 6.02 8.52 6.02 8.52 5.95"/>
        <polygon points="11.62 5.94 13.16 5.93 13.16 6.03 11.62 6.03 11.62 5.94"/>
        <polygon points="14.71 5.93 16.26 5.92 16.26 6.05 14.71 6.04 14.71 5.93"/>
        <polygon points="17.81 5.91 19.36 5.91 19.36 6.06 17.81 6.05 17.81 5.91"/>
        <polygon points="20.91 5.9 22.46 5.9 22.46 6.07 20.91 6.06 20.91 5.9"/>
        <polygon points="24.01 5.89 25.55 5.88 25.55 6.08 24.01 6.08 24.01 5.89"/>
        <polygon points="27.1 5.88 28.65 5.87 28.65 6.09 27.1 6.09 27.1 5.88"/>
        <polygon points="30.2 5.87 31.75 5.86 31.75 6.1 30.2 6.1 30.2 5.87"/>
        <polygon points="33.3 5.86 34.85 5.86 34.85 6.11 33.3 6.1 33.3 5.86"/>
        <polygon points="36.4 5.86 37.94 5.85 37.94 6.11 36.4 6.11 36.4 5.86"/>
        <polygon points="39.49 5.85 41.04 5.85 41.04 6.11 39.49 6.11 39.49 5.85"/>
        <polygon points="42.59 5.85 44.14 5.85 44.14 6.12 42.59 6.12 42.59 5.85"/>
        <polygon points="45.69 5.84 47.24 5.84 47.24 6.12 45.69 6.12 45.69 5.84"/>
        <polygon points="48.78 5.84 50.33 5.84 50.33 6.13 48.78 6.12 48.78 5.84"/>
        <polygon points="51.88 5.84 53.43 5.83 53.43 6.13 51.88 6.13 51.88 5.84"/>
        <polygon points="54.98 5.83 56.53 5.83 56.53 6.14 54.98 6.13 54.98 5.83"/>
        <polygon points="58.08 5.83 59.63 5.83 59.63 6.14 58.08 6.14 58.08 5.83"/>
        <polygon points="61.17 5.82 62.72 5.82 62.72 6.14 61.17 6.14 61.17 5.82"/>
        <polygon points="64.27 5.82 65.82 5.82 65.82 6.15 64.27 6.15 64.27 5.82"/>
        <polygon points="67.37 5.82 68.92 5.81 68.92 6.15 67.37 6.15 67.37 5.82"/>
        <polygon points="70.47 5.81 72.01 5.81 72.01 6.16 70.47 6.15 70.47 5.81"/>
        <polygon points="73.56 5.81 75.11 5.8 75.11 6.16 73.56 6.16 73.56 5.81"/>
        <polygon points="76.66 5.8 78.21 5.8 78.21 6.16 76.66 6.16 76.66 5.8"/>
        <polygon points="79.76 5.8 81.31 5.8 81.31 6.17 79.76 6.17 79.76 5.8"/>
        <polygon points="82.86 5.79 84.4 5.79 84.4 6.17 82.86 6.17 82.86 5.79"/>
        <polygon points="85.95 5.79 87.5 5.79 87.5 6.18 85.95 6.17 85.95 5.79"/>
        <polygon points="89.05 5.79 90.6 5.78 90.6 6.18 89.05 6.18 89.05 5.79"/>
        <polygon points="92.15 5.78 93.7 5.78 93.7 6.18 92.15 6.18 92.15 5.78"/>
        <polygon points="95.24 5.78 96.79 5.78 96.79 6.19 95.24 6.19 95.24 5.78"/>
        <polygon points="98.34 5.77 99.89 5.77 99.89 6.19 98.34 6.19 98.34 5.77"/>
        <polygon points="101.44 5.77 102.99 5.77 102.99 6.2 101.44 6.2 101.44 5.77"/>
        <polygon points="104.54 5.77 106.09 5.76 106.09 6.2 104.54 6.2 104.54 5.77"/>
        <polygon points="107.63 5.76 109.18 5.76 109.18 6.21 107.63 6.2 107.63 5.76"/>
        <polygon points="110.73 5.76 112.28 5.76 112.28 6.21 110.73 6.21 110.73 5.76"/>
        <polygon points="113.83 5.75 115.38 5.75 115.38 6.21 113.83 6.21 113.83 5.75"/>
        <rect x="116.93" y="5.75" width="1.55" height=".47"/>
        <polygon points="120.02 5.75 121.57 5.75 121.57 6.21 120.02 6.21 120.02 5.75"/>
        <polygon points="123.12 5.75 124.67 5.76 124.67 6.21 123.12 6.21 123.12 5.75"/>
        <polygon points="126.22 5.76 127.77 5.76 127.77 6.2 126.22 6.21 126.22 5.76"/>
        <polygon points="129.32 5.76 130.86 5.76 130.86 6.2 129.32 6.2 129.32 5.76"/>
        <polygon points="132.41 5.77 133.96 5.77 133.96 6.2 132.41 6.2 132.41 5.77"/>
        <polygon points="135.51 5.77 137.06 5.77 137.06 6.19 135.51 6.19 135.51 5.77"/>
        <polygon points="138.61 5.77 140.16 5.78 140.16 6.19 138.61 6.19 138.61 5.77"/>
        <polygon points="141.71 5.78 143.25 5.78 143.25 6.18 141.71 6.19 141.71 5.78"/>
        <polygon points="144.8 5.78 146.35 5.79 146.35 6.18 144.8 6.18 144.8 5.78"/>
        <polygon points="147.9 5.79 149.45 5.79 149.45 6.18 147.9 6.18 147.9 5.79"/>
        <polygon points="151 5.79 152.55 5.79 152.55 6.17 151 6.17 151 5.79"/>
        <polygon points="154.09 5.8 155.64 5.8 155.64 6.17 154.09 6.17 154.09 5.8"/>
        <polygon points="157.19 5.8 158.74 5.8 158.74 6.16 157.19 6.16 157.19 5.8"/>
        <polygon points="160.29 5.8 161.84 5.81 161.84 6.16 160.29 6.16 160.29 5.8"/>
        <polygon points="163.39 5.81 164.94 5.81 164.94 6.15 163.39 6.16 163.39 5.81"/>
        <polygon points="166.48 5.81 168.03 5.81 168.03 6.15 166.48 6.15 166.48 5.81"/>
        <polygon points="169.58 5.82 171.13 5.82 171.13 6.15 169.58 6.15 169.58 5.82"/>
        <polygon points="172.68 5.82 174.23 5.82 174.23 6.14 172.68 6.14 172.68 5.82"/>
        <polygon points="175.78 5.83 177.33 5.83 177.33 6.14 175.78 6.14 175.78 5.83"/>
        <polygon points="178.87 5.83 180.42 5.83 180.42 6.13 178.87 6.14 178.87 5.83"/>
        <polygon points="181.97 5.83 183.52 5.84 183.52 6.13 181.97 6.13 181.97 5.83"/>
        <polygon points="185.07 5.84 186.62 5.84 186.62 6.13 185.07 6.13 185.07 5.84"/>
        <polygon points="188.17 5.84 189.71 5.84 189.71 6.12 188.17 6.12 188.17 5.84"/>
        <polygon points="191.26 5.85 192.81 5.85 192.81 6.12 191.26 6.12 191.26 5.85"/>
        <polygon points="194.36 5.85 195.91 5.85 195.91 6.11 194.36 6.11 194.36 5.85"/>
        <polygon points="197.46 5.85 199.01 5.86 199.01 6.11 197.46 6.11 197.46 5.85"/>
        <polygon points="200.56 5.86 202.1 5.86 202.1 6.1 200.56 6.11 200.56 5.86"/>
        <polygon points="203.65 5.86 205.2 5.86 205.2 6.1 203.65 6.1 203.65 5.86"/>
        <polygon points="206.75 5.87 208.3 5.88 208.3 6.09 206.75 6.09 206.75 5.87"/>
        <polygon points="209.85 5.88 211.4 5.89 211.4 6.08 209.85 6.08 209.85 5.88"/>
        <polygon points="212.94 5.89 214.49 5.9 214.49 6.06 212.94 6.07 212.94 5.89"/>
        <polygon points="216.04 5.91 217.59 5.91 217.59 6.05 216.04 6.06 216.04 5.91"/>
        <polygon points="219.14 5.92 220.69 5.92 220.69 6.04 219.14 6.05 219.14 5.92"/>
        <polygon points="222.24 5.93 223.79 5.94 223.79 6.03 222.24 6.03 222.24 5.93"/>
        <polygon points="225.33 5.94 226.88 5.95 226.88 6.02 225.33 6.02 225.33 5.94"/>
        <polygon points="228.43 5.96 229.98 5.96 229.98 6 228.43 6.01 228.43 5.96"/>
        <polygon points="231.53 5.97 233.08 5.97 233.08 5.99 231.53 6 231.53 5.97"/>
        <polygon points="234.63 5.98 235.4 5.98 234.63 5.99 234.63 5.98"/>
      </g>
      <g>
        <polygon class="cls-1" points="171.85 .89 175.36 5.98 170.54 5.8 171.85 .89"/>
        <polygon class="cls-1" points="63.55 .89 60.04 5.98 64.86 5.8 63.55 .89"/>
        <path class="cls-5" d="m139.01.89H63.46l3.74,14c.7,2.63,2.6,4.39,4.74,4.39h91.44c2.13,0,4.03-1.76,4.74-4.39l3.74-14h-32.84Z"/>
      </g>
      <g>
        <text class="cls-2" transform="translate(92.67 13.57)"><tspan x="0" y="0">DO</tspan><tspan class="cls-4" x="17.25" y="0">S</tspan><tspan class="cls-3" x="24.11" y="0">A</tspan><tspan x="31.67" y="0">GE</tspan></text>
        <text class="cls-2" transform="translate(139.49 9.69) scale(.58)"><tspan x="0" y="0">3</tspan></text>
      </g>
    </g>
  </g>
</svg>