<?xml version="1.0" encoding="UTF-8"?>
<svg id="Layer_2" data-name="Layer 2" xmlns="http://www.w3.org/2000/svg" xmlns:xlink="http://www.w3.org/1999/xlink" viewBox="0 0 235.4 18.39">
  <defs>
    <style>
      .cls-1 {
        fill: #444545;
      }

      .cls-2 {
        letter-spacing: 0em;
      }

      .cls-3 {
        fill: #fff;
        font-family: ProximaNova-Bold, 'Proxima Nova';
        font-size: 10.85px;
        font-weight: 700;
      }

      .cls-4 {
        letter-spacing: -.06em;
      }

      .cls-5 {
        fill: url(#linear-gradient);
      }
    </style>
    <linearGradient id="linear-gradient" x1="63.46" y1="9.2" x2="171.85" y2="9.2" gradientUnits="userSpaceOnUse">
      <stop offset="0" stop-color="#cb202f"/>
      <stop offset=".54" stop-color="#283f94"/>
      <stop offset="1" stop-color="#096a37"/>
    </linearGradient>
  </defs>
  <g id="Layer_1-2" data-name="Layer 1">
    <g>
      <g>
        <polygon points="0 5.09 .78 5.09 .78 5.09 0 5.09"/>
        <polygon points="2.32 5.08 3.87 5.08 3.87 5.11 2.32 5.1 2.32 5.08"/>
        <polygon points="5.42 5.07 6.97 5.06 6.97 5.12 5.42 5.11 5.42 5.07"/>
        <polygon points="8.52 5.06 10.07 5.05 10.07 5.13 8.52 5.12 8.52 5.06"/>
        <polygon points="11.62 5.04 13.16 5.04 13.16 5.14 11.62 5.14 11.62 5.04"/>
        <polygon points="14.71 5.03 16.26 5.03 16.26 5.15 14.71 5.15 14.71 5.03"/>
        <polygon points="17.81 5.02 19.36 5.01 19.36 5.17 17.81 5.16 17.81 5.02"/>
        <polygon points="20.91 5.01 22.46 5 22.46 5.18 20.91 5.17 20.91 5.01"/>
        <polygon points="24.01 5 25.55 4.99 25.55 5.19 24.01 5.18 24.01 5"/>
        <polygon points="27.1 4.98 28.65 4.98 28.65 5.2 27.1 5.2 27.1 4.98"/>
        <polygon points="30.2 4.97 31.75 4.97 31.75 5.21 30.2 5.21 30.2 4.97"/>
        <polygon points="33.3 4.97 34.85 4.97 34.85 5.21 33.3 5.21 33.3 4.97"/>
        <polygon points="36.4 4.96 37.94 4.96 37.94 5.22 36.4 5.22 36.4 4.96"/>
        <polygon points="39.49 4.96 41.04 4.96 41.04 5.22 39.49 5.22 39.49 4.96"/>
        <polygon points="42.59 4.96 44.14 4.95 44.14 5.23 42.59 5.22 42.59 4.96"/>
        <polygon points="45.69 4.95 47.24 4.95 47.24 5.23 45.69 5.23 45.69 4.95"/>
        <polygon points="48.78 4.95 50.33 4.95 50.33 5.23 48.78 5.23 48.78 4.95"/>
        <polygon points="51.88 4.94 53.43 4.94 53.43 5.24 51.88 5.24 51.88 4.94"/>
        <polygon points="54.98 4.94 56.53 4.94 56.53 5.24 54.98 5.24 54.98 4.94"/>
        <polygon points="58.08 4.94 59.63 4.93 59.63 5.25 58.08 5.24 58.08 4.94"/>
        <polygon points="61.17 4.93 62.72 4.93 62.72 5.25 61.17 5.25 61.17 4.93"/>
        <polygon points="64.27 4.93 65.82 4.92 65.82 5.26 64.27 5.25 64.27 4.93"/>
        <polygon points="67.37 4.92 68.92 4.92 68.92 5.26 67.37 5.26 67.37 4.92"/>
        <polygon points="70.47 4.92 72.01 4.92 72.01 5.26 70.47 5.26 70.47 4.92"/>
        <polygon points="73.56 4.91 75.11 4.91 75.11 5.27 73.56 5.27 73.56 4.91"/>
        <polygon points="76.66 4.91 78.21 4.91 78.21 5.27 76.66 5.27 76.66 4.91"/>
        <polygon points="79.76 4.91 81.31 4.9 81.31 5.28 79.76 5.27 79.76 4.91"/>
        <polygon points="82.86 4.9 84.4 4.9 84.4 5.28 82.86 5.28 82.86 4.9"/>
        <polygon points="85.95 4.9 87.5 4.9 87.5 5.28 85.95 5.28 85.95 4.9"/>
        <polygon points="89.05 4.89 90.6 4.89 90.6 5.29 89.05 5.29 89.05 4.89"/>
        <polygon points="92.15 4.89 93.7 4.89 93.7 5.29 92.15 5.29 92.15 4.89"/>
        <polygon points="95.24 4.89 96.79 4.88 96.79 5.3 95.24 5.29 95.24 4.89"/>
        <polygon points="98.34 4.88 99.89 4.88 99.89 5.3 98.34 5.3 98.34 4.88"/>
        <polygon points="101.44 4.88 102.99 4.88 102.99 5.31 101.44 5.3 101.44 4.88"/>
        <polygon points="104.54 4.87 106.09 4.87 106.09 5.31 104.54 5.31 104.54 4.87"/>
        <polygon points="107.63 4.87 109.18 4.87 109.18 5.31 107.63 5.31 107.63 4.87"/>
        <polygon points="110.73 4.86 112.28 4.86 112.28 5.32 110.73 5.32 110.73 4.86"/>
        <polygon points="113.83 4.86 115.38 4.86 115.38 5.32 113.83 5.32 113.83 4.86"/>
        <rect x="116.93" y="4.86" width="1.55" height=".47"/>
        <polygon points="120.02 4.86 121.57 4.86 121.57 5.32 120.02 5.32 120.02 4.86"/>
        <polygon points="123.12 4.86 124.67 4.86 124.67 5.32 123.12 5.32 123.12 4.86"/>
        <polygon points="126.22 4.87 127.77 4.87 127.77 5.31 126.22 5.31 126.22 4.87"/>
        <polygon points="129.32 4.87 130.86 4.87 130.86 5.31 129.32 5.31 129.32 4.87"/>
        <polygon points="132.41 4.87 133.96 4.88 133.96 5.3 132.41 5.31 132.41 4.87"/>
        <polygon points="135.51 4.88 137.06 4.88 137.06 5.3 135.51 5.3 135.51 4.88"/>
        <polygon points="138.61 4.88 140.16 4.88 140.16 5.3 138.61 5.3 138.61 4.88"/>
        <polygon points="141.71 4.89 143.25 4.89 143.25 5.29 141.71 5.29 141.71 4.89"/>
        <polygon points="144.8 4.89 146.35 4.89 146.35 5.29 144.8 5.29 144.8 4.89"/>
        <polygon points="147.9 4.9 149.45 4.9 149.45 5.28 147.9 5.29 147.9 4.9"/>
        <polygon points="151 4.9 152.55 4.9 152.55 5.28 151 5.28 151 4.9"/>
        <polygon points="154.09 4.9 155.64 4.91 155.64 5.27 154.09 5.28 154.09 4.9"/>
        <polygon points="157.19 4.91 158.74 4.91 158.74 5.27 157.19 5.27 157.19 4.91"/>
        <polygon points="160.29 4.91 161.84 4.91 161.84 5.27 160.29 5.27 160.29 4.91"/>
        <polygon points="163.39 4.92 164.94 4.92 164.94 5.26 163.39 5.26 163.39 4.92"/>
        <polygon points="166.48 4.92 168.03 4.92 168.03 5.26 166.48 5.26 166.48 4.92"/>
        <polygon points="169.58 4.92 171.13 4.93 171.13 5.25 169.58 5.26 169.58 4.92"/>
        <polygon points="172.68 4.93 174.23 4.93 174.23 5.25 172.68 5.25 172.68 4.93"/>
        <polygon points="175.78 4.93 177.33 4.93 177.33 5.25 175.78 5.25 175.78 4.93"/>
        <polygon points="178.87 4.94 180.42 4.94 180.42 5.24 178.87 5.24 178.87 4.94"/>
        <polygon points="181.97 4.94 183.52 4.94 183.52 5.24 181.97 5.24 181.97 4.94"/>
        <polygon points="185.07 4.95 186.62 4.95 186.62 5.23 185.07 5.23 185.07 4.95"/>
        <polygon points="188.17 4.95 189.71 4.95 189.71 5.23 188.17 5.23 188.17 4.95"/>
        <polygon points="191.26 4.95 192.81 4.96 192.81 5.22 191.26 5.23 191.26 4.95"/>
        <polygon points="194.36 4.96 195.91 4.96 195.91 5.22 194.36 5.22 194.36 4.96"/>
        <polygon points="197.46 4.96 199.01 4.96 199.01 5.22 197.46 5.22 197.46 4.96"/>
        <polygon points="200.56 4.97 202.1 4.97 202.1 5.21 200.56 5.21 200.56 4.97"/>
        <polygon points="203.65 4.97 205.2 4.97 205.2 5.21 203.65 5.21 203.65 4.97"/>
        <polygon points="206.75 4.98 208.3 4.98 208.3 5.2 206.75 5.2 206.75 4.98"/>
        <polygon points="209.85 4.99 211.4 5 211.4 5.18 209.85 5.19 209.85 4.99"/>
        <polygon points="212.94 5 214.49 5.01 214.49 5.17 212.94 5.18 212.94 5"/>
        <polygon points="216.04 5.01 217.59 5.02 217.59 5.16 216.04 5.17 216.04 5.01"/>
        <polygon points="219.14 5.03 220.69 5.03 220.69 5.15 219.14 5.15 219.14 5.03"/>
        <polygon points="222.24 5.04 223.79 5.04 223.79 5.14 222.24 5.14 222.24 5.04"/>
        <polygon points="225.33 5.05 226.88 5.06 226.88 5.12 225.33 5.13 225.33 5.05"/>
        <polygon points="228.43 5.06 229.98 5.07 229.98 5.11 228.43 5.12 228.43 5.06"/>
        <polygon points="231.53 5.07 233.08 5.08 233.08 5.1 231.53 5.11 231.53 5.07"/>
        <polygon points="234.63 5.09 235.4 5.09 234.63 5.09 234.63 5.09"/>
      </g>
      <g>
        <polygon class="cls-1" points="171.85 0 175.36 5.09 170.54 4.91 171.85 0"/>
        <polygon class="cls-1" points="63.55 0 60.04 5.09 64.86 4.91 63.55 0"/>
        <path class="cls-5" d="m139.01,0H63.46l3.74,14c.7,2.63,2.6,4.39,4.74,4.39h91.44c2.13,0,4.03-1.76,4.74-4.39L171.85,0h-32.84Z"/>
      </g>
      <g>
        <text class="cls-3" transform="translate(85.54 12.67)"><tspan x="0" y="0">INDI</tspan><tspan class="cls-2" x="21.65" y="0">C</tspan><tspan class="cls-4" x="29.04" y="0">A</tspan><tspan x="35.77" y="0">TION</tspan></text>
        <text class="cls-3" transform="translate(146.81 9.06) scale(.58)"><tspan x="0" y="0">3</tspan></text>
      </g>
    </g>
  </g>
</svg>