<?xml version="1.0" encoding="UTF-8"?>
<svg id="Layer_2" data-name="Layer 2" xmlns="http://www.w3.org/2000/svg" xmlns:xlink="http://www.w3.org/1999/xlink" viewBox="0 0 908.82 417.14">
  <defs>
    <style>
      .cls-1 {
        fill: url(#linear-gradient-2);
      }

      .cls-2 {
        fill: url(#linear-gradient-17);
      }

      .cls-3, .cls-4, .cls-5, .cls-6, .cls-7 {
        fill: #231f20;
      }

      .cls-3, .cls-4, .cls-5, .cls-6, .cls-8 {
        font-weight: 700;
      }

      .cls-3, .cls-4, .cls-5, .cls-8 {
        font-family: AcuminConcept-CondensedBold, 'Acumin Variable Concept';
        font-variation-settings: 'wght' 700, 'wdth' 67, 'slnt' 0;
      }

      .cls-3, .cls-7 {
        font-size: 13.62px;
      }

      .cls-4, .cls-8 {
        font-size: 11.45px;
      }

      .cls-9 {
        fill: url(#linear-gradient-15);
      }

      .cls-10 {
        fill: url(#linear-gradient-18);
      }

      .cls-11 {
        fill: url(#linear-gradient-28);
      }

      .cls-12 {
        fill: url(#linear-gradient-14);
      }

      .cls-13 {
        fill: url(#linear-gradient-36);
      }

      .cls-14 {
        fill: url(#linear-gradient-20);
      }

      .cls-15 {
        fill: url(#linear-gradient-6);
      }

      .cls-5 {
        font-size: 15.27px;
      }

      .cls-16 {
        fill: url(#linear-gradient-35);
      }

      .cls-17 {
        fill: url(#linear-gradient-32);
      }

      .cls-18 {
        fill: #53668c;
        opacity: .05;
      }

      .cls-19 {
        fill: url(#linear-gradient-11);
      }

      .cls-20 {
        fill: url(#linear-gradient-39);
      }

      .cls-21 {
        fill: url(#linear-gradient-10);
      }

      .cls-22 {
        fill: url(#linear-gradient-37);
      }

      .cls-23 {
        fill: url(#linear-gradient-16);
      }

      .cls-24 {
        fill: url(#linear-gradient-31);
      }

      .cls-25 {
        fill: url(#linear-gradient-21);
      }

      .cls-26 {
        fill: url(#linear-gradient-25);
      }

      .cls-27 {
        fill: url(#linear-gradient-5);
      }

      .cls-6 {
        font-family: Arial-BoldMT, Arial;
        font-size: 13.44px;
      }

      .cls-28 {
        fill: url(#linear-gradient-34);
      }

      .cls-29 {
        fill: url(#linear-gradient-7);
      }

      .cls-30 {
        fill: url(#linear-gradient-24);
      }

      .cls-31 {
        stroke-width: 1.31px;
      }

      .cls-31, .cls-32 {
        fill: none;
        stroke: #656a6d;
        stroke-miterlimit: 10;
      }

      .cls-33 {
        fill: url(#linear-gradient-9);
      }

      .cls-34 {
        fill: url(#linear-gradient-22);
      }

      .cls-35 {
        fill: url(#linear-gradient-3);
      }

      .cls-36 {
        fill: url(#linear-gradient);
      }

      .cls-7 {
        font-family: AcuminConcept-Condensed, 'Acumin Variable Concept';
        font-variation-settings: 'wght' 400, 'wdth' 67, 'slnt' 0;
      }

      .cls-37 {
        fill: url(#linear-gradient-27);
      }

      .cls-38 {
        fill: url(#linear-gradient-33);
      }

      .cls-39 {
        fill: url(#linear-gradient-38);
      }

      .cls-40 {
        fill: url(#linear-gradient-29);
      }

      .cls-41 {
        fill: url(#linear-gradient-30);
      }

      .cls-42 {
        fill: url(#linear-gradient-23);
      }

      .cls-43 {
        fill: url(#linear-gradient-19);
      }

      .cls-44 {
        fill: url(#linear-gradient-4);
      }

      .cls-32 {
        stroke-width: .66px;
      }

      .cls-45 {
        fill: url(#linear-gradient-8);
      }

      .cls-46 {
        fill: url(#linear-gradient-12);
      }

      .cls-47 {
        fill: url(#linear-gradient-13);
      }

      .cls-48 {
        fill: url(#linear-gradient-26);
      }

      .cls-8 {
        fill: #fff;
      }
    </style>
    <linearGradient id="linear-gradient" x1="105.21" y1="223.26" x2="139.72" y2="223.26" gradientUnits="userSpaceOnUse">
      <stop offset="0" stop-color="#5b6ab1"/>
      <stop offset="1" stop-color="#3351a3"/>
    </linearGradient>
    <linearGradient id="linear-gradient-2" x1="534.61" y1="370.64" x2="542.52" y2="370.64" gradientUnits="userSpaceOnUse">
      <stop offset="0" stop-color="#53934d"/>
      <stop offset="1" stop-color="#0f6f52"/>
    </linearGradient>
    <linearGradient id="linear-gradient-3" x1="415.45" y1="370.64" x2="423.36" y2="370.64" gradientUnits="userSpaceOnUse">
      <stop offset="0" stop-color="#f26622"/>
      <stop offset="1" stop-color="#ed1c24"/>
    </linearGradient>
    <linearGradient id="linear-gradient-4" x1="297.22" y1="370.64" x2="305.13" y2="370.64" xlink:href="#linear-gradient"/>
    <linearGradient id="linear-gradient-5" x1="158.38" y1="193.48" x2="192.89" y2="193.48" xlink:href="#linear-gradient-3"/>
    <linearGradient id="linear-gradient-6" x1="212.02" y1="194.24" x2="246.53" y2="194.24" xlink:href="#linear-gradient-2"/>
    <linearGradient id="linear-gradient-7" x1="312.58" y1="285.63" x2="347.09" y2="285.63" xlink:href="#linear-gradient"/>
    <linearGradient id="linear-gradient-8" x1="365.75" y1="273.44" x2="400.26" y2="273.44" xlink:href="#linear-gradient-3"/>
    <linearGradient id="linear-gradient-9" x1="419.39" y1="264.7" x2="453.9" y2="264.7" xlink:href="#linear-gradient-2"/>
    <linearGradient id="linear-gradient-10" x1="725.9" y1="293.01" x2="760.41" y2="293.01" xlink:href="#linear-gradient"/>
    <linearGradient id="linear-gradient-11" x1="779.07" y1="288.13" x2="813.58" y2="288.13" xlink:href="#linear-gradient-3"/>
    <linearGradient id="linear-gradient-12" x1="832.71" y1="299.03" x2="867.23" y2="299.03" gradientUnits="userSpaceOnUse">
      <stop offset="0" stop-color="#53934d"/>
      <stop offset="1" stop-color="#0f6f52"/>
    </linearGradient>
    <linearGradient id="linear-gradient-13" x1="519" y1="250.03" x2="553.52" y2="250.03" xlink:href="#linear-gradient"/>
    <linearGradient id="linear-gradient-14" x1="572.18" y1="229.25" x2="606.69" y2="229.25" xlink:href="#linear-gradient-3"/>
    <linearGradient id="linear-gradient-15" x1="625.82" y1="235.63" x2="660.33" y2="235.63" xlink:href="#linear-gradient-2"/>
    <linearGradient id="linear-gradient-16" x1="105.21" y1="141.75" x2="139.71" y2="141.75" gradientUnits="userSpaceOnUse">
      <stop offset="0" stop-color="#3351a3"/>
      <stop offset="1" stop-color="#5b6ab1"/>
    </linearGradient>
    <linearGradient id="linear-gradient-17" x1="158.39" y1="82.2" x2="192.89" y2="82.2" gradientUnits="userSpaceOnUse">
      <stop offset="0" stop-color="#ed1c24"/>
      <stop offset="1" stop-color="#f26622"/>
    </linearGradient>
    <linearGradient id="linear-gradient-18" x1="365.75" y1="242.16" x2="400.26" y2="242.16" xlink:href="#linear-gradient-17"/>
    <linearGradient id="linear-gradient-19" x1="572.18" y1="153.82" x2="606.68" y2="153.82" xlink:href="#linear-gradient-17"/>
    <linearGradient id="linear-gradient-20" x1="779.08" y1="271.33" x2="813.58" y2="271.33" xlink:href="#linear-gradient-17"/>
    <linearGradient id="linear-gradient-21" x1="212.03" y1="83.47" x2="246.53" y2="83.47" gradientUnits="userSpaceOnUse">
      <stop offset="0" stop-color="#0f6f52"/>
      <stop offset="1" stop-color="#53934d"/>
    </linearGradient>
    <linearGradient id="linear-gradient-22" x1="419.39" y1="224.46" x2="453.9" y2="224.46" xlink:href="#linear-gradient-21"/>
    <linearGradient id="linear-gradient-23" x1="625.82" y1="166.36" x2="660.32" y2="166.36" xlink:href="#linear-gradient-21"/>
    <linearGradient id="linear-gradient-24" x1="832.72" y1="293.29" x2="867.22" y2="293.29" xlink:href="#linear-gradient-21"/>
    <linearGradient id="linear-gradient-25" x1="832.72" y1="304.93" x2="867.22" y2="304.93" xlink:href="#linear-gradient-12"/>
    <linearGradient id="linear-gradient-26" y1="304.15" x2="139.71" y2="304.15" xlink:href="#linear-gradient"/>
    <linearGradient id="linear-gradient-27" x1="158.39" y1="304.79" x2="192.89" y2="304.79" xlink:href="#linear-gradient-3"/>
    <linearGradient id="linear-gradient-28" x1="365.75" y1="304.79" x2="400.26" y2="304.79" xlink:href="#linear-gradient-3"/>
    <linearGradient id="linear-gradient-29" x1="572.18" y1="304.79" x2="606.68" y2="304.79" xlink:href="#linear-gradient-3"/>
    <linearGradient id="linear-gradient-30" x1="779.08" y1="304.79" x2="813.58" y2="304.79" xlink:href="#linear-gradient-3"/>
    <linearGradient id="linear-gradient-31" x1="212.03" y1="304.79" x2="246.53" y2="304.79" xlink:href="#linear-gradient-2"/>
    <linearGradient id="linear-gradient-32" x1="419.39" y1="304.79" x2="453.9" y2="304.79" xlink:href="#linear-gradient-2"/>
    <linearGradient id="linear-gradient-33" x1="625.82" y1="304.79" x2="660.32" y2="304.79" xlink:href="#linear-gradient-2"/>
    <linearGradient id="linear-gradient-34" x1="312.58" y1="266.48" x2="347.08" y2="266.48" xlink:href="#linear-gradient-16"/>
    <linearGradient id="linear-gradient-35" x1="312.58" y1="304.15" x2="347.08" y2="304.15" xlink:href="#linear-gradient"/>
    <linearGradient id="linear-gradient-36" x1="519.01" y1="195.12" x2="553.51" y2="195.12" xlink:href="#linear-gradient-16"/>
    <linearGradient id="linear-gradient-37" x1="519.01" y1="304.15" x2="553.51" y2="304.15" xlink:href="#linear-gradient"/>
    <linearGradient id="linear-gradient-38" x1="725.91" y1="281.13" x2="760.41" y2="281.13" xlink:href="#linear-gradient-16"/>
    <linearGradient id="linear-gradient-39" x1="725.91" y1="304.15" x2="760.41" y2="304.15" xlink:href="#linear-gradient"/>
  </defs>
  <g id="Layer_1-2" data-name="Layer 1">
    <path class="cls-18" d="m9.85,0h889.12c5.44,0,9.85,4.41,9.85,9.85v407.29H0V9.85C0,4.41,4.41,0,9.85,0Z"/>
    <g>
      <rect class="cls-36" x="105.21" y="141.63" width="34.51" height="163.27"/>
      <polyline class="cls-32" points="866.05 265.26 866.05 257.98 860.66 257.98"/>
      <polyline class="cls-32" points="724.06 265.26 724.06 257.98 729.46 257.98"/>
      <polyline class="cls-32" points="793.18 265.26 793.18 257.98 787.78 257.98"/>
      <polyline class="cls-32" points="797.17 265.26 797.17 257.98 802.57 257.98"/>
      <polyline class="cls-32" points="866.05 250.94 866.05 239.92 832.04 239.92"/>
      <polyline class="cls-32" points="724.06 250.94 724.06 239.92 764.64 239.92"/>
      <polyline class="cls-32" points="659.16 149.84 659.16 138.81 653.76 138.81"/>
      <polyline class="cls-32" points="517.17 149.84 517.17 138.81 522.56 138.81"/>
      <polyline class="cls-32" points="586.28 149.84 586.28 138.81 580.88 138.81"/>
      <polyline class="cls-32" points="590.28 149.84 590.28 138.81 595.67 138.81"/>
      <polyline class="cls-32" points="659.16 131.77 659.16 120.75 625.14 120.75"/>
      <polyline class="cls-32" points="517.17 131.77 517.17 120.75 557.74 120.75"/>
      <polyline class="cls-32" points="451.79 222.32 451.79 211.3 446.39 211.3"/>
      <polyline class="cls-32" points="309.8 222.32 309.8 211.3 315.2 211.3"/>
      <polyline class="cls-32" points="378.91 222.32 378.91 211.3 373.52 211.3"/>
      <polyline class="cls-32" points="382.91 222.32 382.91 211.3 388.31 211.3"/>
      <polyline class="cls-32" points="451.79 204.26 451.79 193.24 417.78 193.24"/>
      <polyline class="cls-32" points="309.8 204.26 309.8 193.24 350.37 193.24"/>
      <polyline class="cls-32" points="244.89 78.01 244.89 69.85 239.5 69.85"/>
      <polyline class="cls-32" points="102.9 78.01 102.9 69.85 108.3 69.85"/>
      <polyline class="cls-32" points="172.02 78.01 172.02 69.85 166.62 69.85"/>
      <polyline class="cls-32" points="176.01 78.01 176.01 69.85 181.41 69.85"/>
      <polyline class="cls-32" points="244.89 62.81 244.89 51.78 210.88 51.78"/>
      <polyline class="cls-32" points="102.9 62.81 102.9 51.78 143.48 51.78"/>
      <polyline class="cls-31" points="71.5 33.25 71.5 304.9 889.66 304.9"/>
      <text class="cls-7" transform="translate(273.75 407.27)"><tspan x="0" y="0">Note: Stillbirth was post-hoc analysis; and no spontaneous abortions occurred</tspan></text>
      <g>
        <rect class="cls-1" x="534.61" y="365.83" width="7.91" height="9.62"/>
        <rect class="cls-35" x="415.45" y="365.83" width="7.91" height="9.62"/>
        <rect class="cls-44" x="297.22" y="365.83" width="7.91" height="9.62"/>
        <text class="cls-3" transform="translate(312.76 374.65)"><tspan x="0" y="0">DTG+FTC/TAF</tspan></text>
        <text class="cls-3" transform="translate(428.94 374.65)"><tspan x="0" y="0">DTG+FTC/TDF</tspan></text>
        <text class="cls-3" transform="translate(547.64 374.65)"><tspan x="0" y="0">EFV/FTC/TDF</tspan></text>
      </g>
      <text class="cls-7" transform="translate(30.74 295.27) rotate(-90)"><tspan x="0" y="0">Proportion of women with adverse pregnancy outcome</tspan></text>
      <text class="cls-6" transform="translate(46.92 38.54)"><tspan x="0" y="0">40</tspan><tspan x="0" y="33.89">35</tspan><tspan x="0" y="67.78">30</tspan><tspan x="0" y="101.68">25</tspan><tspan x="0" y="135.57">20</tspan><tspan x="0" y="169.46">15</tspan><tspan x="0" y="203.35">10</tspan><tspan x="3.74" y="237.24">5</tspan><tspan x="3.74" y="271.14">0</tspan></text>
      <text class="cls-5" transform="translate(107.69 329.09)"><tspan x="0" y="0">Any Adverse pregnancy</tspan><tspan x="41.46" y="15.27">outcome</tspan></text>
      <text class="cls-5" transform="translate(336.06 329.09)"><tspan x="0" y="0">Preterm delivery</tspan></text>
      <text class="cls-5" transform="translate(518.85 329.09)"><tspan x="0" y="0">Small for gestational age</tspan></text>
      <text class="cls-5" transform="translate(772.39 329.09)"><tspan x="0" y="0">Stillbirth</tspan></text>
      <text class="cls-4" transform="translate(112.24 72.8)"><tspan x="0" y="0">p=0.0043</tspan></text>
      <text class="cls-4" transform="translate(158.28 54.39)"><tspan x="0" y="0">p=0.0047</tspan></text>
      <text class="cls-4" transform="translate(367.73 196.12)"><tspan x="0" y="0">p=0.023</tspan></text>
      <text class="cls-4" transform="translate(407.11 214.33)"><tspan x="0" y="0">p=0.38</tspan></text>
      <text class="cls-4" transform="translate(532.2 141.93)"><tspan x="0" y="0">p=0.12</tspan></text>
      <text class="cls-4" transform="translate(576.36 123.29)"><tspan x="0" y="0">p=0.28</tspan></text>
      <text class="cls-4" transform="translate(614.36 142.48)"><tspan x="0" y="0">p=0.63</tspan></text>
      <text class="cls-4" transform="translate(782.17 241.85)"><tspan x="0" y="0">p=0.26</tspan></text>
      <text class="cls-4" transform="translate(738.24 260.41)"><tspan x="0" y="0">p=0.46</tspan></text>
      <text class="cls-4" transform="translate(819.47 260.33)"><tspan x="0" y="0">p=0.067</tspan></text>
      <text class="cls-4" transform="translate(324.89 215.14)"><tspan x="0" y="0">p=0.16</tspan></text>
      <text class="cls-4" transform="translate(201.34 73.24)"><tspan x="0" y="0">p=0.97</tspan></text>
      <rect class="cls-27" x="158.38" y="82.06" width="34.51" height="222.84"/>
      <rect class="cls-15" x="212.02" y="83.58" width="34.51" height="221.32"/>
      <rect class="cls-29" x="312.58" y="266.36" width="34.51" height="38.54"/>
      <rect class="cls-45" x="365.75" y="241.98" width="34.51" height="62.92"/>
      <rect class="cls-33" x="419.39" y="224.51" width="34.51" height="80.39"/>
      <rect class="cls-21" x="725.9" y="281.13" width="34.51" height="23.76"/>
      <rect class="cls-19" x="779.07" y="271.35" width="34.51" height="33.54"/>
      <rect class="cls-46" x="832.71" y="293.17" width="34.51" height="11.73"/>
      <rect class="cls-47" x="519" y="195.16" width="34.51" height="109.73"/>
      <rect class="cls-12" x="572.18" y="153.6" width="34.51" height="151.3"/>
      <rect class="cls-9" x="625.82" y="166.37" width="34.51" height="138.53"/>
      <text class="cls-8" transform="translate(523.97 211.37)"><tspan x="0" y="0">16.3%</tspan></text>
      <text class="cls-8" transform="translate(427.29 241.51)"><tspan x="0" y="0">12.1%</tspan></text>
      <text class="cls-8" transform="translate(372.92 257.37)"><tspan x="0" y="0">9.4%</tspan></text>
      <text class="cls-8" transform="translate(319.17 280.49)"><tspan x="0" y="0">5.8%</tspan></text>
      <text class="cls-8" transform="translate(631.75 182.11)"><tspan x="0" y="0">20.5%</tspan></text>
      <text class="cls-8" transform="translate(734.59 298.66)"><tspan x="0" y="0">3.7%</tspan></text>
      <text class="cls-8" transform="translate(787.52 285.36)"><tspan x="0" y="0">5.2%</tspan></text>
      <text class="cls-8" transform="translate(218.58 105.35)"><tspan x="0" y="0">32.7%</tspan></text>
      <text class="cls-8" transform="translate(163 108.48)"><tspan x="0" y="0">32.9%</tspan></text>
      <text class="cls-8" transform="translate(109.94 156.75)"><tspan x="0" y="0">24.1%</tspan></text>
      <text class="cls-8" transform="translate(576.12 167.44)"><tspan x="0" y="0">22.5%</tspan></text>
      <ellipse class="cls-23" cx="122.46" cy="141.75" rx="17.25" ry="3.28"/>
      <ellipse class="cls-2" cx="175.64" cy="82.2" rx="17.25" ry="3.28"/>
      <ellipse class="cls-10" cx="383.01" cy="242.16" rx="17.25" ry="3.28"/>
      <ellipse class="cls-43" cx="589.43" cy="153.82" rx="17.25" ry="3.28"/>
      <ellipse class="cls-14" cx="796.33" cy="271.33" rx="17.25" ry="3.28"/>
      <ellipse class="cls-25" cx="229.28" cy="83.47" rx="17.25" ry="3.28"/>
      <ellipse class="cls-34" cx="436.65" cy="224.46" rx="17.25" ry="3.28"/>
      <ellipse class="cls-42" cx="643.07" cy="166.36" rx="17.25" ry="3.28"/>
      <ellipse class="cls-30" cx="849.97" cy="293.29" rx="17.25" ry="3.28"/>
      <ellipse class="cls-26" cx="849.97" cy="304.93" rx="17.25" ry="3.28"/>
      <ellipse class="cls-48" cx="122.46" cy="304.15" rx="17.25" ry="3.28"/>
      <ellipse class="cls-37" cx="175.64" cy="304.79" rx="17.25" ry="3.28"/>
      <ellipse class="cls-11" cx="383.01" cy="304.79" rx="17.25" ry="3.28"/>
      <ellipse class="cls-40" cx="589.43" cy="304.79" rx="17.25" ry="3.28"/>
      <ellipse class="cls-41" cx="796.33" cy="304.79" rx="17.25" ry="3.28"/>
      <ellipse class="cls-24" cx="229.28" cy="304.79" rx="17.25" ry="3.28"/>
      <ellipse class="cls-17" cx="436.65" cy="304.79" rx="17.25" ry="3.28"/>
      <ellipse class="cls-38" cx="643.07" cy="304.79" rx="17.25" ry="3.28"/>
      <ellipse class="cls-28" cx="329.83" cy="266.48" rx="17.25" ry="3.28"/>
      <ellipse class="cls-16" cx="329.83" cy="304.15" rx="17.25" ry="3.28"/>
      <ellipse class="cls-13" cx="536.26" cy="195.12" rx="17.25" ry="3.28"/>
      <ellipse class="cls-22" cx="536.26" cy="304.15" rx="17.25" ry="3.28"/>
      <ellipse class="cls-39" cx="743.16" cy="281.13" rx="17.25" ry="3.28"/>
      <ellipse class="cls-20" cx="743.16" cy="304.15" rx="17.25" ry="3.28"/>
      <text class="cls-8" transform="translate(840.36 305.82)"><tspan x="0" y="0">1.9%</tspan></text>
    </g>
  </g>
</svg>