<?xml version="1.0" encoding="UTF-8"?>
<svg id="Layer_2" data-name="Layer 2" xmlns="http://www.w3.org/2000/svg" xmlns:xlink="http://www.w3.org/1999/xlink" viewBox="0 0 416.89 216.71">
  <defs>
    <style>
      .cls-1 {
        fill: #e3e6e5;
      }

      .cls-1, .cls-2, .cls-3 {
        fill-rule: evenodd;
      }

      .cls-2 {
        fill: #283f94;
      }

      .cls-4 {
        fill: #231f20;
        font-family: ProximaNova-Medium, 'Proxima Nova';
        font-size: 21.82px;
        font-weight: 500;
      }

      .cls-5 {
        clip-path: url(#clippath-1);
      }

      .cls-6 {
        fill: #096a37;
      }

      .cls-7, .cls-3 {
        fill: #cb202f;
      }

      .cls-8 {
        fill: #414142;
      }

      .cls-9 {
        fill: #211e1f;
      }

      .cls-10 {
        clip-path: url(#clippath);
      }

      .cls-11 {
        fill: #3e4193;
      }

      .cls-12 {
        fill: none;
      }
    </style>
    <clipPath id="clippath">
      <rect class="cls-12" x="11.58" y="48.98" width="10.03" height="13.56"/>
    </clipPath>
    <clipPath id="clippath-1">
      <rect class="cls-12" x="11.58" y="48.98" width="10.03" height="13.56"/>
    </clipPath>
  </defs>
  <g id="Layer_1-2" data-name="Layer 1">
    <g>
      <g>
        <g>
          <path class="cls-6" d="m109.17,125.77c-.53-.89-.98-1.75-1.28-2.52-.33-.8-.47-1.45-.47-2.05,0-.77.21-1.36.65-1.84.42-.44.98-.68,1.66-.68.98,0,2.55.83,4.72,2.43,1.3.98,2.34,1.72,3.11,2.19,3.56,2.22,7.18,3.83,10.8,4.8,3.65,1.01,7.8,1.51,12.46,1.51,4.39,0,7.89-.77,10.47-2.28,2.58-1.48,3.89-3.5,3.89-5.96,0-2.25-1.19-4.21-3.56-5.87-2.34-1.66-7.18-3.71-14.44-6.17-1.22-.42-2.91-.98-5.1-1.69-6.79-2.25-11.12-3.97-12.99-5.22-2.61-1.72-4.51-3.62-5.69-5.64-1.22-2.05-1.81-4.33-1.81-6.85,0-4.63,1.87-8.42,5.66-11.36,3.77-2.94,8.66-4.39,14.68-4.39,2.31,0,4.69.21,7.09.56,2.4.39,3.65.59,3.74.59.65,0,1.19-.12,1.57-.39s.71-.71,1.04-1.36c.27-.59.62-1.04.98-1.33.36-.27.8-.42,1.33-.42.71,0,1.42.27,2.19.8.77.53,1.69,1.45,2.73,2.7l7,8.1c1.1,1.25,1.81,2.22,2.19,2.91.36.68.53,1.33.53,1.93,0,.68-.24,1.25-.74,1.72-.5.47-1.1.71-1.81.71-.95,0-2.61-.8-4.98-2.4-1.22-.8-2.22-1.42-2.94-1.87-2.43-1.45-4.72-2.52-6.91-3.23-2.16-.68-4.3-1.04-6.38-1.04-2.88,0-5.13.44-6.76,1.3s-2.46,2.05-2.46,3.56c0,2.4,4.15,4.69,12.43,6.91,3.08.83,5.49,1.48,7.27,2.02,8.04,2.37,13.82,5.34,17.32,8.84,3.5,3.53,5.25,8.1,5.25,13.73,0,5.99-2.37,10.77-7.15,14.35-4.75,3.56-11.21,5.34-19.37,5.34-4.15,0-8.42-.36-12.78-1.07-4.39-.74-6.67-1.1-6.88-1.1-.47,0-1.19.71-2.16,2.17-.95,1.42-1.96,2.14-3.08,2.14-.71,0-1.36-.24-1.96-.77-.59-.5-1.42-1.6-2.46-3.26l-6.58-10.56Z"/>
          <path class="cls-6" d="m205.02,101.63c-3.32,0-6.08,1.45-8.33,4.33-2.22,2.88-3.35,6.52-3.35,10.91,0,3.62.62,6.44,1.9,8.42,1.25,2.02,3,3,5.28,3,1.45,0,2.88-.33,4.27-1.01,1.39-.68,2.7-1.69,3.91-3,1.6-1.69,2.85-3.56,3.74-5.64.89-2.08,1.33-4.12,1.33-6.11,0-3.26-.8-5.9-2.4-7.92-1.6-1.99-3.71-3-6.35-3h0Zm-11,39.33c0,1.1.18,1.96.47,2.61.33.65.83,1.25,1.57,1.75.27.21.65.44,1.16.74,1.36.77,2.05,1.72,2.05,2.76,0,.89-.3,1.6-.89,2.11-.59.53-1.39.8-2.43.8h-16.22c-.98,0-1.78-.27-2.34-.8-.59-.5-.89-1.22-.89-2.11,0-1.04.68-1.99,2.05-2.76.5-.3.92-.53,1.19-.74.68-.47,1.19-1.04,1.48-1.69.3-.68.44-1.54.44-2.67v-30.25c0-1.16-.12-1.93-.42-2.31-.27-.39-.83-.74-1.66-1.04-.15-.06-.36-.15-.65-.27-1.72-.65-2.61-1.48-2.61-2.46,0-.59.36-1.22,1.07-1.84.71-.62,1.84-1.33,3.38-2.11l9.34-4.8c.53-.27.98-.44,1.3-.53.33-.12.65-.15,1.01-.15.56,0,.95.18,1.19.56.24.39.33,1.07.33,2.05v4.89c1.75-2.4,3.65-4.18,5.75-5.43,2.08-1.22,4.33-1.84,6.76-1.84,5.04,0,9.34,2.19,12.96,6.52,3.59,4.33,5.4,9.64,5.4,15.93,0,5.66-1.66,10.47-4.95,14.38-3.32,3.91-7.24,5.87-11.83,5.87-2.58,0-5.04-.59-7.33-1.81-2.31-1.19-4.54-3.05-6.67-5.52v10.14Z"/>
          <path class="cls-6" d="m244.38,116.52l11.66-4.06c.68-.21,1.19-.5,1.51-.83.36-.36.53-.77.56-1.25,0-2.31-.86-4.45-2.61-6.41-1.75-1.96-3.74-2.94-5.96-2.94-1.93,0-3.53.77-4.75,2.31-1.22,1.51-1.84,3.53-1.84,5.99,0,.83.12,1.81.33,2.91.21,1.13.59,2.55,1.1,4.27h0Zm1.48,4.45c.98,3.17,2.46,5.61,4.51,7.27,2.02,1.66,4.54,2.49,7.47,2.49,1.36,0,2.73-.18,4.12-.56,1.36-.39,2.64-.95,3.83-1.69.39-.27.98-.65,1.75-1.16,2.11-1.39,3.5-2.08,4.18-2.08.59,0,1.07.18,1.45.56.36.39.56.86.56,1.42,0,.65-.27,1.39-.77,2.19-.47.77-1.19,1.6-2.11,2.46-2.28,2.08-4.98,3.68-8.07,4.83-3.08,1.16-6.26,1.72-9.49,1.72-6.82,0-12.4-2.05-16.79-6.17-4.39-4.12-6.55-9.34-6.55-15.66,0-3.03.53-5.78,1.66-8.33,1.1-2.55,2.73-4.86,4.89-6.91,2.08-1.93,4.45-3.41,7.12-4.48,2.64-1.07,5.37-1.6,8.16-1.6,3.47,0,6.55.62,9.25,1.87,2.67,1.25,5.04,3.14,7.09,5.72,1.16,1.45,2.14,3,2.88,4.66.77,1.66,1.13,2.94,1.13,3.83,0,.36-.12.68-.39.89-.27.24-.98.53-2.14.95l-23.76,7.77Z"/>
          <path class="cls-7" d="m300.16,100.18c-2.28,0-4.15.89-5.55,2.7-1.42,1.78-2.11,4.18-2.11,7.15,0,2.76.68,4.98,2.05,6.67,1.36,1.66,3.14,2.52,5.37,2.52,2.46,0,4.33-.8,5.58-2.34,1.22-1.57,1.84-3.91,1.84-7s-.62-5.43-1.9-7.15c-1.28-1.69-3.03-2.55-5.28-2.55h0Zm-10.02,37.55c-.77.8-1.36,1.57-1.75,2.28s-.59,1.42-.59,2.11c0,1.39,1.13,2.43,3.35,3.08,2.19.68,5.69,1.01,10.44,1.01,3.91,0,6.73-.27,8.39-.8,1.69-.53,2.52-1.42,2.52-2.7,0-1.72-4.03-3.03-12.1-3.89-1.72-.15-3.03-.3-3.94-.39l-6.32-.71Zm-6.82-1.93c-2.14-.47-3.74-1.16-4.8-1.99-1.1-.86-1.63-1.9-1.63-3.08,0-1.51.71-3.05,2.14-4.66,1.42-1.57,3.53-3.17,6.32-4.77-2.19-1.54-3.77-3.14-4.75-4.8-.95-1.66-1.45-3.62-1.45-5.84,0-4.48,2.02-8.07,6.05-10.8,4-2.73,9.58-4.24,16.67-4.48,1.39-3.77,3.11-6.58,5.22-8.45,2.08-1.9,4.51-2.82,7.27-2.82,2.11,0,3.77.53,4.98,1.63,1.25,1.1,1.84,2.58,1.84,4.48,0,1.16-.42,2.14-1.25,2.94-.83.83-1.87,1.22-3.08,1.22-.68,0-1.63-.15-2.85-.5-1.22-.33-2.08-.5-2.58-.5-.89,0-1.66.21-2.34.65-.65.42-1.25,1.07-1.72,1.96,4.48,1.3,7.89,3.14,10.26,5.52,2.37,2.37,3.56,5.13,3.56,8.3,0,4.12-2.02,7.56-6.02,10.29-4.03,2.76-9.19,4.12-15.48,4.12-1.84,0-3.5-.09-5.01-.24-1.48-.15-2.85-.42-4.06-.74-.53.39-.92.77-1.16,1.1-.24.33-.36.65-.36.98,0,.74.5,1.3,1.45,1.69.95.36,2.88.68,5.81.98l10.32.92c7.15.65,12.07,1.84,14.83,3.53,2.76,1.69,4.12,4.27,4.12,7.77,0,4.03-2.02,7.06-6.08,9.08-4.06,2.05-10.08,3.05-18.12,3.05s-13.91-.8-18.24-2.4c-4.33-1.57-6.49-3.83-6.49-6.67,0-1.25.56-2.49,1.69-3.74,1.16-1.28,2.79-2.49,4.95-3.71h0Z"/>
          <path class="cls-7" d="m341.59,95.43c.47-.27.89-.47,1.25-.59.39-.12.71-.15,1.04-.15.56,0,.95.21,1.22.62.24.44.36,1.16.36,2.22v7.5c2.58-3.5,4.98-6.02,7.21-7.56,2.22-1.51,4.57-2.28,7.03-2.28,1.84,0,3.23.21,4.21.68.98.44,1.48,1.1,1.48,1.93,0,.44-.42,1.84-1.25,4.21-.71,2.02-1.3,3.71-1.75,5.07-.12.39-.27.92-.47,1.63-.77,2.49-1.63,3.74-2.55,3.74-.36,0-.68-.12-.98-.39-.3-.24-.71-.83-1.28-1.78-.92-1.33-1.72-2.22-2.37-2.67-.65-.44-1.42-.65-2.28-.65-2.25,0-3.97.8-5.16,2.37-1.16,1.6-1.75,3.91-1.75,6.97v10.23c0,1.13.15,1.99.44,2.64.3.65.77,1.25,1.45,1.72.27.21.65.44,1.13.71,1.42.86,2.14,1.81,2.14,2.88,0,.86-.3,1.57-.89,2.11-.56.53-1.36.8-2.37.8h-16.4c-1.07,0-1.9-.3-2.55-.83-.65-.53-.95-1.25-.95-2.17,0-1.13.77-2.11,2.34-2.94.53-.33.92-.56,1.19-.74.74-.47,1.28-1.07,1.57-1.78.33-.68.47-1.6.47-2.73v-15.66c0-1.07-.12-1.78-.36-2.14-.24-.39-.77-.71-1.6-.98-.12-.06-.24-.12-.36-.15-1.81-.68-2.73-1.51-2.73-2.52,0-.47.27-.95.74-1.42.5-.5,1.63-1.28,3.35-2.31l9.43-5.61Z"/>
          <path class="cls-7" d="m393.7,119.43c-.3-.92-.83-1.57-1.6-1.96-.77-.42-1.9-.59-3.32-.59-2.64,0-4.75.65-6.35,1.99-1.6,1.33-2.4,3.11-2.4,5.34,0,2.05.74,3.71,2.16,4.98,1.45,1.28,3.32,1.93,5.61,1.93s4.15-.44,5.52-1.36,2.05-2.11,2.05-3.62c-.03-.3-.06-.59-.12-.92-.03-.33-.12-.77-.27-1.3l-1.28-4.48Zm4.09,13.7c-2.76,1.75-5.49,3.05-8.19,3.94-2.7.86-5.49,1.3-8.33,1.3-4.39,0-7.98-1.16-10.74-3.41-2.73-2.25-4.09-5.16-4.09-8.66,0-4.6,1.93-8.22,5.81-10.88,3.89-2.64,9.19-3.97,15.93-3.97.83,0,1.48,0,1.93.03h1.19c-.86-3.29-1.93-5.55-3.2-6.76-1.3-1.25-3.2-1.84-5.69-1.84-2.11,0-4.3.71-6.58,2.14-2.28,1.42-3.65,2.14-4.12,2.14-.62,0-1.1-.21-1.45-.62-.36-.39-.53-.92-.53-1.57,0-2.19,1.75-4.33,5.25-6.47,3.47-2.14,7.44-3.2,11.92-3.2s7.95,1.13,10.56,3.41c2.64,2.31,4.77,6.14,6.47,11.51l4.3,13.58c.71,2.34,1.48,4.06,2.34,5.1.86,1.07,1.87,1.57,3.08,1.57.59,0,1.16-.21,1.69-.62.21-.15.33-.21.39-.21.33,0,.59.27.83.8.24.53.36,1.19.36,1.96,0,1.72-.8,3.08-2.4,4.09-1.6,1.01-3.77,1.51-6.49,1.51-2.14,0-4.03-.42-5.72-1.22-1.69-.77-3.17-2.02-4.48-3.65h0Z"/>
          <path class="cls-2" d="m0,139.03v2.7c.06.09.59,2.25.77,2.7.33.86.68,1.48,1.22,2.19,1.07,1.39,2.31,2.19,3.83,3.08,1.3.77,3.41,1.36,5.1,1.78.89.24,1.93.39,2.94.5.36.03,3.03.27,3.14.33h5.04s6.41-.59,7.09-.71c2.22-.39,4.51-.68,6.52-1.22,2.14-.53,4.18-.98,6.2-1.51,1.96-.5,4-1.19,5.93-1.81,3.83-1.28,7.62-2.76,11.15-4.33,1.78-.8,3.56-1.57,5.28-2.43,1.6-.8,3.59-1.72,5.1-2.64,1.63-1.01,3.29-1.87,4.95-2.88,1.63-1.01,3.11-1.96,4.69-3.03,1.45-.95,3.2-2.17,4.48-3.26,1.39-1.16,2.85-2.4,4.24-3.47,2.4-1.9,5.58-5.55,7.44-8.04,1.87-2.43,4.48-6.76,4.48-10.97,0-2.67-1.07-4.39-2.25-5.9-.65-.83-3.68-3.08-4.89-3.17l.3,1.66-.03.18c0,4.77-7.86,11.45-10.97,13.76-4.83,3.56-9.76,6.55-15.33,9.34-5.61,2.82-11.18,5.07-17.53,7.18-5.34,1.78-13.73,4-20.64,4h-1.51c-4.51,0-10.08-1.39-10.08-5.72v-.42c0-4.8,7.83-9.64,11.18-11.69,2.31-1.45,4.83-2.82,7.35-4.09,1.28-.62,2.46-1.28,3.77-1.93.74-.36,3.41-1.51,3.86-1.87-.62.06-5.49,2.4-6.52,2.82-2.19.89-4.33,2.11-6.44,2.91-1.9.74-4.27,2.17-6.2,3.11-1.87.95-4.18,2.25-5.87,3.35-3.77,2.49-7.59,4.83-10.74,7.95-1.6,1.63-3.03,3.05-4.33,5.01-.59.89-1.22,1.9-1.63,2.97-.24.59-.44,1.13-.62,1.72-.15.42-.27,1.57-.44,1.84h0Z"/>
          <path class="cls-3" d="m128.42,54.42v-.09c-2.11,0-4.18.5-6.14.56-1.42.06-4.27.68-5.75.98-3.65.74-7.47,1.63-10.74,2.73-6.88,2.31-13.05,4.75-18.8,8.16-5.9,3.53-10.59,6.94-15.3,11.66-2.31,2.31-4.3,4.6-6.49,6.97-.71.83-5.78,7.03-5.93,7.59h-.18c-.36-1.36-5.96-4.89-7.53-5.66-2.88-1.42-5.9-2.97-9.08-4.09-3.2-1.13-6.58-2.28-10.2-3-3.41-.68-7.74-1.51-11.74-1.51l-4.03-.03-.77.09c.5.44,5.61,2.79,6.64,3.29,2.19,1.1,4.3,2.31,6.49,3.41,4.27,2.11,8.45,4.98,12.1,7.74,3.11,2.31,6.64,7.59,8.9,10.94,1.33,1.99,2.46,4.09,3.74,6.17.47.77,3.38,6.32,3.56,6.44.12-.09,5.9-8.81,6.73-9.91,2.46-3.23,4.75-6.32,7.24-9.49,4.92-6.23,10.26-12.01,16.13-17.29,11.45-10.32,26.45-18.6,41.16-25.65h0Z"/>
          <path class="cls-3" d="m59.76,49.11h-3.11c-.15.09-2.02.42-2.46.56-.86.3-1.45.53-2.22.89-1.39.71-2.52,1.6-3.56,2.64-1.69,1.69-3.86,5.28-3.86,8.6v2.11c0,3.32,2.37,6.97,4.09,8.66,1.84,1.81,5.43,3.86,9.02,3.86h1.28c3.59,0,7.12-2.22,8.96-4.06,1.9-1.87,3.97-5.43,3.97-9.13v-.92c0-3.53-1.93-7.12-3.71-8.9-1.13-1.1-2.08-1.99-3.59-2.73-.8-.42-1.3-.62-2.22-.95-.42-.12-2.49-.56-2.58-.62h0Z"/>
          <polygon class="cls-9" points="405.53 98.93 405.53 93.95 403.66 93.95 403.66 93.27 408.14 93.27 408.14 93.95 406.27 93.95 406.27 98.93 405.53 98.93"/>
          <path class="cls-9" d="m408.91,98.93v-5.66h1.13l1.33,4c.12.39.21.65.27.83.06-.21.15-.5.3-.89l1.36-3.94h1.01v5.66h-.74v-4.75l-1.63,4.75h-.68l-1.63-4.83v4.83h-.71Z"/>
          <path class="cls-9" d="m5.58,168.52c.4,0,.71-.04.95-.12.44-.16.79-.44,1.07-.87.2-.32.36-.75.48-1.31.04-.32.08-.6.08-.87,0-1.07-.2-1.91-.6-2.46-.44-.6-1.07-.87-1.99-.87h-2.03v6.51h2.03Zm-3.18-7.51h3.42c1.15,0,2.03.4,2.66,1.23.6.75.87,1.71.87,2.9,0,.87-.16,1.71-.52,2.42-.6,1.31-1.59,1.95-3.06,1.95h-3.38v-8.5Z"/>
          <path class="cls-9" d="m14.63,168.04c.24-.52.4-1.11.4-1.75,0-.56-.12-1.03-.28-1.39-.32-.6-.79-.87-1.51-.87-.64,0-1.11.24-1.39.75-.28.48-.44,1.07-.44,1.75s.16,1.19.44,1.63c.28.48.75.68,1.39.68.68,0,1.15-.28,1.39-.79h0Zm.64-4.13c.56.56.83,1.35.83,2.38s-.24,1.83-.71,2.46c-.48.64-1.23.99-2.26.99-.83,0-1.51-.32-2.03-.87-.48-.6-.75-1.35-.75-2.34s.28-1.87.79-2.46c.56-.64,1.23-.95,2.14-.95.79,0,1.47.28,1.99.79h0Z"/>
          <rect class="cls-9" x="17.41" y="161.01" width="1.03" height="8.5"/>
          <path class="cls-9" d="m21.07,163.31v4.13c0,.32.04.56.16.75.16.36.52.56.99.56.71,0,1.19-.32,1.47-.95.12-.36.2-.83.2-1.43v-3.06h1.03v6.2h-.99l.04-.91c-.16.24-.32.44-.52.6-.4.32-.87.48-1.43.48-.87,0-1.43-.28-1.75-.87-.2-.32-.28-.75-.28-1.27v-4.21h1.07Z"/>
          <path class="cls-9" d="m26.83,161.56h1.07v1.75h.99v.83h-.99v4.05c0,.24.08.36.2.44.08.04.24.08.44.08h.16s.12,0,.2-.04v.83c-.12.04-.24.08-.4.08-.12,0-.24.04-.4.04-.48,0-.83-.12-.99-.4-.2-.24-.28-.56-.28-.95v-4.13h-.83v-.83h.83v-1.75Z"/>
          <path class="cls-9" d="m34.14,165.89c-.04-.44-.12-.79-.28-1.07-.28-.48-.75-.75-1.43-.75-.48,0-.87.2-1.19.52-.32.36-.52.79-.52,1.31h3.42Zm-.36-2.42c.4.2.71.48.91.79.24.32.36.68.44,1.11.04.28.08.75.08,1.35h-4.53c.04.64.2,1.15.48,1.55.24.36.68.56,1.27.56.52,0,.95-.16,1.27-.56.2-.2.32-.44.4-.72h1.03c-.04.24-.12.48-.28.75s-.32.52-.52.72c-.32.28-.68.52-1.15.6-.24.08-.56.12-.83.12-.79,0-1.43-.28-1.99-.87-.52-.56-.79-1.35-.79-2.34s.28-1.83.79-2.42c.56-.64,1.27-.95,2.14-.95.44,0,.83.12,1.27.32h0Z"/>
          <path class="cls-9" d="m40.09,164.66c-.28-.36-.71-.56-1.19-.56-.71,0-1.23.36-1.51,1.03-.12.36-.2.87-.2,1.47,0,.68.16,1.23.44,1.59.28.36.64.56,1.11.56.75,0,1.27-.36,1.59-1.03.16-.4.24-.83.24-1.35,0-.75-.16-1.31-.48-1.71h0Zm-.12-1.11c.2.12.4.32.6.6v-.79h.99v5.64c0,.79-.12,1.43-.36,1.87-.44.87-1.23,1.27-2.46,1.27-.64,0-1.23-.12-1.67-.44-.44-.32-.71-.75-.75-1.39h1.07c.04.28.12.48.28.64.24.24.6.36,1.11.36.79,0,1.31-.32,1.55-.87.16-.32.24-.91.2-1.79-.2.32-.44.56-.75.72-.28.16-.68.24-1.15.24-.68,0-1.23-.24-1.75-.72-.52-.48-.75-1.27-.75-2.38,0-1.03.24-1.83.75-2.42.52-.6,1.11-.87,1.83-.87.52,0,.91.12,1.27.36h0Z"/>
          <path class="cls-9" d="m43.15,163.31h.99v1.07c.08-.2.28-.48.6-.75.32-.32.71-.48,1.11-.48h.08c.08.04.16.04.24.04v1.11s-.12-.04-.16-.04h-.16c-.52,0-.95.16-1.23.52-.28.32-.4.72-.4,1.15v3.58h-1.07v-6.2Z"/>
          <path class="cls-9" d="m48.24,168.59c.2.16.48.24.75.24.4,0,.75-.08,1.07-.24.6-.28.87-.75.87-1.39v-.83c-.12.08-.28.12-.48.2-.2.04-.4.08-.6.12l-.64.08c-.4.04-.68.12-.83.24-.36.16-.52.48-.52.87,0,.28.12.52.36.72h0Zm2.18-2.82c.24-.04.4-.16.48-.32.04-.08.08-.24.08-.4,0-.36-.12-.64-.4-.79-.24-.16-.6-.24-1.07-.24-.56,0-.91.16-1.15.44-.12.16-.2.44-.24.75h-.99c.04-.79.28-1.31.75-1.63.48-.28,1.03-.44,1.67-.44.71,0,1.31.16,1.75.44.48.28.68.68.68,1.27v3.58c0,.12.04.2.08.28s.16.08.28.08h.16c.08,0,.12,0,.2-.04v.79c-.16.04-.28.08-.4.08-.08,0-.2.04-.32.04-.36,0-.64-.16-.79-.4-.08-.16-.16-.32-.2-.6-.2.28-.52.56-.91.75-.4.2-.83.28-1.31.28-.56,0-1.03-.16-1.39-.52-.4-.36-.56-.79-.56-1.31,0-.56.16-1.03.52-1.31.4-.32.83-.52,1.43-.6l1.67-.2Z"/>
          <polygon class="cls-9" points="54.2 163.31 55.86 168.36 57.61 163.31 58.72 163.31 56.42 169.51 55.31 169.51 53 163.31 54.2 163.31"/>
          <path class="cls-9" d="m59.64,163.35h1.07v6.16h-1.07v-6.16Zm0-2.34h1.07v1.15h-1.07v-1.15Z"/>
          <path class="cls-9" d="m62.3,163.31h.99v1.07c.08-.2.28-.48.6-.75.32-.32.68-.48,1.11-.48h.08s.12.04.24.04v1.11s-.12-.04-.16-.04h-.16c-.56,0-.95.16-1.23.52-.28.32-.44.72-.44,1.15v3.58h-1.03v-6.2Z"/>
          <path class="cls-9" d="m70.24,167.4c.04.6.32.99.83,1.23.24.12.52.16.83.16.64,0,1.07-.2,1.39-.6.28-.36.44-.79.44-1.31,0-.56-.16-.99-.52-1.31-.36-.32-.79-.48-1.27-.48-.36,0-.68.04-.95.2-.24.12-.48.32-.64.56l-.91-.04.64-4.45h4.29v.99h-3.5l-.36,2.3c.2-.16.36-.24.56-.32.28-.12.64-.2,1.07-.2.75,0,1.39.24,1.91.75.56.48.79,1.11.79,1.87s-.24,1.47-.71,2.07c-.48.6-1.27.87-2.34.87-.68,0-1.27-.16-1.79-.56-.52-.4-.79-.95-.87-1.75h1.11Z"/>
          <path class="cls-9" d="m79.86,168.08c.32-.48.48-1.39.48-2.7,0-.91-.12-1.71-.36-2.3-.2-.64-.68-.91-1.35-.91-.6,0-1.03.28-1.35.87-.28.56-.4,1.43-.4,2.54,0,.83.08,1.51.28,2.03.28.79.75,1.19,1.43,1.19.52,0,.95-.24,1.27-.72h0Zm1.07-5.52c.36.68.56,1.59.56,2.78s-.2,2.07-.52,2.82c-.48,1.07-1.27,1.59-2.38,1.59-.99,0-1.75-.44-2.22-1.31-.44-.72-.64-1.67-.64-2.9,0-.95.12-1.75.4-2.42.44-1.27,1.27-1.91,2.46-1.91,1.07,0,1.83.44,2.34,1.35h0Z"/>
          <path class="cls-9" d="m86.05,163.31h1.03v.87c.24-.32.44-.52.64-.68.36-.24.75-.36,1.19-.36.48,0,.87.12,1.19.36.16.16.32.36.48.64.24-.32.48-.6.79-.75s.68-.24,1.07-.24c.83,0,1.39.32,1.71.91.16.32.24.75.24,1.31v4.13h-1.07v-4.29c0-.44-.12-.72-.32-.87-.2-.16-.48-.24-.75-.24-.44,0-.75.16-1.07.44-.28.28-.44.72-.44,1.35v3.61h-1.07v-4.05c0-.4-.04-.72-.16-.91-.16-.28-.44-.44-.87-.44-.4,0-.75.16-1.07.48-.32.28-.48.83-.48,1.63v3.3h-1.03v-6.2Z"/>
          <path class="cls-9" d="m99.52,164.66c-.32-.36-.71-.56-1.23-.56-.71,0-1.23.36-1.47,1.03-.16.36-.24.87-.24,1.47,0,.68.16,1.23.44,1.59.28.36.68.56,1.15.56.71,0,1.27-.36,1.55-1.03.2-.4.28-.83.28-1.35,0-.75-.16-1.31-.48-1.71h0Zm-.12-1.11c.16.12.4.32.6.6v-.79h.95v5.64c0,.79-.12,1.43-.36,1.87-.44.87-1.23,1.27-2.42,1.27-.68,0-1.23-.12-1.71-.44-.44-.32-.71-.75-.75-1.39h1.07c.04.28.16.48.28.64.24.24.64.36,1.11.36.79,0,1.31-.32,1.59-.87.12-.32.2-.91.2-1.79-.24.32-.48.56-.75.72-.32.16-.68.24-1.15.24-.68,0-1.27-.24-1.79-.72-.48-.48-.75-1.27-.75-2.38,0-1.03.28-1.83.75-2.42.52-.6,1.15-.87,1.87-.87.48,0,.87.12,1.27.36h0Z"/>
          <polygon class="cls-9" points="104.48 161.01 105.36 161.01 102.66 169.51 101.78 169.51 104.48 161.01"/>
          <polygon class="cls-9" points="106.07 161.01 112.27 161.01 112.27 162.04 107.22 162.04 107.22 164.62 111.87 164.62 111.87 165.62 107.22 165.62 107.22 168.52 112.35 168.52 112.35 169.51 106.07 169.51 106.07 161.01"/>
          <path class="cls-9" d="m113.74,163.31h1.03v.87c.28-.32.48-.52.68-.68.36-.24.75-.36,1.19-.36.48,0,.87.12,1.19.36.16.16.32.36.48.64.2-.32.48-.6.79-.75s.68-.24,1.07-.24c.83,0,1.39.32,1.71.91.16.32.24.75.24,1.31v4.13h-1.11v-4.29c0-.44-.08-.72-.28-.87-.24-.16-.48-.24-.75-.24-.44,0-.79.16-1.07.44-.32.28-.44.72-.44,1.35v3.61h-1.07v-4.05c0-.4-.04-.72-.16-.91-.16-.28-.44-.44-.87-.44-.4,0-.75.16-1.07.48-.32.28-.48.83-.48,1.63v3.3h-1.07v-6.2Z"/>
          <path class="cls-9" d="m123.87,161.56h1.03v1.75h.99v.83h-.99v4.05c0,.24.08.36.24.44.08.04.2.08.4.08h.16c.08,0,.12,0,.2-.04v.83c-.12.04-.24.08-.36.08s-.28.04-.44.04c-.48,0-.79-.12-.99-.4-.16-.24-.24-.56-.24-.95v-4.13h-.87v-.83h.87v-1.75Z"/>
          <path class="cls-9" d="m126.96,163.31h.99v1.07c.08-.2.28-.48.6-.75.32-.32.68-.48,1.11-.48h.08s.12.04.24.04v1.11s-.12-.04-.16-.04h-.16c-.56,0-.95.16-1.23.52-.28.32-.44.72-.44,1.15v3.58h-1.03v-6.2Z"/>
          <path class="cls-9" d="m130.9,163.35h1.07v6.16h-1.07v-6.16Zm0-2.34h1.07v1.15h-1.07v-1.15Z"/>
          <path class="cls-9" d="m137.65,163.63c.44.36.68.91.79,1.75h-1.03c-.04-.36-.2-.68-.44-.95-.2-.24-.56-.36-1.03-.36-.68,0-1.15.32-1.43.95-.2.44-.28.95-.28,1.59,0,.6.12,1.11.4,1.55.24.44.68.64,1.23.64.44,0,.79-.12,1.03-.4.24-.28.44-.64.52-1.07h1.03c-.12.83-.44,1.43-.87,1.79-.48.4-1.07.6-1.79.6-.79,0-1.47-.32-1.95-.91-.48-.6-.71-1.31-.71-2.22,0-1.07.24-1.95.79-2.54.52-.6,1.19-.91,2.03-.91.68,0,1.27.2,1.71.52h0Z"/>
          <path class="cls-9" d="m139.48,163.35h1.07v6.16h-1.07v-6.16Zm0-2.34h1.07v1.15h-1.07v-1.15Z"/>
          <path class="cls-9" d="m142.34,161.56h1.03v1.75h.99v.83h-.99v4.05c0,.24.08.36.24.44.08.04.2.08.4.08h.16c.08,0,.12,0,.2-.04v.83c-.12.04-.24.08-.36.08-.16,0-.28.04-.44.04-.48,0-.79-.12-.99-.4-.16-.24-.24-.56-.24-.95v-4.13h-.87v-.83h.87v-1.75Z"/>
          <path class="cls-9" d="m146.55,168.59c.2.16.48.24.79.24.36,0,.71-.08,1.03-.24.6-.28.87-.75.87-1.39v-.83c-.12.08-.28.12-.48.2-.2.04-.4.08-.6.12l-.64.08c-.36.04-.64.12-.83.24-.32.16-.48.48-.48.87,0,.28.08.52.32.72h0Zm2.18-2.82c.24-.04.4-.16.48-.32.08-.08.08-.24.08-.4,0-.36-.12-.64-.36-.79-.28-.16-.64-.24-1.11-.24-.52,0-.91.16-1.15.44-.12.16-.2.44-.24.75h-.99c.04-.79.28-1.31.75-1.63.48-.28,1.03-.44,1.67-.44.71,0,1.31.16,1.79.44.44.28.68.68.68,1.27v3.58c0,.12,0,.2.04.28s.16.08.28.08h.16c.08,0,.12,0,.2-.04v.79c-.16.04-.28.08-.36.08s-.2.04-.36.04c-.36,0-.64-.16-.79-.4-.08-.16-.12-.32-.16-.6-.24.28-.52.56-.91.75-.4.2-.83.28-1.35.28-.56,0-1.03-.16-1.39-.52-.36-.36-.56-.79-.56-1.31,0-.56.2-1.03.56-1.31.36-.32.83-.52,1.39-.6l1.67-.2Z"/>
          <path class="cls-9" d="m155.92,168.12c.28-.44.44-1.03.44-1.79,0-.64-.16-1.19-.44-1.63-.28-.4-.71-.64-1.23-.64-.48,0-.91.2-1.27.56-.36.32-.52.91-.52,1.71,0,.6.04,1.07.2,1.43.28.68.79,1.03,1.55,1.03.56,0,.99-.24,1.27-.68h0Zm-3.97-7.15h.99v3.1c.24-.32.52-.52.83-.68s.64-.24,1.03-.24c.75,0,1.39.24,1.87.79.52.52.75,1.31.75,2.34s-.24,1.79-.71,2.46c-.48.64-1.15.95-1.99.95-.48,0-.87-.12-1.23-.32-.16-.16-.4-.36-.6-.68v.79h-.95v-8.54Z"/>
          <path class="cls-9" d="m158.62,163.35h1.07v6.16h-1.07v-6.16Zm0-2.34h1.07v1.15h-1.07v-1.15Z"/>
          <path class="cls-9" d="m161.24,163.31h.99v.87c.32-.36.64-.64.95-.79s.68-.24,1.07-.24c.91,0,1.51.32,1.79.95.2.32.28.79.28,1.43v3.97h-1.07v-3.89c0-.4-.04-.72-.16-.91-.2-.4-.52-.6-1.03-.6-.24,0-.44.04-.6.08-.28.08-.52.24-.75.52-.16.2-.28.4-.32.64-.08.2-.08.52-.08.91v3.26h-1.07v-6.2Z"/>
          <path class="cls-9" d="m172.09,165.89c-.04-.44-.16-.79-.32-1.07-.28-.48-.75-.75-1.39-.75-.48,0-.87.2-1.23.52-.32.36-.48.79-.48,1.31h3.42Zm-.4-2.42c.44.2.71.48.95.79.2.32.36.68.4,1.11.08.28.12.75.12,1.35h-4.53c0,.64.16,1.15.44,1.55.28.36.71.56,1.27.56s.99-.16,1.31-.56c.16-.2.32-.44.4-.72h.99c0,.24-.08.48-.24.75-.16.28-.32.52-.52.72-.32.28-.71.52-1.19.6-.24.08-.52.12-.83.12-.75,0-1.43-.28-1.95-.87-.56-.56-.79-1.35-.79-2.34s.28-1.83.79-2.42c.56-.64,1.23-.95,2.11-.95.44,0,.87.12,1.27.32h0Z"/>
          <path class="cls-9" d="m177.81,167.64c.28-.52.75-.99,1.51-1.43l1.11-.64c.52-.32.83-.56,1.07-.75.32-.32.48-.68.48-1.11,0-.48-.16-.87-.44-1.15-.32-.28-.68-.44-1.19-.44-.71,0-1.19.28-1.47.83-.16.28-.24.68-.24,1.19h-1.07c0-.72.16-1.31.4-1.75.48-.83,1.27-1.23,2.42-1.23.91,0,1.63.28,2.07.79.44.52.68,1.07.68,1.71,0,.68-.24,1.23-.71,1.71-.28.28-.75.6-1.47.99l-.79.44c-.36.2-.68.4-.87.6-.4.36-.64.72-.75,1.11h4.57v.99h-5.72c.04-.72.2-1.35.44-1.87h0Z"/>
          <path class="cls-9" d="m188.1,168.08c.32-.48.48-1.39.48-2.7,0-.91-.12-1.71-.36-2.3-.2-.64-.68-.91-1.35-.91-.6,0-1.03.28-1.35.87-.28.56-.4,1.43-.4,2.54,0,.83.08,1.51.24,2.03.32.79.79,1.19,1.43,1.19.56,0,.99-.24,1.31-.72h0Zm1.07-5.52c.36.68.56,1.59.56,2.78s-.2,2.07-.52,2.82c-.48,1.07-1.27,1.59-2.38,1.59-.99,0-1.75-.44-2.22-1.31-.44-.72-.64-1.67-.64-2.9,0-.95.12-1.75.4-2.42.44-1.27,1.27-1.91,2.46-1.91,1.07,0,1.83.44,2.34,1.35h0Z"/>
          <path class="cls-9" d="m194.69,168.08c.32-.48.52-1.39.52-2.7,0-.91-.12-1.71-.36-2.3-.24-.64-.68-.91-1.35-.91-.64,0-1.07.28-1.35.87-.32.56-.44,1.43-.44,2.54,0,.83.08,1.51.28,2.03.28.79.75,1.19,1.43,1.19.52,0,.95-.24,1.27-.72h0Zm1.07-5.52c.36.68.56,1.59.56,2.78s-.16,2.07-.52,2.82c-.48,1.07-1.27,1.59-2.38,1.59-.99,0-1.75-.44-2.22-1.31-.4-.72-.6-1.67-.6-2.9,0-.95.12-1.75.36-2.42.44-1.27,1.27-1.91,2.46-1.91,1.07,0,1.87.44,2.34,1.35h0Z"/>
          <path class="cls-9" d="m200.89,163.31h1.03v.87c.24-.32.48-.52.68-.68.32-.24.71-.36,1.15-.36.52,0,.91.12,1.19.36.2.16.32.36.48.64.24-.32.52-.6.83-.75.28-.16.64-.24,1.03-.24.83,0,1.39.32,1.71.91.16.32.24.75.24,1.31v4.13h-1.07v-4.29c0-.44-.12-.72-.32-.87s-.44-.24-.75-.24c-.4,0-.75.16-1.07.44-.28.28-.44.72-.44,1.35v3.61h-1.03v-4.05c0-.4-.08-.72-.16-.91-.16-.28-.48-.44-.91-.44-.4,0-.75.16-1.07.48-.32.28-.48.83-.48,1.63v3.3h-1.03v-6.2Z"/>
          <path class="cls-9" d="m214.35,164.66c-.32-.36-.71-.56-1.19-.56-.75,0-1.23.36-1.51,1.03-.16.36-.2.87-.2,1.47,0,.68.12,1.23.4,1.59.28.36.68.56,1.15.56.75,0,1.27-.36,1.59-1.03.16-.4.24-.83.24-1.35,0-.75-.16-1.31-.48-1.71h0Zm-.12-1.11c.2.12.4.32.6.6v-.79h.95v5.64c0,.79-.12,1.43-.36,1.87-.4.87-1.23,1.27-2.42,1.27-.68,0-1.23-.12-1.67-.44-.48-.32-.71-.75-.79-1.39h1.07c.04.28.16.48.32.64.24.24.6.36,1.07.36.83,0,1.35-.32,1.59-.87.16-.32.2-.91.2-1.79-.2.32-.48.56-.75.72-.28.16-.68.24-1.15.24-.68,0-1.27-.24-1.75-.72-.52-.48-.75-1.27-.75-2.38,0-1.03.24-1.83.75-2.42.48-.6,1.11-.87,1.83-.87.48,0,.91.12,1.27.36h0Z"/>
          <polygon class="cls-9" points="219.32 161.01 220.19 161.01 217.49 169.51 216.62 169.51 219.32 161.01"/>
          <polygon class="cls-9" points="227.02 161.01 227.02 162 224.12 162 224.12 169.51 222.97 169.51 222.97 162 220.11 162 220.11 161.01 227.02 161.01"/>
          <path class="cls-9" d="m232.15,165.89c-.04-.44-.16-.79-.32-1.07-.28-.48-.75-.75-1.39-.75-.48,0-.87.2-1.19.52-.36.36-.52.79-.52,1.31h3.42Zm-.4-2.42c.44.2.75.48.95.79.2.32.36.68.44,1.11.04.28.08.75.08,1.35h-4.53c.04.64.16,1.15.44,1.55.28.36.71.56,1.31.56.52,0,.95-.16,1.27-.56.2-.2.32-.44.4-.72h1.03c-.04.24-.12.48-.28.75s-.32.52-.52.72c-.32.28-.71.52-1.15.6-.28.08-.56.12-.87.12-.75,0-1.39-.28-1.95-.87-.52-.56-.79-1.35-.79-2.34s.28-1.83.79-2.42c.56-.64,1.27-.95,2.11-.95.44,0,.87.12,1.27.32h0Z"/>
          <path class="cls-9" d="m234.53,163.31h.99v.87c.28-.36.6-.64.95-.79.32-.16.68-.24,1.07-.24.87,0,1.47.32,1.79.95.16.32.28.79.28,1.43v3.97h-1.07v-3.89c0-.4-.08-.72-.16-.91-.2-.4-.56-.6-1.03-.6-.24,0-.44.04-.6.08-.28.08-.56.24-.75.52-.16.2-.28.4-.36.64-.04.2-.08.52-.08.91v3.26h-1.03v-6.2Z"/>
          <path class="cls-9" d="m244.98,168.04c.28-.52.4-1.11.4-1.75,0-.56-.08-1.03-.28-1.39-.28-.6-.79-.87-1.51-.87-.64,0-1.07.24-1.35.75-.32.48-.44,1.07-.44,1.75s.12,1.19.44,1.63c.28.48.71.68,1.35.68.68,0,1.15-.28,1.39-.79h0Zm.68-4.13c.52.56.79,1.35.79,2.38s-.24,1.83-.71,2.46c-.48.64-1.23.99-2.26.99-.83,0-1.51-.32-1.99-.87-.52-.6-.75-1.35-.75-2.34s.24-1.87.79-2.46c.52-.64,1.23-.95,2.11-.95.79,0,1.47.28,2.03.79h0Z"/>
          <path class="cls-9" d="m248.23,161.41c.24-.36.71-.52,1.39-.52h.44v.95h-.36c-.32,0-.52.08-.56.24-.08.16-.12.6-.12,1.27h1.03v.79h-1.03v5.36h-1.03v-5.36h-.87v-.79h.87v-.99c.04-.44.12-.75.24-.95h0Z"/>
          <path class="cls-9" d="m254.91,168.04c.24-.52.36-1.11.36-1.75,0-.56-.08-1.03-.28-1.39-.28-.6-.79-.87-1.47-.87-.64,0-1.11.24-1.39.75-.28.48-.44,1.07-.44,1.75s.16,1.19.44,1.63c.28.48.75.68,1.35.68.68,0,1.15-.28,1.43-.79h0Zm.64-4.13c.56.56.83,1.35.83,2.38s-.24,1.83-.75,2.46c-.48.64-1.23.99-2.22.99-.87,0-1.55-.32-2.03-.87-.52-.6-.75-1.35-.75-2.34s.28-1.87.79-2.46c.52-.64,1.23-.95,2.11-.95.79,0,1.47.28,2.03.79h0Z"/>
          <polygon class="cls-9" points="258.16 163.31 259.83 168.36 261.54 163.31 262.69 163.31 260.35 169.51 259.24 169.51 256.93 163.31 258.16 163.31"/>
          <path class="cls-9" d="m263.57,163.35h1.07v6.16h-1.07v-6.16Zm0-2.34h1.07v1.15h-1.07v-1.15Z"/>
          <path class="cls-9" d="m266.27,163.31h.99v1.07c.08-.2.28-.48.6-.75.32-.32.68-.48,1.07-.48h.12s.12.04.24.04v1.11c-.08-.04-.12-.04-.2-.04h-.16c-.52,0-.91.16-1.19.52-.32.32-.44.72-.44,1.15v3.58h-1.03v-6.2Z"/>
          <path class="cls-9" d="m278.03,166.01l-1.31-3.73-1.39,3.73h2.7Zm-1.91-5.01h1.27l3.1,8.5h-1.27l-.87-2.54h-3.34l-.91,2.54h-1.19l3.22-8.5Z"/>
          <rect class="cls-9" x="281.44" y="161.01" width="1.03" height="8.5"/>
          <path class="cls-9" d="m285.18,168.59c.2.16.48.24.75.24.4,0,.75-.08,1.07-.24.6-.28.87-.75.87-1.39v-.83c-.12.08-.28.12-.48.2-.2.04-.4.08-.6.12l-.64.08c-.36.04-.68.12-.83.24-.32.16-.52.48-.52.87,0,.28.12.52.36.72h0Zm2.18-2.82c.24-.04.4-.16.48-.32.04-.08.08-.24.08-.4,0-.36-.12-.64-.4-.79-.24-.16-.6-.24-1.07-.24-.56,0-.91.16-1.15.44-.12.16-.2.44-.24.75h-.99c.04-.79.28-1.31.75-1.63.48-.28,1.03-.44,1.67-.44.71,0,1.31.16,1.79.44.44.28.68.68.68,1.27v3.58c0,.12,0,.2.04.28.04.08.16.08.28.08h.16c.08,0,.12,0,.2-.04v.79c-.16.04-.28.08-.36.08-.12,0-.2.04-.36.04-.36,0-.64-.16-.79-.4-.08-.16-.16-.32-.16-.6-.24.28-.52.56-.91.75-.44.2-.87.28-1.35.28-.56,0-1.03-.16-1.39-.52-.36-.36-.56-.79-.56-1.31,0-.56.2-1.03.56-1.31.36-.32.83-.52,1.39-.6l1.67-.2Z"/>
          <path class="cls-9" d="m291.13,161.41c.24-.36.71-.52,1.39-.52h.44v.95h-.36c-.32,0-.52.08-.56.24-.08.16-.12.6-.12,1.27h1.03v.79h-1.03v5.36h-1.03v-5.36h-.87v-.79h.87v-.99c.04-.44.08-.75.24-.95h0Z"/>
          <path class="cls-9" d="m298.16,165.89c-.04-.44-.16-.79-.32-1.07-.28-.48-.75-.75-1.39-.75-.48,0-.87.2-1.23.52-.32.36-.48.79-.48,1.31h3.42Zm-.4-2.42c.44.2.71.48.95.79.2.32.36.68.4,1.11.08.28.12.75.12,1.35h-4.53c0,.64.16,1.15.44,1.55.28.36.71.56,1.27.56s.99-.16,1.31-.56c.16-.2.32-.44.4-.72h.99c0,.24-.08.48-.24.75-.16.28-.32.52-.52.72-.32.28-.71.52-1.19.6-.24.08-.52.12-.83.12-.75,0-1.43-.28-1.95-.87-.56-.56-.79-1.35-.79-2.34s.28-1.83.79-2.42c.56-.64,1.23-.95,2.11-.95.44,0,.87.12,1.27.32h0Z"/>
          <path class="cls-9" d="m300.55,163.31h.99v.87c.28-.36.6-.64.91-.79.36-.16.71-.24,1.11-.24.87,0,1.47.32,1.79.95.16.32.24.79.24,1.43v3.97h-1.03v-3.89c0-.4-.08-.72-.2-.91-.16-.4-.52-.6-.99-.6-.24,0-.44.04-.6.08-.32.08-.56.24-.75.52-.2.2-.32.4-.36.64-.04.2-.08.52-.08.91v3.26h-1.03v-6.2Z"/>
          <path class="cls-9" d="m308.29,168.59c.2.16.48.24.75.24.4,0,.75-.08,1.07-.24.6-.28.87-.75.87-1.39v-.83c-.12.08-.28.12-.48.2-.2.04-.4.08-.6.12l-.64.08c-.4.04-.68.12-.83.24-.36.16-.52.48-.52.87,0,.28.12.52.36.72h0Zm2.18-2.82c.24-.04.4-.16.48-.32.04-.08.08-.24.08-.4,0-.36-.12-.64-.4-.79-.24-.16-.6-.24-1.07-.24-.56,0-.91.16-1.15.44-.12.16-.2.44-.24.75h-.99c.04-.79.28-1.31.75-1.63.48-.28,1.03-.44,1.67-.44.71,0,1.31.16,1.75.44.48.28.68.68.68,1.27v3.58c0,.12.04.2.08.28.04.08.16.08.28.08h.16c.08,0,.12,0,.2-.04v.79c-.16.04-.28.08-.4.08-.08,0-.2.04-.32.04-.36,0-.64-.16-.79-.4-.08-.16-.16-.32-.2-.6-.2.28-.52.56-.91.75-.4.2-.83.28-1.31.28-.56,0-1.03-.16-1.39-.52-.36-.36-.56-.79-.56-1.31,0-.56.16-1.03.52-1.31.4-.32.83-.52,1.43-.6l1.67-.2Z"/>
          <path class="cls-9" d="m313.73,163.31h1.03v.87c.28-.32.48-.52.68-.68.36-.24.75-.36,1.19-.36.48,0,.87.12,1.19.36.16.16.32.36.48.64.2-.32.48-.6.79-.75.32-.16.68-.24,1.07-.24.83,0,1.39.32,1.71.91.16.32.24.75.24,1.31v4.13h-1.07v-4.29c0-.44-.12-.72-.32-.87-.2-.16-.48-.24-.75-.24-.44,0-.79.16-1.07.44-.28.28-.44.72-.44,1.35v3.61h-1.07v-4.05c0-.4-.04-.72-.16-.91-.16-.28-.44-.44-.87-.44-.4,0-.75.16-1.07.48-.32.28-.48.83-.48,1.63v3.3h-1.07v-6.2Z"/>
          <path class="cls-9" d="m323.67,163.35h1.03v6.16h-1.03v-6.16Zm0-2.34h1.03v1.15h-1.03v-1.15Z"/>
          <path class="cls-9" d="m327.36,168.16c.28.44.75.68,1.35.68.48,0,.87-.2,1.19-.64.32-.4.48-.99.48-1.79s-.16-1.35-.48-1.75c-.32-.36-.71-.56-1.19-.56-.52,0-.95.2-1.27.6-.32.4-.48.99-.48,1.79,0,.68.12,1.23.4,1.67h0Zm2.34-4.65c.16.12.4.32.64.6v-3.14h.99v8.54h-.95v-.87c-.24.4-.52.68-.83.83-.36.2-.71.28-1.15.28-.68,0-1.27-.32-1.79-.87-.52-.6-.75-1.35-.75-2.34,0-.91.24-1.67.68-2.34.48-.68,1.11-.99,1.99-.99.48,0,.87.12,1.19.32h0Z"/>
          <path class="cls-9" d="m337.09,165.89c-.04-.44-.12-.79-.28-1.07-.28-.48-.75-.75-1.43-.75-.48,0-.87.2-1.19.52-.32.36-.48.79-.52,1.31h3.42Zm-.36-2.42c.4.2.71.48.91.79.24.32.36.68.44,1.11.04.28.08.75.08,1.35h-4.53c.04.64.2,1.15.48,1.55.28.36.68.56,1.27.56.56,0,.95-.16,1.31-.56.16-.2.28-.44.36-.72h1.03c-.04.24-.12.48-.28.75-.16.28-.32.52-.52.72-.32.28-.68.52-1.15.6-.24.08-.52.12-.83.12-.79,0-1.43-.28-1.99-.87-.52-.56-.79-1.35-.79-2.34s.28-1.83.83-2.42c.52-.64,1.23-.95,2.11-.95.44,0,.83.12,1.27.32h0Z"/>
          <path class="cls-9" d="m342.85,167.64c.24-.52.75-.99,1.51-1.43l1.11-.64c.48-.32.83-.56,1.03-.75.32-.32.48-.68.48-1.11,0-.48-.16-.87-.44-1.15-.28-.28-.68-.44-1.15-.44-.71,0-1.23.28-1.47.83-.16.28-.24.68-.28,1.19h-1.03c0-.72.12-1.31.4-1.75.44-.83,1.23-1.23,2.38-1.23.95,0,1.67.28,2.11.79.44.52.64,1.07.64,1.71,0,.68-.24,1.23-.71,1.71-.24.28-.75.6-1.43.99l-.79.44c-.4.2-.68.4-.91.6-.36.36-.64.72-.71,1.11h4.53v.99h-5.68c.04-.72.16-1.35.44-1.87h0Z"/>
          <path class="cls-9" d="m350.08,167.4c.08.6.36.99.83,1.23.28.12.56.16.87.16.64,0,1.07-.2,1.39-.6.28-.36.44-.79.44-1.31,0-.56-.2-.99-.56-1.31-.32-.32-.75-.48-1.27-.48-.36,0-.64.04-.91.2-.24.12-.48.32-.64.56l-.91-.04.64-4.45h4.29v.99h-3.54l-.36,2.3c.2-.16.4-.24.56-.32.32-.12.68-.2,1.07-.2.79,0,1.43.24,1.95.75.52.48.79,1.11.79,1.87s-.24,1.47-.71,2.07c-.48.6-1.27.87-2.34.87-.68,0-1.27-.16-1.79-.56-.52-.4-.79-.95-.87-1.75h1.07Z"/>
          <path class="cls-9" d="m359.3,163.31h1.03v.87c.24-.32.48-.52.68-.68.36-.24.75-.36,1.19-.36.48,0,.87.12,1.19.36.16.16.32.36.44.64.24-.32.52-.6.83-.75.32-.16.68-.24,1.03-.24.83,0,1.43.32,1.71.91.16.32.24.75.24,1.31v4.13h-1.07v-4.29c0-.44-.08-.72-.32-.87-.2-.16-.44-.24-.75-.24-.4,0-.75.16-1.03.44-.32.28-.44.72-.44,1.35v3.61h-1.07v-4.05c0-.4-.04-.72-.16-.91-.16-.28-.44-.44-.87-.44-.4,0-.75.16-1.07.48-.36.28-.52.83-.52,1.63v3.3h-1.03v-6.2Z"/>
          <path class="cls-9" d="m372.76,164.66c-.32-.36-.71-.56-1.19-.56-.71,0-1.23.36-1.51,1.03-.12.36-.2.87-.2,1.47,0,.68.12,1.23.4,1.59.32.36.68.56,1.15.56.75,0,1.27-.36,1.59-1.03.16-.4.24-.83.24-1.35,0-.75-.16-1.31-.48-1.71h0Zm-.12-1.11c.2.12.4.32.6.6v-.79h.95v5.64c0,.79-.08,1.43-.32,1.87-.44.87-1.27,1.27-2.46,1.27-.68,0-1.23-.12-1.67-.44-.48-.32-.71-.75-.75-1.39h1.03c.08.28.16.48.32.64.24.24.6.36,1.11.36.79,0,1.31-.32,1.55-.87.16-.32.2-.91.2-1.79-.2.32-.44.56-.75.72-.28.16-.68.24-1.15.24-.68,0-1.27-.24-1.75-.72-.52-.48-.75-1.27-.75-2.38,0-1.03.24-1.83.75-2.42.52-.6,1.11-.87,1.83-.87.48,0,.91.12,1.27.36h0Z"/>
          <polygon class="cls-9" points="385.43 161.01 385.43 162 382.57 162 382.57 169.51 381.38 169.51 381.38 162 378.52 162 378.52 161.01 385.43 161.01"/>
          <path class="cls-9" d="m387.5,168.59c.2.16.48.24.75.24.4,0,.75-.08,1.07-.24.6-.28.87-.75.87-1.39v-.83c-.12.08-.28.12-.48.2-.2.04-.4.08-.6.12l-.64.08c-.4.04-.68.12-.87.24-.32.16-.48.48-.48.87,0,.28.12.52.36.72h0Zm2.18-2.82c.24-.04.4-.16.48-.32.04-.08.08-.24.08-.4,0-.36-.12-.64-.4-.79-.24-.16-.6-.24-1.07-.24-.56,0-.91.16-1.15.44-.12.16-.2.44-.24.75h-.99c.04-.79.28-1.31.75-1.63.48-.28,1.03-.44,1.67-.44.71,0,1.31.16,1.75.44.48.28.68.68.68,1.27v3.58c0,.12.04.2.08.28.04.08.12.08.28.08h.16s.12,0,.2-.04v.79c-.16.04-.32.08-.4.08s-.2.04-.32.04c-.36,0-.64-.16-.79-.4-.08-.16-.16-.32-.2-.6-.2.28-.52.56-.91.75-.4.2-.83.28-1.31.28-.56,0-1.03-.16-1.39-.52-.4-.36-.56-.79-.56-1.31,0-.56.16-1.03.52-1.31.36-.32.83-.52,1.43-.6l1.67-.2Z"/>
          <path class="cls-9" d="m396.87,168.12c.28-.44.4-1.03.4-1.79,0-.64-.12-1.19-.4-1.63-.28-.4-.71-.64-1.27-.64-.48,0-.87.2-1.23.56-.36.32-.56.91-.56,1.71,0,.6.08,1.07.24,1.43.28.68.79,1.03,1.55,1.03.56,0,.99-.24,1.27-.68h0Zm-4.01-7.15h1.03v3.1c.24-.32.48-.52.79-.68.32-.16.68-.24,1.07-.24.75,0,1.39.24,1.87.79.48.52.71,1.31.71,2.34s-.24,1.79-.71,2.46c-.48.64-1.11.95-1.99.95-.48,0-.87-.12-1.19-.32-.2-.16-.4-.36-.64-.68v.79h-.95v-8.54Z"/>
          <rect class="cls-9" x="399.57" y="161.01" width="1.07" height="8.5"/>
          <path class="cls-9" d="m406.4,165.89c-.04-.44-.12-.79-.28-1.07-.28-.48-.75-.75-1.43-.75-.48,0-.87.2-1.19.52-.32.36-.52.79-.52,1.31h3.42Zm-.36-2.42c.4.2.71.48.91.79.24.32.36.68.44,1.11.04.28.08.75.08,1.35h-4.53c.04.64.2,1.15.44,1.55.28.36.71.56,1.31.56.52,0,.95-.16,1.27-.56.2-.2.32-.44.4-.72h1.03c-.04.24-.12.48-.28.75-.16.28-.32.52-.52.72-.32.28-.71.52-1.15.6-.24.08-.56.12-.83.12-.79,0-1.43-.28-1.99-.87-.52-.56-.79-1.35-.79-2.34s.28-1.83.79-2.42c.56-.64,1.27-.95,2.14-.95.44,0,.83.12,1.27.32h0Z"/>
          <path class="cls-9" d="m409.03,161.56h1.03v1.75h.99v.83h-.99v4.05c0,.24.08.36.24.44.08.04.2.08.4.08h.16s.12,0,.2-.04v.83c-.12.04-.24.08-.36.08-.16,0-.28.04-.44.04-.48,0-.79-.12-.99-.4-.16-.24-.24-.56-.24-.95v-4.13h-.87v-.83h.87v-1.75Z"/>
          <path class="cls-9" d="m412.72,167.56c.04.36.12.64.28.79.24.36.71.52,1.39.52.4,0,.75-.08,1.03-.24.32-.2.44-.44.44-.79,0-.28-.12-.48-.36-.6-.12-.08-.44-.2-.87-.32l-.87-.2c-.52-.12-.91-.28-1.19-.44-.44-.28-.68-.68-.68-1.19,0-.56.24-1.03.64-1.43.44-.36,1.03-.52,1.75-.52.95,0,1.63.28,2.07.79.24.36.36.75.36,1.15h-.99c0-.24-.08-.44-.24-.64-.24-.28-.68-.44-1.27-.44-.4,0-.71.08-.91.24-.24.16-.32.36-.32.6,0,.28.12.48.4.64.16.12.4.2.71.28l.68.16c.79.2,1.31.36,1.55.52.4.28.6.72.6,1.27s-.2,1.03-.64,1.43c-.4.4-1.07.6-1.91.6-.95,0-1.63-.2-1.99-.64-.4-.4-.64-.91-.64-1.55h.99Z"/>
          <g id="RX_Logo_2" data-name="RX Logo 2">
            <g class="cls-10">
              <g class="cls-5">
                <path class="cls-8" d="m16.62,50.26l-.96,4.52c1.37-.11,2.37-1.88,2.37-3.33,0-1-.49-1.84-1.68-1.84-2.19,0-3.5,1.23-3.5,3.29,0,.69.18.8.19.92-.93,0-1.45-.34-1.45-1.31,0-1.8,2.49-3.52,4.75-3.52s3.19,1.27,3.19,2.67c0,1.72-1.48,3.63-3.91,3.63h-.07l-.82,3.86h-1.95l1.84-8.61,2-.27Z"/>
                <path class="cls-8" d="m16.1,58.21l-.87-1.26c-.52-.75-.74-.89-.96-.78l.24-1.36c.97-.48,1.61.23,2.02.8l.58.81.48.66.16.22,2.1,2.76c.52.72.8.92,1.23.71.23-.11.3-.18.41-.3.38.92-.15,1.63-.81,1.96-.59.29-1.23.07-1.99-.79-.09-.11-1.83-2.36-1.93-2.48-.06-.08-.13-.17-.19-.26l-.46-.68Z"/>
                <path class="cls-8" d="m19.2,58.32s.02-.02.02-.02c.56-.67.85-1.15.84-1.54-.08.02-.16.04-.23.04-.47.04-.66-.22-.69-.57-.04-.38.38-.6.86-.64.5-.05.81.47.85.96.07.68-.43,1.3-1.46,2.45-.04.04-1.26,1.43-1.3,1.48l-.37-.6c.05-.05,1.29-1.34,1.47-1.55"/>
                <polygon class="cls-8" points="18.15 60.24 16.28 62.52 15.31 62.52 18.04 59.43 18.15 60.24"/>
              </g>
            </g>
          </g>
        </g>
        <g>
          <path class="cls-1" d="m109.08,199.67c-.06.26-.1.53-.13.8-.05.42-.07.83-.07,1.25s.03.81.08,1.22c.05.42.12.83.22,1.24.09.38.23.74.47,1.05.08.11.31.2.43.25.14.05.29.09.45.11.19.03.38.05.58.05s.39-.02.58-.05c.15-.02.3-.06.45-.11.15-.05.37-.14.47-.27.22-.29.34-.64.42-.99.09-.42.17-.85.23-1.28.05-.4.08-.81.08-1.22s-.03-.79-.08-1.19c-.05-.43-.13-.86-.23-1.28-.08-.36-.21-.73-.44-1.02-.08-.1-.31-.19-.42-.23-.16-.05-.32-.1-.48-.12-.19-.03-.38-.05-.58-.05s-.39.02-.58.05c-.15.02-.3.06-.45.11-.1.03-.33.13-.4.22-.25.35-.42.76-.52,1.17l-.08.29Zm35.57-12.55h14.96c.23,0,.45.02.68.03.3,0,.59.02.88.04,1.07.08,2.13.23,3.17.52,1.41.39,2.66,1.14,3.7,2.16.92.9,1.62,1.96,2.09,3.15.42,1.08.7,2.2.74,3.36,0,.11,0,.21,0,.31.04.53.02.18.02.66.01,2.13-.48,4.17-1.64,5.96-.38.59-.82,1.11-1.31,1.56l6.81,11.37h-13.83l-4.33-7.72v7.72h-11.96v-3.1c-.88.88-1.92,1.57-3.09,2.06-1.32.55-2.7.89-4.12,1.07-.52.07-1.04.12-1.56.15-.47.02-.95.03-1.42.03s-.92-.01-1.38-.03c-.51-.02-1-.08-1.51-.14-1.44-.17-2.84-.49-4.19-1.04-1.67-.69-3.07-1.78-4.13-3.24-.1-.14-.19-.27-.28-.41-.4.56-.86,1.08-1.37,1.57-1.61,1.53-3.59,2.47-5.74,2.99-.82.2-1.65.35-2.49.43-.82.08-1.64.13-2.47.13s-1.57-.05-2.35-.15c-.75-.1-1.49-.23-2.22-.4-2.15-.5-4.13-1.46-5.73-3-1.61-1.54-2.68-3.47-3.3-5.6-.27-.93-.46-1.88-.58-2.84-.07-.51-.12-1.02-.15-1.53l-.64.92v12.15h-11.96v-12.16l-11.56-16.98h14.11l3.38,5.23,3.44-5.23h13.57c.56-.12,1.12-.2,1.69-.27.78-.1,1.56-.14,2.34-.15.86-.01,1.71.02,2.56.11.87.1,1.72.27,2.56.49,1.94.52,3.74,1.37,5.24,2.71v-2.9h11.93v16.72c0,.35.03,1.21.18,1.72.33.06.81.08,1.04.08s.68-.01,1.02-.07c.14-.5.17-1.35.17-1.69v-16.75h9Zm134.44,11.2c-.12,1.78-.62,3.48-1.61,5-.38.59-.82,1.11-1.31,1.56l4.18,6.98v-13.55h-1.25Zm-5.75-10.35v-.82h26.17v11.17h-7.06v17.94h-23.31l-4.33-7.72v7.72h-17.4l-2-5.18h-4.36l-1.94,5.18h-37.13v-1.82c-2.19,1.37-4.79,1.82-7.34,1.82h-15.87v-11.26h2.1c-2.26-1.89-3.02-4.76-2.98-7.66.04-3.18.98-6.32,3.73-8.18,2.24-1.51,4.93-2,7.58-2.01l15.67-.04h0s10.18,0,10.18,0l2.88,8.68,2.88-8.68h13.05v10.87l4.59-10.87h9.74l4.66,10.93v-10.93h14.96c.23,0,.45.02.68.03.3,0,.59.02.88.04,1.07.08,2.13.23,3.17.52.27.07.53.16.79.26Zm74.36-.82v-.03h14.96c.23,0,.45.02.68.03.3,0,.59.02.88.04,1.07.08,2.13.23,3.17.52,1.41.39,2.66,1.14,3.7,2.16.92.9,1.62,1.96,2.09,3.15.42,1.08.7,2.2.74,3.36,0,.11,0,.21,0,.31.04.53.02.18.02.66.01,2.13-.48,4.17-1.64,5.96-.38.59-.82,1.11-1.31,1.56l6.81,11.37h-13.83l-4.33-7.72v7.72h-11.96v-17.94h-1.89v17.94h-12.11v-17.94h-1.86v.06h-2.03c.11.09.21.19.32.29.89.83,1.57,1.83,2.01,2.96.36.94.59,1.92.69,2.92.02.25.04.5.06.75.01.27.02.54.02.82-.03,3.18-.97,6.34-3.74,8.18-2.23,1.48-4.92,1.96-7.56,1.96h-15.87v-11.26h2.1c-2.26-1.89-3.02-4.76-2.98-7.66.04-3.18.98-6.32,3.73-8.18,2.24-1.51,4.93-2,7.58-2.01l15.67-.04v.04h15.86Z"/>
          <path class="cls-11" d="m361.59,194.69h-5.61v5.48h5.61s.08.03.12.03h.12c.97,0,1.85-.15,2.65-.44.8-.29,1.19-1.07,1.17-2.32,0-1.29-.42-2.07-1.26-2.33-.84-.26-1.77-.39-2.8-.39v-.03Zm-10.18-3.88h11.27c.22.02.44.03.65.03s.43,0,.65.03c.83.04,1.64.17,2.44.39.8.22,1.5.64,2.11,1.24.55.53.95,1.14,1.23,1.85.27.71.44,1.43.5,2.18,0,.14,0,.28.02.42.01.14.02.28.02.42.02,1.52-.33,2.82-1.05,3.92-.72,1.1-1.83,1.83-3.35,2.2l5.42,9.06h-5.15l-4.79-8.55h-5.39v8.55h-4.58v-21.76Zm-14,3.82h-7v-3.79h18.79v3.79h-7.06v17.94h-4.73v-17.94Zm-9.24.06h-11.3c-.99.02-1.82.23-2.5.62-.68.39-1.02,1.15-1.02,2.26,0,.85.29,1.45.86,1.82.58.36,1.25.55,2.02.55l6.06-.03c.22.02.45.03.7.03s.49.01.73.03c.71.04,1.4.16,2.09.35.69.19,1.29.54,1.82,1.05.48.44.85.98,1.09,1.61.24.63.39,1.27.45,1.94.02.2.04.4.05.59.01.19.02.39.02.59-.04,2.53-.74,4.24-2.09,5.14-1.35.9-3.19,1.35-5.52,1.35h-12.18v-3.88h11.45c1.01.02,1.88-.14,2.62-.48.74-.34,1.04-1.12.89-2.33-.1-.95-.45-1.54-1.06-1.76-.61-.22-1.32-.34-2.15-.36l-5.39-.03c-2.24.02-4.02-.43-5.32-1.35-1.3-.92-1.94-2.58-1.92-4.98.04-2.53.74-4.25,2.11-5.17,1.36-.92,3.21-1.38,5.53-1.38l11.97-.03v3.88Zm-44.12-.06h-7v-3.79h18.79v3.79h-7.06v17.94h-4.73v-17.94Zm-17.3.06h-5.61v5.48h5.61s.08.03.12.03h.12c.97,0,1.85-.15,2.65-.44.8-.29,1.19-1.07,1.17-2.32,0-1.29-.42-2.07-1.26-2.33-.84-.26-1.77-.39-2.8-.39v-.03Zm-10.18-3.88h11.27c.22.02.44.03.65.03s.43,0,.65.03c.83.04,1.64.17,2.44.39.8.22,1.5.64,2.11,1.24.55.53.95,1.14,1.23,1.85.27.71.44,1.43.5,2.18,0,.14,0,.28.02.42.01.14.02.28.02.42.02,1.52-.33,2.82-1.05,3.92-.72,1.1-1.83,1.83-3.35,2.2l5.42,9.06h-5.15l-4.79-8.55h-5.39v8.55h-4.58v-21.76Zm-13.39,4.33l-3.18,8.36h6.48l-3.3-8.36Zm-2.24-4.33h4.85l9.27,21.76h-5.09l-2-5.18h-9.45l-1.94,5.18h-4.82l9.18-21.76Zm-35.24,0h6.73l5.55,16.7,5.55-16.7h6.7v21.76h-4.48l.36-16.94-5.58,16.94h-4.85l-5.76-17.12.45,17.12h-4.67v-21.76Zm-4.48,3.88h-11.3c-.99.02-1.82.23-2.5.62-.68.39-1.02,1.15-1.02,2.26,0,.85.29,1.45.86,1.82.58.36,1.25.55,2.02.55l6.06-.03c.22.02.45.03.7.03s.49.01.73.03c.71.04,1.4.16,2.09.35.69.19,1.29.54,1.82,1.05.48.44.85.98,1.09,1.61.24.63.39,1.27.45,1.94.02.2.04.4.05.59.01.19.02.39.02.59-.04,2.53-.74,4.24-2.09,5.14-1.35.9-3.19,1.35-5.52,1.35h-12.18v-3.88h11.45c1.01.02,1.88-.14,2.62-.48.74-.34,1.04-1.12.89-2.33-.1-.95-.45-1.54-1.06-1.76-.61-.22-1.32-.34-2.15-.36l-5.39-.03c-2.24.02-4.02-.43-5.32-1.35-1.3-.92-1.94-2.58-1.92-4.98.04-2.53.74-4.25,2.11-5.17,1.36-.92,3.21-1.38,5.53-1.38l11.97-.03v3.88Zm-42.67,0h-5.61v5.48h5.61s.08.03.12.03h.12c.97,0,1.85-.15,2.65-.44.8-.29,1.19-1.07,1.17-2.32,0-1.29-.42-2.07-1.26-2.33-.84-.26-1.77-.39-2.8-.39v-.03Zm-10.18-3.88h11.27c.22.02.44.03.65.03s.43,0,.65.03c.83.04,1.64.17,2.44.39.8.22,1.5.64,2.11,1.24.55.53.95,1.14,1.23,1.85.27.71.44,1.43.5,2.18,0,.14,0,.28.02.42.01.14.02.28.02.42.02,1.52-.33,2.82-1.05,3.92-.72,1.1-1.83,1.83-3.35,2.2l5.42,9.06h-5.15l-4.79-8.55h-5.39v8.55h-4.58v-21.76Zm-18.79,0v13.03c0,1.84.32,3.21.97,4.12.65.91,1.96,1.36,3.94,1.36s3.29-.45,3.92-1.36c.64-.91.95-2.27.95-4.09v-13.06h4.58v13.94c0,.26-.01.52-.03.76-.02.77-.12,1.52-.29,2.26-.17.74-.49,1.43-.95,2.08-.65.89-1.48,1.55-2.5,1.97-1.02.42-2.08.7-3.17.82-.42.06-.85.1-1.27.12-.42.02-.84.03-1.24.03s-.78-.01-1.2-.03c-.41-.02-.83-.06-1.26-.12-1.11-.1-2.18-.36-3.21-.79-1.03-.42-1.88-1.09-2.55-2-.46-.65-.78-1.34-.94-2.08-.16-.74-.25-1.49-.27-2.26-.02-.24-.03-.49-.03-.76v-13.94h4.55Zm-28.7,6.06c.53-1.6,1.3-2.89,2.32-3.89,1.02-1,2.36-1.71,4.02-2.14.61-.14,1.23-.25,1.88-.33.65-.08,1.29-.12,1.94-.12.69-.02,1.38,0,2.09.09.71.08,1.38.21,2.03.39,1.62.4,2.94,1.11,3.97,2.12,1.03,1.01,1.79,2.31,2.27,3.91.2.73.36,1.49.47,2.3.11.81.17,1.62.17,2.42,0,.87-.05,1.72-.15,2.55-.1.83-.26,1.62-.49,2.36-.48,1.64-1.25,2.95-2.3,3.95-1.05,1-2.4,1.69-4.06,2.08-.65.16-1.31.28-2,.35-.69.07-1.38.11-2.09.11-.63,0-1.25-.04-1.88-.12-.63-.08-1.24-.19-1.85-.33-1.64-.38-2.98-1.08-4.03-2.08-1.05-1-1.82-2.32-2.3-3.95-.2-.71-.36-1.47-.47-2.3-.11-.83-.17-1.67-.17-2.52s.05-1.69.15-2.53c.1-.84.26-1.6.48-2.29v-.03Zm4.73,1.55c-.14.55-.24,1.1-.3,1.65-.06.56-.09,1.11-.09,1.65s.04,1.13.11,1.68c.07.56.17,1.1.29,1.62.22.93.59,1.74,1.11,2.42.52.69,1.24,1.19,2.17,1.52.34.12.71.21,1.09.27.38.06.77.09,1.15.09s.77-.03,1.15-.09c.38-.06.75-.15,1.09-.27.93-.32,1.66-.83,2.18-1.52.53-.69.89-1.49,1.09-2.42.12-.53.22-1.07.29-1.62.07-.56.11-1.12.11-1.68s-.04-1.1-.11-1.65c-.07-.56-.17-1.1-.29-1.62-.2-.93-.57-1.74-1.09-2.44-.53-.7-1.25-1.2-2.18-1.5-.34-.12-.71-.21-1.09-.27-.38-.06-.77-.09-1.15-.09s-.77.03-1.15.09c-.38.06-.75.15-1.09.27-.93.32-1.65.83-2.15,1.52-.51.69-.88,1.49-1.12,2.42v-.03Zm-26.18-7.61h5.12l5.36,8.3,5.45-8.3h5.3l-8.39,12.15v9.61h-4.58v-9.61l-8.27-12.15Z"/>
          <rect class="cls-11" x="33.74" y="191.92" width="30.76" height="2.63"/>
          <rect class="cls-11" x="39.51" y="200.37" width="24.99" height="2.63"/>
          <rect class="cls-11" x="44.2" y="208.83" width="20.31" height="2.63"/>
          <rect class="cls-11" x="384.56" y="191.92" width="30.76" height="2.63"/>
          <rect class="cls-11" x="384.56" y="200.37" width="24.99" height="2.63"/>
          <rect class="cls-11" x="384.56" y="208.83" width="20.31" height="2.63"/>
        </g>
      </g>
      <text class="cls-4" transform="translate(30.17 18.17)"><tspan x="0" y="0">For the Management of HIV Infection</tspan></text>
    </g>
  </g>
</svg>